{
    "asset" : {
        "generator" : "Khronos glTF Blender I/O v1.6.16",
        "version" : "2.0"
    },
    "scene" : 0,
    "scenes" : [
        {
            "name" : "Scene",
            "nodes" : [
                1,
                3,
                5,
                7,
                8,
                9
            ]
        }
    ],
    "nodes" : [
        {
            "mesh" : 0,
            "name" : "default007_0"
        },
        {
            "children" : [
                0
            ],
            "name" : "default007",
            "scale" : [
                0.009999999776482582,
                0.009999999776482582,
                0.009999999776482582
            ]
        },
        {
            "mesh" : 1,
            "name" : "default006_0"
        },
        {
            "children" : [
                2
            ],
            "name" : "default006",
            "scale" : [
                0.009999999776482582,
                0.009999999776482582,
                0.009999999776482582
            ]
        },
        {
            "mesh" : 2,
            "name" : "default004_0"
        },
        {
            "children" : [
                4
            ],
            "name" : "default004",
            "scale" : [
                0.009999999776482582,
                0.009999999776482582,
                0.009999999776482582
            ]
        },
        {
            "mesh" : 3,
            "name" : "default002_0"
        },
        {
            "children" : [
                6
            ],
            "name" : "default002",
            "scale" : [
                0.009999999776482582,
                0.009999999776482582,
                0.009999999776482582
            ]
        },
        {
            "mesh" : 4,
            "name" : "Boxers_6921.Shape_3"
        },
        {
            "mesh" : 5,
            "name" : "Boxers_6921.Shape_4"
        }
    ],
    "materials" : [
        {
            "doubleSided" : true,
            "name" : "Material.002",
            "pbrMetallicRoughness" : {
                "baseColorTexture" : {
                    "index" : 0
                },
                "metallicFactor" : 0,
                "roughnessFactor" : 0.6000000238418579
            }
        },
        {
            "doubleSided" : true,
            "name" : "Material.003",
            "pbrMetallicRoughness" : {
                "baseColorTexture" : {
                    "index" : 1
                },
                "metallicFactor" : 0,
                "roughnessFactor" : 0.6000000238418579
            }
        },
        {
            "doubleSided" : true,
            "name" : "Material.001",
            "pbrMetallicRoughness" : {
                "baseColorTexture" : {
                    "index" : 2
                },
                "metallicFactor" : 0,
                "roughnessFactor" : 0.6000000238418579
            }
        },
        {
            "alphaMode" : "BLEND",
            "doubleSided" : true,
            "name" : "Button",
            "pbrMetallicRoughness" : {
                "baseColorFactor" : [
                    1,
                    1,
                    1,
                    0.15000000596046448
                ],
                "metallicFactor" : 0,
                "roughnessFactor" : 0.6000000238418579
            }
        },
        {
            "alphaMode" : "BLEND",
            "doubleSided" : true,
            "name" : "ButtonThread",
            "pbrMetallicRoughness" : {
                "baseColorFactor" : [
                    1,
                    1,
                    1,
                    0.15000000596046448
                ],
                "metallicFactor" : 0,
                "roughnessFactor" : 0.6000000238418579
            }
        }
    ],
    "meshes" : [
        {
            "name" : "default007_0",
            "primitives" : [
                {
                    "attributes" : {
                        "POSITION" : 0,
                        "NORMAL" : 1,
                        "TEXCOORD_0" : 2
                    },
                    "indices" : 3,
                    "material" : 0
                }
            ]
        },
        {
            "name" : "default006_0",
            "primitives" : [
                {
                    "attributes" : {
                        "POSITION" : 4,
                        "NORMAL" : 5,
                        "TEXCOORD_0" : 6
                    },
                    "indices" : 7,
                    "material" : 0
                }
            ]
        },
        {
            "name" : "default004_0",
            "primitives" : [
                {
                    "attributes" : {
                        "POSITION" : 8,
                        "NORMAL" : 9,
                        "TEXCOORD_0" : 10
                    },
                    "indices" : 11,
                    "material" : 1
                }
            ]
        },
        {
            "name" : "default002_0",
            "primitives" : [
                {
                    "attributes" : {
                        "POSITION" : 12,
                        "NORMAL" : 13,
                        "TEXCOORD_0" : 14
                    },
                    "indices" : 15,
                    "material" : 2
                }
            ]
        },
        {
            "name" : "Boxers_6921.Shape_3",
            "primitives" : [
                {
                    "attributes" : {
                        "POSITION" : 16,
                        "NORMAL" : 17,
                        "TEXCOORD_0" : 18
                    },
                    "indices" : 19,
                    "material" : 3
                }
            ]
        },
        {
            "name" : "Boxers_6921.Shape_4",
            "primitives" : [
                {
                    "attributes" : {
                        "POSITION" : 20,
                        "NORMAL" : 21,
                        "TEXCOORD_0" : 22
                    },
                    "indices" : 23,
                    "material" : 4
                }
            ]
        }
    ],
    "textures" : [
        {
            "sampler" : 0,
            "source" : 0
        },
        {
            "sampler" : 0,
            "source" : 1
        },
        {
            "sampler" : 0,
            "source" : 2
        }
    ],
    "images" : [
        {
            "mimeType" : "image/png",
            "name" : "jacket_1.png",
            "uri" : "jacket_1.png"
        },
        {
            "mimeType" : "image/png",
            "name" : "pants_1.png",
            "uri" : "pants_1.png"
        },
        {
            "mimeType" : "image/png",
            "name" : "shoes_1.png",
            "uri" : "shoes_1.png"
        }
    ],
    "accessors" : [
        {
            "bufferView" : 0,
            "componentType" : 5126,
            "count" : 3421,
            "max" : [
                53.710899353027344,
                161.62159729003906,
                15.625
            ],
            "min" : [
                -53.75979995727539,
                82.12940216064453,
                -18.50589942932129
            ],
            "type" : "VEC3"
        },
        {
            "bufferView" : 1,
            "componentType" : 5126,
            "count" : 3421,
            "type" : "VEC3"
        },
        {
            "bufferView" : 2,
            "componentType" : 5126,
            "count" : 3421,
            "type" : "VEC2"
        },
        {
            "bufferView" : 3,
            "componentType" : 5123,
            "count" : 16728,
            "type" : "SCALAR"
        },
        {
            "bufferView" : 4,
            "componentType" : 5126,
            "count" : 1062,
            "max" : [
                50.830101013183594,
                162.15870666503906,
                15.136699676513672
            ],
            "min" : [
                -50.92770004272461,
                97.75440216064453,
                -13.47659969329834
            ],
            "type" : "VEC3"
        },
        {
            "bufferView" : 5,
            "componentType" : 5126,
            "count" : 1062,
            "type" : "VEC3"
        },
        {
            "bufferView" : 6,
            "componentType" : 5126,
            "count" : 1062,
            "type" : "VEC2"
        },
        {
            "bufferView" : 7,
            "componentType" : 5123,
            "count" : 5523,
            "type" : "SCALAR"
        },
        {
            "bufferView" : 8,
            "componentType" : 5126,
            "count" : 1233,
            "max" : [
                21.04490089416504,
                110.01029968261719,
                13.72070026397705
            ],
            "min" : [
                -21.337900161743164,
                3.4184999465942383,
                -16.3085994720459
            ],
            "type" : "VEC3"
        },
        {
            "bufferView" : 9,
            "componentType" : 5126,
            "count" : 1233,
            "type" : "VEC3"
        },
        {
            "bufferView" : 10,
            "componentType" : 5126,
            "count" : 1233,
            "type" : "VEC2"
        },
        {
            "bufferView" : 11,
            "componentType" : 5123,
            "count" : 5832,
            "type" : "SCALAR"
        },
        {
            "bufferView" : 12,
            "componentType" : 5126,
            "count" : 772,
            "max" : [
                22.216800689697266,
                16.797399520874023,
                19.4335994720459
            ],
            "min" : [
                -23.095699310302734,
                -0.09719999879598618,
                -13.525400161743164
            ],
            "type" : "VEC3"
        },
        {
            "bufferView" : 13,
            "componentType" : 5126,
            "count" : 772,
            "type" : "VEC3"
        },
        {
            "bufferView" : 14,
            "componentType" : 5126,
            "count" : 772,
            "type" : "VEC2"
        },
        {
            "bufferView" : 15,
            "componentType" : 5123,
            "count" : 3276,
            "type" : "SCALAR"
        },
        {
            "bufferView" : 16,
            "componentType" : 5126,
            "count" : 228,
            "max" : [
                1.2765100002288818,
                97.80827331542969,
                13.157010078430176
            ],
            "min" : [
                0.40435999631881714,
                96.96112823486328,
                12.947360038757324
            ],
            "type" : "VEC3"
        },
        {
            "bufferView" : 17,
            "componentType" : 5126,
            "count" : 228,
            "type" : "VEC3"
        },
        {
            "bufferView" : 18,
            "componentType" : 5126,
            "count" : 228,
            "type" : "VEC2"
        },
        {
            "bufferView" : 19,
            "componentType" : 5123,
            "count" : 1188,
            "type" : "SCALAR"
        },
        {
            "bufferView" : 20,
            "componentType" : 5126,
            "count" : 60,
            "max" : [
                1.1581799983978271,
                97.71056365966797,
                13.47719955444336
            ],
            "min" : [
                0.5371400117874146,
                97.10386657714844,
                12.816559791564941
            ],
            "type" : "VEC3"
        },
        {
            "bufferView" : 21,
            "componentType" : 5126,
            "count" : 60,
            "type" : "VEC3"
        },
        {
            "bufferView" : 22,
            "componentType" : 5126,
            "count" : 60,
            "type" : "VEC2"
        },
        {
            "bufferView" : 23,
            "componentType" : 5123,
            "count" : 240,
            "type" : "SCALAR"
        }
    ],
    "bufferViews" : [
        {
            "buffer" : 0,
            "byteLength" : 41052,
            "byteOffset" : 0
        },
        {
            "buffer" : 0,
            "byteLength" : 41052,
            "byteOffset" : 41052
        },
        {
            "buffer" : 0,
            "byteLength" : 27368,
            "byteOffset" : 82104
        },
        {
            "buffer" : 0,
            "byteLength" : 33456,
            "byteOffset" : 109472
        },
        {
            "buffer" : 0,
            "byteLength" : 12744,
            "byteOffset" : 142928
        },
        {
            "buffer" : 0,
            "byteLength" : 12744,
            "byteOffset" : 155672
        },
        {
            "buffer" : 0,
            "byteLength" : 8496,
            "byteOffset" : 168416
        },
        {
            "buffer" : 0,
            "byteLength" : 11046,
            "byteOffset" : 176912
        },
        {
            "buffer" : 0,
            "byteLength" : 14796,
            "byteOffset" : 187960
        },
        {
            "buffer" : 0,
            "byteLength" : 14796,
            "byteOffset" : 202756
        },
        {
            "buffer" : 0,
            "byteLength" : 9864,
            "byteOffset" : 217552
        },
        {
            "buffer" : 0,
            "byteLength" : 11664,
            "byteOffset" : 227416
        },
        {
            "buffer" : 0,
            "byteLength" : 9264,
            "byteOffset" : 239080
        },
        {
            "buffer" : 0,
            "byteLength" : 9264,
            "byteOffset" : 248344
        },
        {
            "buffer" : 0,
            "byteLength" : 6176,
            "byteOffset" : 257608
        },
        {
            "buffer" : 0,
            "byteLength" : 6552,
            "byteOffset" : 263784
        },
        {
            "buffer" : 0,
            "byteLength" : 2736,
            "byteOffset" : 270336
        },
        {
            "buffer" : 0,
            "byteLength" : 2736,
            "byteOffset" : 273072
        },
        {
            "buffer" : 0,
            "byteLength" : 1824,
            "byteOffset" : 275808
        },
        {
            "buffer" : 0,
            "byteLength" : 2376,
            "byteOffset" : 277632
        },
        {
            "buffer" : 0,
            "byteLength" : 720,
            "byteOffset" : 280008
        },
        {
            "buffer" : 0,
            "byteLength" : 720,
            "byteOffset" : 280728
        },
        {
            "buffer" : 0,
            "byteLength" : 480,
            "byteOffset" : 281448
        },
        {
            "buffer" : 0,
            "byteLength" : 480,
            "byteOffset" : 281928
        }
    ],
    "samplers" : [
        {
            "magFilter" : 9729,
            "minFilter" : 9987
        }
    ],
    "buffers" : [
        {
            "byteLength" : 282408,
            "uri" : "scene.bin"
        }
    ]
}
