{
  "accessors": [
    {
      "bufferView": 2,
      "componentType": 5126,
      "count": 4,
      "max": [
        167.02890014648438,
        167.02890014648438,
        0
      ],
      "min": [
        -167.02890014648438,
        -167.02890014648438,
        0
      ],
      "type": "VEC3"
    },
    {
      "bufferView": 2,
      "byteOffset": 48,
      "componentType": 5126,
      "count": 4,
      "max": [
        0,
        0,
        1
      ],
      "min": [
        0,
        0,
        1
      ],
      "type": "VEC3"
    },
    {
      "bufferView": 3,
      "componentType": 5126,
      "count": 4,
      "max": [
        1,
        2.3841863594498136e-07,
        0,
        1
      ],
      "min": [
        1,
        1.8270841906087298e-07,
        0,
        1
      ],
      "type": "VEC4"
    },
    {
      "bufferView": 1,
      "componentType": 5126,
      "count": 4,
      "max": [
        1,
        1
      ],
      "min": [
        2.9802322387695312e-08,
        2.9802322387695312e-08
      ],
      "type": "VEC2"
    },
    {
      "bufferView": 0,
      "componentType": 5125,
      "count": 6,
      "max": [
        3
      ],
      "min": [
        0
      ],
      "type": "SCALAR"
    },
    {
      "bufferView": 2,
      "byteOffset": 96,
      "componentType": 5126,
      "count": 6901,
      "max": [
        89.180191040039062,
        40.078044891357422,
        79.048004150390625
      ],
      "min": [
        -89.180191040039062,
        -47.668857574462891,
        19.792739868164062
      ],
      "type": "VEC3"
    },
    {
      "bufferView": 2,
      "byteOffset": 82908,
      "componentType": 5126,
      "count": 6901,
      "max": [
        1,
        0.99999725818634033,
        1
      ],
      "min": [
        -1,
        -0.99999946355819702,
        -1
      ],
      "type": "VEC3"
    },
    {
      "bufferView": 3,
      "byteOffset": 64,
      "componentType": 5126,
      "count": 6901,
      "max": [
        1,
        0.99999642372131348,
        0.99991363286972046,
        1
      ],
      "min": [
        -1,
        -0.99999994039535522,
        -0.99991399049758911,
        -1
      ],
      "type": "VEC4"
    },
    {
      "bufferView": 1,
      "byteOffset": 32,
      "componentType": 5126,
      "count": 6901,
      "max": [
        0.99232864379882812,
        0.99028229713439941
      ],
      "min": [
        0.00050000002374872565,
        0.00050000002374872565
      ],
      "type": "VEC2"
    },
    {
      "bufferView": 0,
      "byteOffset": 24,
      "componentType": 5125,
      "count": 35952,
      "max": [
        6900
      ],
      "min": [
        0
      ],
      "type": "SCALAR"
    },
    {
      "bufferView": 2,
      "byteOffset": 165720,
      "componentType": 5126,
      "count": 3481,
      "max": [
        87.771354675292969,
        47.426124572753906,
        74.530082702636719
      ],
      "min": [
        -87.71014404296875,
        -46.129371643066406,
        19.432167053222656
      ],
      "type": "VEC3"
    },
    {
      "bufferView": 2,
      "byteOffset": 207492,
      "componentType": 5126,
      "count": 3481,
      "max": [
        1,
        0.99999880790710449,
        0.99999749660491943
      ],
      "min": [
        -1,
        -0.99427920579910278,
        -0.99999988079071045
      ],
      "type": "VEC3"
    },
    {
      "bufferView": 3,
      "byteOffset": 110480,
      "componentType": 5126,
      "count": 3481,
      "max": [
        1,
        0.96504783630371094,
        0.9999997615814209,
        1
      ],
      "min": [
        -1,
        -0.99988490343093872,
        -0.99999988079071045,
        -1
      ],
      "type": "VEC4"
    },
    {
      "bufferView": 1,
      "byteOffset": 55240,
      "componentType": 5126,
      "count": 3481,
      "max": [
        0.99460685253143311,
        0.99556875228881836
      ],
      "min": [
        0.024069951847195625,
        0.00050000002374872565
      ],
      "type": "VEC2"
    },
    {
      "bufferView": 0,
      "byteOffset": 143832,
      "componentType": 5125,
      "count": 18618,
      "max": [
        3480
      ],
      "min": [
        0
      ],
      "type": "SCALAR"
    },
    {
      "bufferView": 2,
      "byteOffset": 249264,
      "componentType": 5126,
      "count": 6886,
      "max": [
        85.366111755371094,
        47.430343627929688,
        20.998979568481445
      ],
      "min": [
        -84.546928405761719,
        -46.037815093994141,
        2.6226043701171875e-06
      ],
      "type": "VEC3"
    },
    {
      "bufferView": 2,
      "byteOffset": 331896,
      "componentType": 5126,
      "count": 6886,
      "max": [
        1,
        1,
        1
      ],
      "min": [
        -1,
        -1,
        -1
      ],
      "type": "VEC3"
    },
    {
      "bufferView": 3,
      "byteOffset": 166176,
      "componentType": 5126,
      "count": 6886,
      "max": [
        0.99999934434890747,
        0.99999916553497314,
        0.99999982118606567,
        1
      ],
      "min": [
        -0.99999970197677612,
        -0.99999904632568359,
        -0.99999982118606567,
        1
      ],
      "type": "VEC4"
    },
    {
      "bufferView": 1,
      "byteOffset": 83088,
      "componentType": 5126,
      "count": 6886,
      "max": [
        0.99767857789993286,
        0.98388379812240601
      ],
      "min": [
        0.88201642036437988,
        0.26448351144790649
      ],
      "type": "VEC2"
    },
    {
      "bufferView": 0,
      "byteOffset": 218304,
      "componentType": 5125,
      "count": 33750,
      "max": [
        6885
      ],
      "min": [
        0
      ],
      "type": "SCALAR"
    },
    {
      "bufferView": 2,
      "byteOffset": 414528,
      "componentType": 5126,
      "count": 776,
      "max": [
        85.448699951171875,
        47.512928009033203,
        0.33398151397705078
      ],
      "min": [
        -84.6295166015625,
        -46.120410919189453,
        4.8577785491943359e-06
      ],
      "type": "VEC3"
    },
    {
      "bufferView": 2,
      "byteOffset": 423840,
      "componentType": 5126,
      "count": 776,
      "max": [
        0.99916130304336548,
        0.99916112422943115,
        1
      ],
      "min": [
        -0.99916231632232666,
        -0.99916321039199829,
        -1
      ],
      "type": "VEC3"
    },
    {
      "bufferView": 3,
      "byteOffset": 276352,
      "componentType": 5126,
      "count": 776,
      "max": [
        0.745525062084198,
        0.74558275938034058,
        0.99999582767486572,
        1
      ],
      "min": [
        -0.74557048082351685,
        -0.74558275938034058,
        -0.99999821186065674,
        1
      ],
      "type": "VEC4"
    },
    {
      "bufferView": 1,
      "byteOffset": 138176,
      "componentType": 5126,
      "count": 776,
      "max": [
        0.96278738975524902,
        0.9217028021812439
      ],
      "min": [
        0.92192906141281128,
        0.88213390111923218
      ],
      "type": "VEC2"
    },
    {
      "bufferView": 0,
      "byteOffset": 353304,
      "componentType": 5125,
      "count": 3600,
      "max": [
        775
      ],
      "min": [
        0
      ],
      "type": "SCALAR"
    }
  ],
  "asset": {
    "extras": {
      "author": "MADE.COM (https://sketchfab.com/made-it)",
      "license": "CC-BY-NC-4.0 (http://creativecommons.org/licenses/by-nc/4.0/)",
      "source": "https://sketchfab.com/3d-models/hallie-sofa-bed-aegean-blue-with-copper-legs-8d00d7fefb744c12a10a696790195fd4",
      "title": "Hallie Sofa Bed, Aegean Blue with Copper Legs"
    },
    "generator": "Sketchfab-5.73.0",
    "version": "2.0"
  },
  "bufferViews": [
    {
      "buffer": 0,
      "byteLength": 367704,
      "byteOffset": 0,
      "name": "floatBufferViews",
      "target": 34963
    },
    {
      "buffer": 0,
      "byteLength": 144384,
      "byteOffset": 367704,
      "byteStride": 8,
      "name": "floatBufferViews",
      "target": 34962
    },
    {
      "buffer": 0,
      "byteLength": 433152,
      "byteOffset": 512088,
      "byteStride": 12,
      "name": "floatBufferViews",
      "target": 34962
    },
    {
      "buffer": 0,
      "byteLength": 288768,
      "byteOffset": 945240,
      "byteStride": 16,
      "name": "floatBufferViews",
      "target": 34962
    }
  ],
  "buffers": [
    {
      "byteLength": 1234008,
      "uri": "scene.bin"
    }
  ],
  "images": [
    {
      "uri": "textures/FLOOR_baseColor.png"
    },
    {
      "uri": "textures/baseColor_1.jpeg"
    }
  ],
  "materials": [
    {
      "alphaMode": "BLEND",
      "doubleSided": true,
      "emissiveFactor": [
        0,
        0,
        0
      ],
      "name": "FLOOR",
      "pbrMetallicRoughness": {
        "baseColorFactor": [
          1,
          1,
          1,
          0.68464176830000001
        ],
        "baseColorTexture": {
          "index": 0,
          "texCoord": 0
        },
        "metallicFactor": 0,
        "roughnessFactor": 0.89297135959999996
      }
    },
    {
      "doubleSided": true,
      "emissiveFactor": [
        0,
        0,
        0
      ],
      "name": "FABRIC",
      "pbrMetallicRoughness": {
        "baseColorFactor": [
          1,
          1,
          1,
          1
        ],
        "baseColorTexture": {
          "index": 1,
          "texCoord": 0
        },
        "metallicFactor": 0.17788264440000001,
        "roughnessFactor": 0.72999237799999994
      }
    },
    {
      "doubleSided": true,
      "emissiveFactor": [
        0,
        0,
        0
      ],
      "name": "FABRIC_BLACK",
      "pbrMetallicRoughness": {
        "baseColorFactor": [
          1,
          1,
          1,
          1
        ],
        "baseColorTexture": {
          "index": 1,
          "texCoord": 0
        },
        "metallicFactor": 0,
        "roughnessFactor": 0.70560213410000006
      }
    },
    {
      "doubleSided": true,
      "emissiveFactor": [
        0,
        0,
        0
      ],
      "name": "STEEL",
      "pbrMetallicRoughness": {
        "baseColorFactor": [
          0.4987199531,
          0.21360743879999999,
          0.15164115440000001,
          1
        ],
        "metallicFactor": 0.77536692110000005,
        "roughnessFactor": 0
      }
    },
    {
      "doubleSided": true,
      "emissiveFactor": [
        0,
        0,
        0
      ],
      "name": "PLASTIC",
      "pbrMetallicRoughness": {
        "baseColorFactor": [
          1,
          1,
          1,
          1
        ],
        "baseColorTexture": {
          "index": 1,
          "texCoord": 0
        },
        "metallicFactor": 0,
        "roughnessFactor": 0.89297135959999996
      }
    }
  ],
  "meshes": [
    {
      "name": "Plane001_FLOOR_0",
      "primitives": [
        {
          "attributes": {
            "NORMAL": 1,
            "POSITION": 0,
            "TANGENT": 2,
            "TEXCOORD_0": 3
          },
          "indices": 4,
          "material": 0,
          "mode": 4
        }
      ]
    },
    {
      "name": "FABRIC001_FABRIC_0",
      "primitives": [
        {
          "attributes": {
            "NORMAL": 6,
            "POSITION": 5,
            "TANGENT": 7,
            "TEXCOORD_0": 8
          },
          "indices": 9,
          "material": 1,
          "mode": 4
        }
      ]
    },
    {
      "name": "FABRIC_BLACK001_FABRIC_BLACK_0",
      "primitives": [
        {
          "attributes": {
            "NORMAL": 11,
            "POSITION": 10,
            "TANGENT": 12,
            "TEXCOORD_0": 13
          },
          "indices": 14,
          "material": 2,
          "mode": 4
        }
      ]
    },
    {
      "name": "STEEL001_STEEL_0",
      "primitives": [
        {
          "attributes": {
            "NORMAL": 16,
            "POSITION": 15,
            "TANGENT": 17,
            "TEXCOORD_0": 18
          },
          "indices": 19,
          "material": 3,
          "mode": 4
        }
      ]
    },
    {
      "name": "PLASTIC001_PLASTIC_0",
      "primitives": [
        {
          "attributes": {
            "NORMAL": 21,
            "POSITION": 20,
            "TANGENT": 22,
            "TEXCOORD_0": 23
          },
          "indices": 24,
          "material": 4,
          "mode": 4
        }
      ]
    }
  ],
  "nodes": [
    {
      "children": [
        1
      ],
      "name": "RootNode (gltf orientation matrix)",
      "rotation": [
        -0.70710678118654746,
        -0,
        -0,
        0.70710678118654757
      ]
    },
    {
      "children": [
        2
      ],
      "name": "RootNode (model correction matrix)"
    },
    {
      "children": [
        3
      ],
      "matrix": [
        1,
        0,
        0,
        0,
        0,
        0,
        1,
        0,
        0,
        -1,
        0,
        0,
        0,
        0,
        0,
        1
      ],
      "name": "1166b0a90dea4e86831eee59013f9fda.fbx"
    },
    {
      "children": [
        4,
        6,
        8,
        10,
        12
      ],
      "name": "RootNode"
    },
    {
      "children": [
        5
      ],
      "matrix": [
        1,
        0,
        0,
        0,
        0,
        2.2204460492503131e-16,
        -1,
        0,
        0,
        1,
        2.2204460492503131e-16,
        0,
        0,
        0,
        0,
        1
      ],
      "name": "Plane001"
    },
    {
      "mesh": 0,
      "name": "Plane001_FLOOR_0"
    },
    {
      "children": [
        7
      ],
      "matrix": [
        1,
        0,
        0,
        0,
        0,
        2.2204460492503131e-16,
        -1,
        0,
        0,
        1,
        2.2204460492503131e-16,
        0,
        0,
        3.814697265625e-06,
        0,
        1
      ],
      "name": "FABRIC001"
    },
    {
      "mesh": 1,
      "name": "FABRIC001_FABRIC_0"
    },
    {
      "children": [
        9
      ],
      "matrix": [
        1,
        0,
        0,
        0,
        0,
        2.2204460492503131e-16,
        -1,
        0,
        0,
        1,
        2.2204460492503131e-16,
        0,
        0,
        3.814697265625e-06,
        0,
        1
      ],
      "name": "FABRIC_BLACK001"
    },
    {
      "mesh": 2,
      "name": "FABRIC_BLACK001_FABRIC_BLACK_0"
    },
    {
      "children": [
        11
      ],
      "matrix": [
        1,
        0,
        0,
        0,
        0,
        2.2204460492503131e-16,
        -1,
        0,
        0,
        1,
        2.2204460492503131e-16,
        0,
        0,
        3.814697265625e-06,
        0,
        1
      ],
      "name": "STEEL001"
    },
    {
      "mesh": 3,
      "name": "STEEL001_STEEL_0"
    },
    {
      "children": [
        13
      ],
      "matrix": [
        1,
        0,
        0,
        0,
        0,
        2.2204460492503131e-16,
        -1,
        0,
        0,
        1,
        2.2204460492503131e-16,
        0,
        0,
        3.814697265625e-06,
        0,
        1
      ],
      "name": "PLASTIC001"
    },
    {
      "mesh": 4,
      "name": "PLASTIC001_PLASTIC_0"
    }
  ],
  "samplers": [
    {
      "magFilter": 9729,
      "minFilter": 9987,
      "wrapS": 10497,
      "wrapT": 10497
    }
  ],
  "scene": 0,
  "scenes": [
    {
      "name": "OSG_Scene",
      "nodes": [
        0
      ]
    }
  ],
  "textures": [
    {
      "sampler": 0,
      "source": 0
    },
    {
      "sampler": 0,
      "source": 1
    }
  ]
}

