{
  "accessors": [
    {
      "bufferView": 2,
      "componentType": 5126,
      "count": 4,
      "max": [
        167.02890014648438,
        167.02890014648438,
        0
      ],
      "min": [
        -167.02890014648438,
        -167.02890014648438,
        0
      ],
      "type": "VEC3"
    },
    {
      "bufferView": 2,
      "byteOffset": 48,
      "componentType": 5126,
      "count": 4,
      "max": [
        0,
        0,
        1
      ],
      "min": [
        0,
        0,
        1
      ],
      "type": "VEC3"
    },
    {
      "bufferView": 3,
      "componentType": 5126,
      "count": 4,
      "max": [
        1,
        2.3841863594498136e-07,
        0,
        1
      ],
      "min": [
        1,
        1.8270841906087298e-07,
        0,
        1
      ],
      "type": "VEC4"
    },
    {
      "bufferView": 1,
      "componentType": 5126,
      "count": 4,
      "max": [
        1,
        1
      ],
      "min": [
        2.9802322387695312e-08,
        2.9802322387695312e-08
      ],
      "type": "VEC2"
    },
    {
      "bufferView": 0,
      "componentType": 5125,
      "count": 6,
      "max": [
        3
      ],
      "min": [
        0
      ],
      "type": "SCALAR"
    },
    {
      "bufferView": 2,
      "byteOffset": 96,
      "componentType": 5126,
      "count": 32205,
      "max": [
        108.65823364257812,
        45.914142608642578,
        49.825229644775391
      ],
      "min": [
        -80.83148193359375,
        -50.095829010009766,
        -23.398569107055664
      ],
      "type": "VEC3"
    },
    {
      "bufferView": 2,
      "byteOffset": 386556,
      "componentType": 5126,
      "count": 32205,
      "max": [
        1,
        0.99999994039535522,
        1
      ],
      "min": [
        -1,
        -0.99999827146530151,
        -1
      ],
      "type": "VEC3"
    },
    {
      "bufferView": 3,
      "byteOffset": 64,
      "componentType": 5126,
      "count": 32205,
      "max": [
        1,
        1,
        1,
        1
      ],
      "min": [
        -1,
        -1,
        -1,
        -1
      ],
      "type": "VEC4"
    },
    {
      "bufferView": 1,
      "byteOffset": 32,
      "componentType": 5126,
      "count": 32205,
      "max": [
        0.99849563837051392,
        0.99949997663497925
      ],
      "min": [
        0.00050000002374872565,
        0.00050000002374872565
      ],
      "type": "VEC2"
    },
    {
      "bufferView": 1,
      "byteOffset": 257672,
      "componentType": 5126,
      "count": 32205,
      "max": [
        4.2279243469238281,
        4.2321782112121582
      ],
      "min": [
        -3.2289276123046875,
        -3.2321786880493164
      ],
      "type": "VEC2"
    },
    {
      "bufferView": 1,
      "byteOffset": 515312,
      "componentType": 5126,
      "count": 32205,
      "max": [
        0.99849563837051392,
        0.99949997663497925
      ],
      "min": [
        0.00050000002374872565,
        0.00050000002374872565
      ],
      "type": "VEC2"
    },
    {
      "bufferView": 0,
      "byteOffset": 24,
      "componentType": 5125,
      "count": 178038,
      "max": [
        32204
      ],
      "min": [
        0
      ],
      "type": "SCALAR"
    },
    {
      "bufferView": 2,
      "byteOffset": 773016,
      "componentType": 5126,
      "count": 2007,
      "max": [
        105.91764068603516,
        30.764226913452148,
        -22.352817535400391
      ],
      "min": [
        -76.931846618652344,
        -43.129989624023438,
        -29.593528747558594
      ],
      "type": "VEC3"
    },
    {
      "bufferView": 2,
      "byteOffset": 797100,
      "componentType": 5126,
      "count": 2007,
      "max": [
        1,
        0.99196493625640869,
        0.72711461782455444
      ],
      "min": [
        -1,
        -0.99196493625640869,
        -1
      ],
      "type": "VEC3"
    },
    {
      "bufferView": 3,
      "byteOffset": 515344,
      "componentType": 5126,
      "count": 2007,
      "max": [
        0.99686378240585327,
        0.99312961101531982,
        0.99057590961456299,
        1
      ],
      "min": [
        -0.99553555250167847,
        -0.98834258317947388,
        -0.99054849147796631,
        1
      ],
      "type": "VEC4"
    },
    {
      "bufferView": 1,
      "byteOffset": 772952,
      "componentType": 5126,
      "count": 2007,
      "max": [
        0.46070310473442078,
        0.99125778675079346
      ],
      "min": [
        0.00050000002374872565,
        0.2492368221282959
      ],
      "type": "VEC2"
    },
    {
      "bufferView": 1,
      "byteOffset": 789008,
      "componentType": 5126,
      "count": 2007,
      "max": [
        0.20963045954704285,
        4.1705937385559082
      ],
      "min": [
        -3.2289276123046875,
        -1.3736593723297119
      ],
      "type": "VEC2"
    },
    {
      "bufferView": 0,
      "byteOffset": 712176,
      "componentType": 5125,
      "count": 10824,
      "max": [
        2006
      ],
      "min": [
        0
      ],
      "type": "SCALAR"
    },
    {
      "bufferView": 2,
      "byteOffset": 821184,
      "componentType": 5126,
      "count": 184,
      "max": [
        102.6097412109375,
        27.863391876220703,
        -29.487855911254883
      ],
      "min": [
        -73.627349853515625,
        -40.229152679443359,
        -29.869758605957031
      ],
      "type": "VEC3"
    },
    {
      "bufferView": 2,
      "byteOffset": 823392,
      "componentType": 5126,
      "count": 184,
      "max": [
        1,
        0.97985202074050903,
        0
      ],
      "min": [
        -1,
        -0.97985202074050903,
        -1
      ],
      "type": "VEC3"
    },
    {
      "bufferView": 3,
      "byteOffset": 547456,
      "componentType": 5126,
      "count": 184,
      "max": [
        0.989238440990448,
        1,
        0.078814379870891571,
        1
      ],
      "min": [
        -0.9961211085319519,
        -1,
        -0.082809805870056152,
        1
      ],
      "type": "VEC4"
    },
    {
      "bufferView": 1,
      "byteOffset": 805064,
      "componentType": 5126,
      "count": 184,
      "max": [
        0.25940379500389099,
        0.29526647925376892
      ],
      "min": [
        0.21912400424480438,
        0.29100197553634644
      ],
      "type": "VEC2"
    },
    {
      "bufferView": 1,
      "byteOffset": 806536,
      "componentType": 5126,
      "count": 184,
      "max": [
        -1.2944431304931641,
        -1.0297336578369141
      ],
      "min": [
        -1.595407247543335,
        -1.0615973472595215
      ],
      "type": "VEC2"
    },
    {
      "bufferView": 0,
      "byteOffset": 755472,
      "componentType": 5125,
      "count": 840,
      "max": [
        183
      ],
      "min": [
        0
      ],
      "type": "SCALAR"
    }
  ],
  "asset": {
    "extras": {
      "author": "MADE.COM (https://sketchfab.com/made-it)",
      "license": "CC-BY-NC-4.0 (http://creativecommons.org/licenses/by-nc/4.0/)",
      "source": "https://sketchfab.com/3d-models/orson-3-seater-sofa-bed-graphite-grey-cbaecc8d977a43e6bd0e098877ef5539",
      "title": "Orson 3 Seater Sofa Bed, Graphite Grey"
    },
    "generator": "Sketchfab-5.57.2",
    "version": "2.0"
  },
  "bufferViews": [
    {
      "buffer": 0,
      "byteLength": 758832,
      "byteOffset": 0,
      "name": "floatBufferViews",
      "target": 34963
    },
    {
      "buffer": 0,
      "byteLength": 808008,
      "byteOffset": 758832,
      "byteStride": 8,
      "name": "floatBufferViews",
      "target": 34962
    },
    {
      "buffer": 0,
      "byteLength": 825600,
      "byteOffset": 1566840,
      "byteStride": 12,
      "name": "floatBufferViews",
      "target": 34962
    },
    {
      "buffer": 0,
      "byteLength": 550400,
      "byteOffset": 2392440,
      "byteStride": 16,
      "name": "floatBufferViews",
      "target": 34962
    }
  ],
  "buffers": [
    {
      "byteLength": 2942840,
      "uri": "scene.bin"
    }
  ],
  "images": [
    {
      "uri": "textures/FLOOR_baseColor.png"
    },
    {
      "uri": "textures/baseColor_1.jpeg"
    },
    {
      "uri": "textures/FABRIC_metallicRoughness.jpeg"
    }
  ],
  "materials": [
    {
      "alphaMode": "BLEND",
      "doubleSided": true,
      "emissiveFactor": [
        0,
        0,
        0
      ],
      "name": "FLOOR",
      "pbrMetallicRoughness": {
        "baseColorFactor": [
          0,
          0,
          0,
          1
        ],
        "baseColorTexture": {
          "index": 0,
          "texCoord": 0
        },
        "metallicFactor": 0,
        "roughnessFactor": 1
      }
    },
    {
      "doubleSided": true,
      "emissiveFactor": [
        0,
        0,
        0
      ],
      "name": "FABRIC",
      "occlusionTexture": {
        "index": 2,
        "strength": 0.63586128050000001,
        "texCoord": 0
      },
      "pbrMetallicRoughness": {
        "baseColorFactor": [
          1,
          1,
          1,
          1
        ],
        "baseColorTexture": {
          "index": 1,
          "texCoord": 0
        },
        "metallicFactor": 0,
        "metallicRoughnessTexture": {
          "index": 2,
          "texCoord": 0
        },
        "roughnessFactor": 1
      }
    },
    {
      "doubleSided": true,
      "emissiveFactor": [
        0.035036801505228053,
        0.0071968776709118712,
        0
      ],
      "name": "LEGS",
      "occlusionTexture": {
        "index": 2,
        "strength": 0.70903201220000001,
        "texCoord": 0
      },
      "pbrMetallicRoughness": {
        "baseColorFactor": [
          0.039215699999999999,
          0.011764699999999999,
          0.0078431400000000002,
          1
        ],
        "metallicFactor": 0.39800843050000001,
        "metallicRoughnessTexture": {
          "index": 2,
          "texCoord": 0
        },
        "roughnessFactor": 0.1302934563
      }
    },
    {
      "doubleSided": true,
      "emissiveFactor": [
        0,
        0,
        0
      ],
      "name": "PLASTIC",
      "pbrMetallicRoughness": {
        "baseColorFactor": [
          0.011764699999999999,
          0.011764699999999999,
          0.011764699999999999,
          1
        ],
        "metallicFactor": 0,
        "roughnessFactor": 0.89297135959999996
      }
    }
  ],
  "meshes": [
    {
      "name": "Plane001_FLOOR_0",
      "primitives": [
        {
          "attributes": {
            "NORMAL": 1,
            "POSITION": 0,
            "TANGENT": 2,
            "TEXCOORD_0": 3
          },
          "indices": 4,
          "material": 0,
          "mode": 4
        }
      ]
    },
    {
      "name": "Orson_3_Seater_Sofa_Bed_FABRIC_0",
      "primitives": [
        {
          "attributes": {
            "NORMAL": 6,
            "POSITION": 5,
            "TANGENT": 7,
            "TEXCOORD_0": 8,
            "TEXCOORD_1": 9,
            "TEXCOORD_2": 10
          },
          "indices": 11,
          "material": 1,
          "mode": 4
        }
      ]
    },
    {
      "name": "Orson_3_Seater_Sofa_Bed_LEGS_0",
      "primitives": [
        {
          "attributes": {
            "NORMAL": 13,
            "POSITION": 12,
            "TANGENT": 14,
            "TEXCOORD_0": 15,
            "TEXCOORD_1": 16
          },
          "indices": 17,
          "material": 2,
          "mode": 4
        }
      ]
    },
    {
      "name": "Orson_3_Seater_Sofa_Bed_PLASTIC_0",
      "primitives": [
        {
          "attributes": {
            "NORMAL": 19,
            "POSITION": 18,
            "TANGENT": 20,
            "TEXCOORD_0": 21,
            "TEXCOORD_1": 22
          },
          "indices": 23,
          "material": 3,
          "mode": 4
        }
      ]
    }
  ],
  "nodes": [
    {
      "children": [
        1
      ],
      "name": "RootNode (gltf orientation matrix)",
      "rotation": [
        -0.70710678118654746,
        -0,
        -0,
        0.70710678118654757
      ]
    },
    {
      "children": [
        2
      ],
      "name": "RootNode (model correction matrix)"
    },
    {
      "children": [
        3
      ],
      "matrix": [
        1,
        0,
        0,
        0,
        0,
        0,
        1,
        0,
        0,
        -1,
        0,
        0,
        0,
        0,
        0,
        1
      ],
      "name": "848baaa597d44953a7e63cb2ce72bfea.fbx"
    },
    {
      "children": [
        4,
        6
      ],
      "name": "RootNode"
    },
    {
      "children": [
        5
      ],
      "matrix": [
        1,
        0,
        0,
        0,
        0,
        2.2204460492503131e-16,
        -1,
        0,
        0,
        1,
        2.2204460492503131e-16,
        0,
        0,
        0,
        0,
        1
      ],
      "name": "Plane001"
    },
    {
      "mesh": 0,
      "name": "Plane001_FLOOR_0"
    },
    {
      "children": [
        7
      ],
      "matrix": [
        1,
        0,
        0,
        0,
        0,
        2.2204460492503131e-16,
        -1,
        0,
        0,
        1,
        2.2204460492503131e-16,
        0,
        0,
        0.054330825805664062,
        0,
        1
      ],
      "name": "Orson_3_Seater_Sofa_Bed"
    },
    {
      "children": [
        8,
        9,
        10
      ],
      "matrix": [
        1,
        0,
        -0,
        0,
        0,
        1,
        0,
        0,
        0,
        0,
        1,
        0,
        -13.913375854492188,
        2.09084153175354,
        29.869756698608398,
        1
      ],
      "name": ""
    },
    {
      "mesh": 1,
      "name": "Orson_3_Seater_Sofa_Bed_FABRIC_0"
    },
    {
      "mesh": 2,
      "name": "Orson_3_Seater_Sofa_Bed_LEGS_0"
    },
    {
      "mesh": 3,
      "name": "Orson_3_Seater_Sofa_Bed_PLASTIC_0"
    }
  ],
  "samplers": [
    {
      "magFilter": 9729,
      "minFilter": 9987,
      "wrapS": 10497,
      "wrapT": 10497
    }
  ],
  "scene": 0,
  "scenes": [
    {
      "name": "OSG_Scene",
      "nodes": [
        0
      ]
    }
  ],
  "textures": [
    {
      "sampler": 0,
      "source": 0
    },
    {
      "sampler": 0,
      "source": 1
    },
    {
      "sampler": 0,
      "source": 2
    }
  ]
}

