<svg xmlns="http://www.w3.org/2000/svg" viewBox="0 0 771 771" width="771" height="771" preserveAspectRatio="xMidYMid meet" style="width: 100%; height: 100%; transform: translate3d(0px, 0px, 0px);"><defs><clipPath id="__lottie_element_225"><rect width="771" height="771" x="0" y="0"></rect></clipPath><mask id="__lottie_element_227"><rect fill="#ffffff" width="771" height="771" transform="matrix(0.15337423980236053,0,0,0.15337423980236053,-9.12576675415039,-9.12576675415039)"></rect><path fill="#000000" clip-rule="nonzero" d=" M30.597999572753906,34.27899932861328 C30.597999572753906,34.27899932861328 9.02299976348877,70.11000061035156 9.02299976348877,70.11000061035156 C9.02299976348877,70.11000061035156 14.916000366210938,73.73500061035156 14.916000366210938,73.73500061035156 C14.916000366210938,73.73500061035156 49.310001373291016,93.63500213623047 49.310001373291016,93.63500213623047 C49.310001373291016,93.63500213623047 100.2300033569336,66.64099884033203 100.2300033569336,66.64099884033203 C100.2300033569336,66.64099884033203 30.597999572753906,34.27899932861328 30.597999572753906,34.27899932861328" fill-opacity="1"></path></mask><filter id="__lottie_element_228" filterUnits="objectBoundingBox" x="0%" y="0%" width="100%" height="100%"><feColorMatrix type="matrix" color-interpolation-filters="sRGB" values="0 0 0 0 1 0 0 0 0 1 0 0 0 0 1 0 0 0 1 0"></feColorMatrix></filter><mask id="__lottie_element_230"><rect fill="#ffffff" width="771" height="771" transform="matrix(0.15337423980236053,0,0,0.15337423980236053,-9.12576675415039,-9.12576675415039)"></rect><path fill="#000000" clip-rule="nonzero" d=" M30.597999572753906,34.27899932861328 C30.597999572753906,34.27899932861328 9.02299976348877,70.11000061035156 9.02299976348877,70.11000061035156 C9.02299976348877,70.11000061035156 14.916000366210938,73.73500061035156 14.916000366210938,73.73500061035156 C14.916000366210938,73.73500061035156 49.310001373291016,93.63500213623047 49.310001373291016,93.63500213623047 C49.310001373291016,93.63500213623047 100.2300033569336,66.64099884033203 100.2300033569336,66.64099884033203 C100.2300033569336,66.64099884033203 30.597999572753906,34.27899932861328 30.597999572753906,34.27899932861328" fill-opacity="1"></path></mask><filter id="__lottie_element_231" filterUnits="objectBoundingBox" x="0%" y="0%" width="100%" height="100%"><feColorMatrix type="matrix" color-interpolation-filters="sRGB" values="0 0 0 0 1 0 0 0 0 1 0 0 0 0 1 0 0 0 1 0"></feColorMatrix></filter><clipPath id="__lottie_element_233"><path fill="#ffffff" clip-rule="nonzero" d=" M43.404998779296875,49.617000579833984 C43.404998779296875,49.617000579833984 42.94499969482422,49.08000183105469 42.94499969482422,49.08000183105469 C42.94499969482422,49.08000183105469 47.08599853515625,56.1349983215332 47.08599853515625,56.1349983215332 C47.08599853515625,56.1349983215332 47.08599853515625,55.904998779296875 47.08599853515625,55.904998779296875 C47.08599853515625,55.904998779296875 43.404998779296875,49.617000579833984 43.404998779296875,49.617000579833984" fill-opacity="1"></path><path fill="#ffffff" clip-rule="nonzero" d=" M57.66899871826172,48.92599868774414 C57.66899871826172,48.92599868774414 52.606998443603516,55.520999908447266 52.606998443603516,55.520999908447266 C52.606998443603516,55.520999908447266 53.06700134277344,56.44200134277344 53.06700134277344,56.44200134277344 C53.06700134277344,56.44200134277344 57.36199951171875,48.619998931884766 57.36199951171875,48.619998931884766 C57.36199951171875,48.619998931884766 57.66899871826172,48.92599868774414 57.66899871826172,48.92599868774414" fill-opacity="1"></path></clipPath><filter id="__lottie_element_234" filterUnits="objectBoundingBox" x="0%" y="0%" width="100%" height="100%"><feColorMatrix type="matrix" color-interpolation-filters="sRGB" values="0 0 0 0 1 0 0 0 0 1 0 0 0 0 1 0 0 0 1 0"></feColorMatrix></filter><clipPath id="__lottie_element_236"><path fill="#ffffff" clip-rule="nonzero" d=" M43.404998779296875,49.617000579833984 C43.404998779296875,49.617000579833984 12.116999626159668,66.64099884033203 12.116999626159668,66.64099884033203 C12.116999626159668,66.64099884033203 16.257999420166016,73.69599914550781 16.257999420166016,73.69599914550781 C16.257999420166016,73.69599914550781 47.08599853515625,55.904998779296875 47.08599853515625,55.904998779296875 C47.08599853515625,55.904998779296875 43.404998779296875,49.617000579833984 43.404998779296875,49.617000579833984" fill-opacity="1"></path><path fill="#ffffff" clip-rule="nonzero" d=" M57.66899871826172,48.92599868774414 C57.66899871826172,48.92599868774414 52.606998443603516,55.520999908447266 52.606998443603516,55.520999908447266 C52.606998443603516,55.520999908447266 83.28199768066406,75.15299987792969 83.28199768066406,75.15299987792969 C83.28199768066406,75.15299987792969 87.5770034790039,67.33100128173828 87.5770034790039,67.33100128173828 C87.5770034790039,67.33100128173828 57.66899871826172,48.92599868774414 57.66899871826172,48.92599868774414" fill-opacity="1"></path></clipPath><filter id="__lottie_element_237" filterUnits="objectBoundingBox" x="0%" y="0%" width="100%" height="100%"><feColorMatrix type="matrix" color-interpolation-filters="sRGB" values="0 0 0 0 1 0 0 0 0 1 0 0 0 0 1 0 0 0 1 0"></feColorMatrix></filter><clipPath id="__lottie_element_239"><path fill="#ffffff" clip-rule="nonzero" d=" M53.9109992980957,45.01499938964844 C53.9109992980957,45.01499938964844 45.93600082397461,45.01499938964844 45.93600082397461,45.01499938964844 C45.93600082397461,45.01499938964844 45.321998596191406,45.321998596191406 45.321998596191406,45.321998596191406 C45.321998596191406,45.321998596191406 54.21799850463867,45.01499938964844 54.21799850463867,45.01499938964844 C54.21799850463867,45.01499938964844 53.9109992980957,45.01499938964844 53.9109992980957,45.01499938964844" fill-opacity="1"></path></clipPath><filter id="__lottie_element_240" filterUnits="objectBoundingBox" x="0%" y="0%" width="100%" height="100%"><feColorMatrix type="matrix" color-interpolation-filters="sRGB" values="0 0 0 0 1 0 0 0 0 1 0 0 0 0 1 0 0 0 1 0"></feColorMatrix></filter><clipPath id="__lottie_element_242"><path fill="#ffffff" clip-rule="nonzero" d=" M53.9109992980957,6.979000091552734 C53.9109992980957,6.979000091552734 45.93600082397461,6.979000091552734 45.93600082397461,6.979000091552734 C45.93600082397461,6.979000091552734 45.321998596191406,45.321998596191406 45.321998596191406,45.321998596191406 C45.321998596191406,45.321998596191406 54.21799850463867,45.01499938964844 54.21799850463867,45.01499938964844 C54.21799850463867,45.01499938964844 53.9109992980957,6.979000091552734 53.9109992980957,6.979000091552734" fill-opacity="1"></path></clipPath><filter id="__lottie_element_243" filterUnits="objectBoundingBox" x="0%" y="0%" width="100%" height="100%"><feColorMatrix type="matrix" color-interpolation-filters="sRGB" values="0 0 0 0 1 0 0 0 0 1 0 0 0 0 1 0 0 0 1 0"></feColorMatrix></filter><mask id="__lottie_element_245"><rect fill="#ffffff" width="771" height="771" transform="matrix(0.15337423980236053,0,0,0.15337423980236053,-8.819018363952637,-56.05828094482422)"></rect><path fill="#000000" clip-rule="nonzero" d=" M8.819000244140625,-22.163000106811523 C8.819000244140625,-22.163000106811523 6.058000087738037,27.5310001373291 6.058000087738037,27.5310001373291 C6.058000087738037,27.5310001373291 50.5369987487793,56.05799865722656 50.5369987487793,56.05799865722656 C50.5369987487793,56.05799865722656 96.54900360107422,27.224000930786133 96.54900360107422,27.224000930786133 C96.54900360107422,27.224000930786133 88.11299896240234,-19.55500030517578 88.11299896240234,-19.55500030517578 C88.11299896240234,-19.55500030517578 50.689998626708984,1.4570000171661377 50.689998626708984,1.4570000171661377 C50.689998626708984,1.4570000171661377 8.819000244140625,-22.163000106811523 8.819000244140625,-22.163000106811523" fill-opacity="1"></path></mask><filter id="__lottie_element_246" filterUnits="objectBoundingBox" x="0%" y="0%" width="100%" height="100%"><feColorMatrix type="matrix" color-interpolation-filters="sRGB" values="0 0 0 0 1 0 0 0 0 1 0 0 0 0 1 0 0 0 1 0"></feColorMatrix></filter><mask id="__lottie_element_248"><rect fill="#ffffff" width="771" height="771" transform="matrix(0.15337423980236053,0,0,0.15337423980236053,-8.819018363952637,-56.05828094482422)"></rect><path fill="#000000" clip-rule="nonzero" d=" M6.51800012588501,38.57400131225586 C6.51800012588501,38.57400131225586 4.985000133514404,28.29800033569336 4.985000133514404,28.29800033569336 C4.985000133514404,28.29800033569336 50.99700164794922,54.98500061035156 50.99700164794922,54.98500061035156 C50.99700164794922,54.98500061035156 93.94200134277344,33.35900115966797 93.94200134277344,33.35900115966797 C93.94200134277344,33.35900115966797 93.94200134277344,40.106998443603516 93.94200134277344,40.106998443603516 C93.94200134277344,40.106998443603516 50.382999420166016,61.887001037597656 50.382999420166016,61.887001037597656 C50.382999420166016,61.887001037597656 6.51800012588501,38.57400131225586 6.51800012588501,38.57400131225586" fill-opacity="1"></path></mask><filter id="__lottie_element_249" filterUnits="objectBoundingBox" x="0%" y="0%" width="100%" height="100%"><feColorMatrix type="matrix" color-interpolation-filters="sRGB" values="0 0 0 0 1 0 0 0 0 1 0 0 0 0 1 0 0 0 1 0"></feColorMatrix></filter><mask id="__lottie_element_251"><rect fill="#ffffff" width="771" height="771" transform="matrix(0.15337423980236053,0,0,0.15337423980236053,-9.12576675415039,-9.12576675415039)"></rect><path fill="#000000" clip-rule="nonzero" d=" M6.51800012588501,25.996999740600586 C6.51800012588501,25.996999740600586 4.985000133514404,74.9229965209961 4.985000133514404,74.9229965209961 C4.985000133514404,74.9229965209961 50.99700164794922,101.61000061035156 50.99700164794922,101.61000061035156 C50.99700164794922,101.61000061035156 93.94200134277344,79.98500061035156 93.94200134277344,79.98500061035156 C93.94200134277344,79.98500061035156 93.94200134277344,27.5310001373291 93.94200134277344,27.5310001373291 C93.94200134277344,27.5310001373291 50.382999420166016,49.310001373291016 50.382999420166016,49.310001373291016 C50.382999420166016,49.310001373291016 6.51800012588501,25.996999740600586 6.51800012588501,25.996999740600586" fill-opacity="1"></path></mask><filter id="__lottie_element_252" filterUnits="objectBoundingBox" x="0%" y="0%" width="100%" height="100%"><feColorMatrix type="matrix" color-interpolation-filters="sRGB" values="0 0 0 0 1 0 0 0 0 1 0 0 0 0 1 0 0 0 1 0"></feColorMatrix></filter><mask id="__lottie_element_254"><rect fill="#ffffff" width="771" height="771" transform="matrix(0.15337423980236053,0,0,0.15337423980236053,-8.742331504821777,-56.36503219604492)"></rect><path fill="#000000" clip-rule="nonzero" d=" M94.70899963378906,26.149999618530273 C94.70899963378906,26.149999618530273 46.242000579833984,52.53099822998047 46.242000579833984,52.53099822998047 C46.242000579833984,52.53099822998047 44.93899917602539,69.09500122070312 44.93899917602539,69.09500122070312 C44.93899917602539,69.09500122070312 96.47200012207031,68.48200225830078 96.47200012207031,68.48200225830078 C96.47200012207031,68.48200225830078 94.70899963378906,26.149999618530273 94.70899963378906,26.149999618530273" fill-opacity="1"></path><path fill="#000000" clip-rule="nonzero" d=" M39.80099868774414,37.65299987792969 C39.80099868774414,37.65299987792969 40.72100067138672,103.91100311279297 40.72100067138672,103.91100311279297 C40.72100067138672,103.91100311279297 51.150001525878906,102.99099731445312 51.150001525878906,102.99099731445312 C51.150001525878906,102.99099731445312 49.00299835205078,40.72100067138672 49.00299835205078,40.72100067138672 C49.00299835205078,40.72100067138672 39.80099868774414,37.65299987792969 39.80099868774414,37.65299987792969" fill-opacity="1"></path></mask><filter id="__lottie_element_255" filterUnits="objectBoundingBox" x="0%" y="0%" width="100%" height="100%"><feColorMatrix type="matrix" color-interpolation-filters="sRGB" values="0 0 0 0 1 0 0 0 0 1 0 0 0 0 1 0 0 0 1 0"></feColorMatrix></filter><mask id="__lottie_element_257"><rect fill="#ffffff" width="771" height="771" transform="matrix(0.15337423980236053,0,0,0.15337423980236053,-9.12576675415039,-9.12576675415039)"></rect><path fill="#000000" clip-rule="nonzero" d=" M94.70899963378906,73.08300018310547 C94.70899963378906,73.08300018310547 46.242000579833984,99.46299743652344 46.242000579833984,99.46299743652344 C46.242000579833984,99.46299743652344 44.93899917602539,116.02799987792969 44.93899917602539,116.02799987792969 C44.93899917602539,116.02799987792969 96.47200012207031,115.41400146484375 96.47200012207031,115.41400146484375 C96.47200012207031,115.41400146484375 94.70899963378906,73.08300018310547 94.70899963378906,73.08300018310547" fill-opacity="1"></path><path fill="#000000" clip-rule="nonzero" d=" M39.80099868774414,37.65299987792969 C39.80099868774414,37.65299987792969 40.72100067138672,103.91100311279297 40.72100067138672,103.91100311279297 C40.72100067138672,103.91100311279297 51.150001525878906,102.99099731445312 51.150001525878906,102.99099731445312 C51.150001525878906,102.99099731445312 49.00299835205078,40.72100067138672 49.00299835205078,40.72100067138672 C49.00299835205078,40.72100067138672 39.80099868774414,37.65299987792969 39.80099868774414,37.65299987792969" fill-opacity="1"></path></mask><filter id="__lottie_element_258" filterUnits="objectBoundingBox" x="0%" y="0%" width="100%" height="100%"><feColorMatrix type="matrix" color-interpolation-filters="sRGB" values="0 0 0 0 1 0 0 0 0 1 0 0 0 0 1 0 0 0 1 0"></feColorMatrix></filter><mask id="__lottie_element_260"><rect fill="#ffffff" width="771" height="771" transform="matrix(0.15337423980236053,0,0,0.15337423980236053,-8.550613403320312,-56.5950927734375)"></rect><path fill="#000000" clip-rule="nonzero" d=" M5.942999839782715,25.459999084472656 C5.942999839782715,25.459999084472656 2.6459999084472656,65.33699798583984 2.6459999084472656,65.33699798583984 C2.6459999084472656,65.33699798583984 55.40599822998047,69.78500366210938 55.40599822998047,69.78500366210938 C55.40599822998047,69.78500366210938 54.17900085449219,51.22700119018555 54.17900085449219,51.22700119018555 C54.17900085449219,51.22700119018555 5.942999839782715,25.459999084472656 5.942999839782715,25.459999084472656" fill-opacity="1"></path></mask><filter id="__lottie_element_261" filterUnits="objectBoundingBox" x="0%" y="0%" width="100%" height="100%"><feColorMatrix type="matrix" color-interpolation-filters="sRGB" values="0 0 0 0 1 0 0 0 0 1 0 0 0 0 1 0 0 0 1 0"></feColorMatrix></filter><mask id="__lottie_element_263"><rect fill="#ffffff" width="771" height="771" transform="matrix(0.15337423980236053,0,0,0.15337423980236053,-9.12576675415039,-9.049079895019531)"></rect><path fill="#000000" clip-rule="nonzero" d=" M4.677999973297119,72.1240005493164 C4.677999973297119,72.1240005493164 2.377000093460083,110.16100311279297 2.377000093460083,110.16100311279297 C2.377000093460083,110.16100311279297 53.9109992980957,118.75 53.9109992980957,118.75 C53.9109992980957,118.75 52.683998107910156,100.19200134277344 52.683998107910156,100.19200134277344 C52.683998107910156,100.19200134277344 4.677999973297119,72.1240005493164 4.677999973297119,72.1240005493164" fill-opacity="1"></path></mask><filter id="__lottie_element_264" filterUnits="objectBoundingBox" x="0%" y="0%" width="100%" height="100%"><feColorMatrix type="matrix" color-interpolation-filters="sRGB" values="0 0 0 0 1 0 0 0 0 1 0 0 0 0 1 0 0 0 1 0"></feColorMatrix></filter></defs><g clip-path="url(#__lottie_element_225)"><g mask="url(#__lottie_element_263)" filter="url(#__lottie_element_264)" transform="matrix(6.519999980926514,0,0,6.519999980926514,59.5,59)" opacity="1" style="display: block;"><g opacity="1" transform="matrix(1,0,0,1,29.34000015258789,61.5)"><path fill="rgb(0,0,0)" fill-opacity="1" d=" M-21.266000747680664,-38.007999420166016 C-22.027999877929688,-37.57600021362305 -22.523000717163086,-36.77299880981445 -22.523000717163086,-35.888999938964844 C-22.523000717163086,-35.888999938964844 -23.097999572753906,11.461000442504883 -23.097999572753906,11.461000442504883 C-23.118000030517578,12.345999717712402 -22.645000457763672,13.14900016784668 -21.90399932861328,13.60200023651123 C-21.90399932861328,13.60200023651123 19.024999618530273,38.150001525878906 19.024999618530273,38.150001525878906 C19.416000366210938,38.375999450683594 19.847000122070312,38.499000549316406 20.298999786376953,38.499000549316406 C20.711000442504883,38.499000549316406 21.12299919128418,38.39699935913086 21.513999938964844,38.191001892089844 C22.5049991607666,37.6349983215332 23.118000030517578,36.58700180053711 23.118000030517578,35.45100021362305 C23.118000030517578,35.45100021362305 23.118000030517578,31.60700035095215 23.118000030517578,31.60700035095215 C23.118000030517578,31.60700035095215 23.118000030517578,-10.12600040435791 23.118000030517578,-10.12600040435791 C23.118000030517578,-11.913999557495117 22.20199966430664,-13.576000213623047 20.69099998474121,-14.529000282287598 C20.69099998474121,-14.529000282287598 -15.23799991607666,-35.722999572753906 -15.23799991607666,-35.722999572753906 C-15.23799991607666,-35.722999572753906 -18.48200035095215,-37.89799880981445 -18.48200035095215,-37.89799880981445 C-19.315000534057617,-38.457000732421875 -20.391000747680664,-38.5 -21.266000747680664,-38.007999420166016z M-18.15999984741211,10.102999687194824 C-18.15999984741211,10.102999687194824 -17.645000457763672,-31.42300033569336 -17.645000457763672,-31.42300033569336 C-17.645000457763672,-31.42300033569336 18.18000030517578,-10.267999649047852 18.18000030517578,-10.267999649047852 C18.18000030517578,-10.267999649047852 18.18000030517578,31.895000457763672 18.18000030517578,31.895000457763672 C18.18000030517578,31.895000457763672 -18.15999984741211,10.102999687194824 -18.15999984741211,10.102999687194824z"></path></g></g><g mask="url(#__lottie_element_260)" filter="url(#__lottie_element_261)" transform="matrix(6.519999980926514,0,0,6.519999980926514,55.75,369)" opacity="1" style="display: none;"><g opacity="1" transform="matrix(1,0,0,1,29.34000015258789,61.5)"><path fill="rgb(0,0,0)" fill-opacity="1" d=" M-21.266000747680664,-38.007999420166016 C-22.027999877929688,-37.57600021362305 -22.523000717163086,-36.77299880981445 -22.523000717163086,-35.888999938964844 C-22.523000717163086,-35.888999938964844 -23.097999572753906,11.461000442504883 -23.097999572753906,11.461000442504883 C-23.118000030517578,12.345999717712402 -22.645000457763672,13.14900016784668 -21.90399932861328,13.60200023651123 C-21.90399932861328,13.60200023651123 19.024999618530273,38.150001525878906 19.024999618530273,38.150001525878906 C19.416000366210938,38.375999450683594 19.847000122070312,38.499000549316406 20.298999786376953,38.499000549316406 C20.711000442504883,38.499000549316406 21.12299919128418,38.39699935913086 21.513999938964844,38.191001892089844 C22.5049991607666,37.6349983215332 23.118000030517578,36.58700180053711 23.118000030517578,35.45100021362305 C23.118000030517578,35.45100021362305 23.118000030517578,31.60700035095215 23.118000030517578,31.60700035095215 C23.118000030517578,31.60700035095215 23.118000030517578,-10.12600040435791 23.118000030517578,-10.12600040435791 C23.118000030517578,-11.913999557495117 22.20199966430664,-13.576000213623047 20.69099998474121,-14.529000282287598 C20.69099998474121,-14.529000282287598 -15.23799991607666,-35.722999572753906 -15.23799991607666,-35.722999572753906 C-15.23799991607666,-35.722999572753906 -18.48200035095215,-37.89799880981445 -18.48200035095215,-37.89799880981445 C-19.315000534057617,-38.457000732421875 -20.391000747680664,-38.5 -21.266000747680664,-38.007999420166016z M-18.15999984741211,10.102999687194824 C-18.15999984741211,10.102999687194824 -17.645000457763672,-31.42300033569336 -17.645000457763672,-31.42300033569336 C-17.645000457763672,-31.42300033569336 18.18000030517578,-10.267999649047852 18.18000030517578,-10.267999649047852 C18.18000030517578,-10.267999649047852 18.18000030517578,31.895000457763672 18.18000030517578,31.895000457763672 C18.18000030517578,31.895000457763672 -18.15999984741211,10.102999687194824 -18.15999984741211,10.102999687194824z"></path></g></g><g mask="url(#__lottie_element_257)" filter="url(#__lottie_element_258)" transform="matrix(6.519999980926514,0,0,6.519999980926514,59.5,59.5)" opacity="1" style="display: block;"><g opacity="1" transform="matrix(1,0,0,1,70.63999938964844,62.05099868774414)"><path fill="rgb(0,0,0)" fill-opacity="1" d=" M-23.118999481201172,36.11000061035156 C-23.118999481201172,36.11000061035156 -23.118999481201172,31.3439998626709 -23.118999481201172,31.3439998626709 C-23.118999481201172,31.3439998626709 -23.118999481201172,-10.611000061035156 -23.118999481201172,-10.611000061035156 C-23.118999481201172,-12.435999870300293 -22.167999267578125,-14.130000114440918 -20.608999252319336,-15.079000473022461 C-20.608999252319336,-15.079000473022461 15.772000312805176,-35.43000030517578 15.772000312805176,-35.43000030517578 C15.772000312805176,-35.43000030517578 19.683000564575195,-37.569000244140625 19.683000564575195,-37.569000244140625 C20.378999710083008,-37.94900131225586 21.222999572753906,-37.933998107910156 21.905000686645508,-37.52899932861328 C22.666000366210938,-37.09700012207031 23.118999481201172,-36.27399826049805 23.118999481201172,-35.388999938964844 C23.118999481201172,-35.388999938964844 22.768999099731445,12.329999923706055 22.768999099731445,12.329999923706055 C22.768999099731445,13.21500015258789 22.29599952697754,14.038000106811523 21.51300048828125,14.470000267028809 C21.51300048828125,14.470000267028809 -19.785999298095703,37.64099884033203 -19.785999298095703,37.64099884033203 C-20.177000045776367,37.84700012207031 -20.58799934387207,37.95000076293945 -21,37.95000076293945 C-21.45199966430664,37.95000076293945 -21.885000228881836,37.82699966430664 -22.275999069213867,37.599998474121094 C-22.798999786376953,37.28499984741211 -23.118999481201172,36.720001220703125 -23.118999481201172,36.11000061035156z M-18.180999755859375,31.055999755859375 C-18.180999755859375,31.055999755859375 17.829999923706055,10.848999977111816 17.829999923706055,10.848999977111816 C17.829999923706055,10.848999977111816 18.138999938964844,-31.108999252319336 18.138999938964844,-31.108999252319336 C18.138999938964844,-31.108999252319336 -18.180999755859375,-10.79800033569336 -18.180999755859375,-10.79800033569336 C-18.180999755859375,-10.79800033569336 -18.180999755859375,31.055999755859375 -18.180999755859375,31.055999755859375z"></path></g></g><g mask="url(#__lottie_element_254)" filter="url(#__lottie_element_255)" transform="matrix(6.519999980926514,0,0,6.519999980926514,57,367.5)" opacity="1" style="display: none;"><g opacity="1" transform="matrix(1,0,0,1,70.63999938964844,62.05099868774414)"><path fill="rgb(0,0,0)" fill-opacity="1" d=" M-23.118999481201172,36.11000061035156 C-23.118999481201172,36.11000061035156 -23.118999481201172,31.3439998626709 -23.118999481201172,31.3439998626709 C-23.118999481201172,31.3439998626709 -23.118999481201172,-10.611000061035156 -23.118999481201172,-10.611000061035156 C-23.118999481201172,-12.435999870300293 -22.167999267578125,-14.130000114440918 -20.608999252319336,-15.079000473022461 C-20.608999252319336,-15.079000473022461 15.772000312805176,-35.43000030517578 15.772000312805176,-35.43000030517578 C15.772000312805176,-35.43000030517578 19.683000564575195,-37.569000244140625 19.683000564575195,-37.569000244140625 C20.378999710083008,-37.94900131225586 21.222999572753906,-37.933998107910156 21.905000686645508,-37.52899932861328 C22.666000366210938,-37.09700012207031 23.118999481201172,-36.27399826049805 23.118999481201172,-35.388999938964844 C23.118999481201172,-35.388999938964844 22.768999099731445,12.329999923706055 22.768999099731445,12.329999923706055 C22.768999099731445,13.21500015258789 22.29599952697754,14.038000106811523 21.51300048828125,14.470000267028809 C21.51300048828125,14.470000267028809 -19.785999298095703,37.64099884033203 -19.785999298095703,37.64099884033203 C-20.177000045776367,37.84700012207031 -20.58799934387207,37.95000076293945 -21,37.95000076293945 C-21.45199966430664,37.95000076293945 -21.885000228881836,37.82699966430664 -22.275999069213867,37.599998474121094 C-22.798999786376953,37.28499984741211 -23.118999481201172,36.720001220703125 -23.118999481201172,36.11000061035156z M-18.180999755859375,31.055999755859375 C-18.180999755859375,31.055999755859375 17.829999923706055,10.848999977111816 17.829999923706055,10.848999977111816 C17.829999923706055,10.848999977111816 18.138999938964844,-31.108999252319336 18.138999938964844,-31.108999252319336 C18.138999938964844,-31.108999252319336 -18.180999755859375,-10.79800033569336 -18.180999755859375,-10.79800033569336 C-18.180999755859375,-10.79800033569336 -18.180999755859375,31.055999755859375 -18.180999755859375,31.055999755859375z"></path></g></g><g mask="url(#__lottie_element_251)" filter="url(#__lottie_element_252)" transform="matrix(6.519999980926514,0,0,6.519999980926514,59.5,59.5)" opacity="1" style="display: block;"><g opacity="1" transform="matrix(1,0,0,1,50.28099822998047,25.624000549316406)"><path fill="rgb(0,0,0)" fill-opacity="1" d=" M42.26300048828125,-1.1030000448226929 C43.02399826049805,-0.6710000038146973 43.47700119018555,0.15199999511241913 43.47700119018555,1.0369999408721924 C43.470001220703125,2.0269999504089355 42.92300033569336,2.936000108718872 42.04999923706055,3.4049999713897705 C42.04999923706055,3.4049999713897705 38.49800109863281,5.316999912261963 38.49800109863281,5.316999912261963 C38.49800109863281,5.316999912261963 4.300000190734863,24.440000534057617 4.300000190734863,24.440000534057617 C2.9089999198913574,25.218000411987305 1.340999960899353,25.624000549316406 -0.2540000081062317,25.617000579833984 C-1.8960000276565552,25.610000610351562 -3.50600004196167,25.16699981689453 -4.920000076293945,24.332000732421875 C-4.920000076293945,24.332000732421875 -38.58700180053711,4.452000141143799 -38.58700180053711,4.452000141143799 C-38.58700180053711,4.452000141143799 -41.814998626708984,2.755000114440918 -41.814998626708984,2.755000114440918 C-42.840999603271484,2.2149999141693115 -43.47700119018555,1.1460000276565552 -43.4640007019043,-0.013000000268220901 C-43.4640007019043,-0.8980000019073486 -42.970001220703125,-1.7000000476837158 -42.20800018310547,-2.131999969482422 C-42.20800018310547,-2.131999969482422 -0.9290000200271606,-25.30299949645996 -0.9290000200271606,-25.30299949645996 C-0.1679999977350235,-25.735000610351562 0.777999997138977,-25.735000610351562 1.5399999618530273,-25.281999588012695 C1.5399999618530273,-25.281999588012695 42.26300048828125,-1.1030000448226929 42.26300048828125,-1.1030000448226929z M-36.17900085449219,0.15199999511241913 C-36.17900085449219,0.15199999511241913 -0.25,21.347000122070312 -0.25,21.347000122070312 C-0.25,21.347000122070312 36.13100051879883,0.9959999918937683 36.13100051879883,0.9959999918937683 C36.13100051879883,0.9959999918937683 0.24300000071525574,-20.30299949645996 0.24300000071525574,-20.30299949645996 C0.24300000071525574,-20.30299949645996 -36.17900085449219,0.15199999511241913 -36.17900085449219,0.15199999511241913z"></path></g></g><g mask="url(#__lottie_element_248)" filter="url(#__lottie_element_249)" transform="matrix(6.519999980926514,0,0,6.519999980926514,57.5,365.5)" opacity="1" style="display: none;"><g opacity="1" transform="matrix(1,0,0,1,50.28099822998047,25.624000549316406)"><path fill="rgb(0,0,0)" fill-opacity="1" d=" M42.26300048828125,-1.1030000448226929 C43.02399826049805,-0.6710000038146973 43.47700119018555,0.15199999511241913 43.47700119018555,1.0369999408721924 C43.470001220703125,2.0269999504089355 42.92300033569336,2.936000108718872 42.04999923706055,3.4049999713897705 C42.04999923706055,3.4049999713897705 38.49800109863281,5.316999912261963 38.49800109863281,5.316999912261963 C38.49800109863281,5.316999912261963 4.300000190734863,24.440000534057617 4.300000190734863,24.440000534057617 C2.9089999198913574,25.218000411987305 1.340999960899353,25.624000549316406 -0.2540000081062317,25.617000579833984 C-1.8960000276565552,25.610000610351562 -3.50600004196167,25.16699981689453 -4.920000076293945,24.332000732421875 C-4.920000076293945,24.332000732421875 -38.58700180053711,4.452000141143799 -38.58700180053711,4.452000141143799 C-38.58700180053711,4.452000141143799 -41.814998626708984,2.755000114440918 -41.814998626708984,2.755000114440918 C-42.840999603271484,2.2149999141693115 -43.47700119018555,1.1460000276565552 -43.4640007019043,-0.013000000268220901 C-43.4640007019043,-0.8980000019073486 -42.970001220703125,-1.7000000476837158 -42.20800018310547,-2.131999969482422 C-42.20800018310547,-2.131999969482422 -0.9290000200271606,-25.30299949645996 -0.9290000200271606,-25.30299949645996 C-0.1679999977350235,-25.735000610351562 0.777999997138977,-25.735000610351562 1.5399999618530273,-25.281999588012695 C1.5399999618530273,-25.281999588012695 42.26300048828125,-1.1030000448226929 42.26300048828125,-1.1030000448226929z M-36.17900085449219,0.15199999511241913 C-36.17900085449219,0.15199999511241913 -0.25,21.347000122070312 -0.25,21.347000122070312 C-0.25,21.347000122070312 36.13100051879883,0.9959999918937683 36.13100051879883,0.9959999918937683 C36.13100051879883,0.9959999918937683 0.24300000071525574,-20.30299949645996 0.24300000071525574,-20.30299949645996 C0.24300000071525574,-20.30299949645996 -36.17900085449219,0.15199999511241913 -36.17900085449219,0.15199999511241913z"></path></g></g><g mask="url(#__lottie_element_245)" filter="url(#__lottie_element_246)" transform="matrix(6.519999980926514,0,0,6.519999980926514,57.5,365.5)" opacity="1" style="display: block;"><g opacity="1" transform="matrix(1,0,0,1,50.28099822998047,25.624000549316406)"><path fill="rgb(0,0,0)" fill-opacity="1" d=" M42.26300048828125,-1.1030000448226929 C43.02399826049805,-0.6710000038146973 43.47700119018555,0.15199999511241913 43.47700119018555,1.0369999408721924 C43.470001220703125,2.0269999504089355 42.92300033569336,2.936000108718872 42.04999923706055,3.4049999713897705 C42.04999923706055,3.4049999713897705 38.49800109863281,5.316999912261963 38.49800109863281,5.316999912261963 C38.49800109863281,5.316999912261963 4.300000190734863,24.440000534057617 4.300000190734863,24.440000534057617 C2.9089999198913574,25.218000411987305 1.340999960899353,25.624000549316406 -0.2540000081062317,25.617000579833984 C-1.8960000276565552,25.610000610351562 -3.50600004196167,25.16699981689453 -4.920000076293945,24.332000732421875 C-4.920000076293945,24.332000732421875 -38.58700180053711,4.452000141143799 -38.58700180053711,4.452000141143799 C-38.58700180053711,4.452000141143799 -41.814998626708984,2.755000114440918 -41.814998626708984,2.755000114440918 C-42.840999603271484,2.2149999141693115 -43.47700119018555,1.1460000276565552 -43.4640007019043,-0.013000000268220901 C-43.4640007019043,-0.8980000019073486 -42.970001220703125,-1.7000000476837158 -42.20800018310547,-2.131999969482422 C-42.20800018310547,-2.131999969482422 -0.9290000200271606,-25.30299949645996 -0.9290000200271606,-25.30299949645996 C-0.1679999977350235,-25.735000610351562 0.777999997138977,-25.735000610351562 1.5399999618530273,-25.281999588012695 C1.5399999618530273,-25.281999588012695 42.26300048828125,-1.1030000448226929 42.26300048828125,-1.1030000448226929z M-36.17900085449219,0.15199999511241913 C-36.17900085449219,0.15199999511241913 -0.25,21.347000122070312 -0.25,21.347000122070312 C-0.25,21.347000122070312 36.13100051879883,0.9959999918937683 36.13100051879883,0.9959999918937683 C36.13100051879883,0.9959999918937683 0.24300000071525574,-20.30299949645996 0.24300000071525574,-20.30299949645996 C0.24300000071525574,-20.30299949645996 -36.17900085449219,0.15199999511241913 -36.17900085449219,0.15199999511241913z"></path></g></g><g clip-path="url(#__lottie_element_242)" filter="url(#__lottie_element_243)" transform="matrix(6.519999980926514,0,0,6.519999980926514,59.5,59.5)" opacity="1" style="display: block;"><g opacity="1" transform="matrix(1,0,0,1,50.22700119018555,30.868999481201172)"><path fill="rgb(0,0,0)" fill-opacity="1" d=" M0.03099999949336052,-2.4590001106262207 C-1.3270000219345093,-2.4800000190734863 -2.4600000381469727,-1.3890000581741333 -2.4600000381469727,-0.009999999776482582 C-2.4800000190734863,1.3480000495910645 -1.3880000114440918,2.4800000190734863 -0.03099999949336052,2.4800000190734863 C-0.03099999949336052,2.4800000190734863 0.009999999776482582,2.4800000190734863 0.009999999776482582,2.4800000190734863 C1.3680000305175781,2.4800000190734863 2.4590001106262207,1.3899999856948853 2.4800000190734863,0.03200000151991844 C2.4800000190734863,-1.3270000219345093 1.3890000581741333,-2.4590001106262207 0.03099999949336052,-2.4590001106262207z"></path></g><g opacity="1" transform="matrix(1,0,0,1,50.34000015258789,21.381999969482422)"><path fill="rgb(0,0,0)" fill-opacity="1" d=" M0.020999999716877937,-2.4590001106262207 C-1.3370000123977661,-2.4800000190734863 -2.4690001010894775,-1.3890000581741333 -2.4690001010894775,-0.03099999949336052 C-2.490000009536743,1.3270000219345093 -1.3990000486373901,2.4600000381469727 -0.020999999716877937,2.4800000190734863 C-0.020999999716877937,2.4800000190734863 0,2.4800000190734863 0,2.4800000190734863 C1.3580000400543213,2.4800000190734863 2.4489998817443848,1.3899999856948853 2.4700000286102295,0.03200000151991844 C2.490000009536743,-1.305999994277954 1.3990000486373901,-2.437999963760376 0.020999999716877937,-2.4590001106262207z"></path></g><g opacity="1" transform="matrix(1,0,0,1,50.4630012512207,11.918000221252441)"><path fill="rgb(0,0,0)" fill-opacity="1" d=" M-0.041999999433755875,2.4800000190734863 C-0.041999999433755875,2.4800000190734863 0.0010000000474974513,2.4800000190734863 0.0010000000474974513,2.4800000190734863 C1.3580000400543213,2.4800000190734863 2.447999954223633,1.3890000581741333 2.4690001010894775,0.03099999949336052 C2.489000082015991,-1.3270000219345093 1.3980000019073486,-2.4579999446868896 0.019999999552965164,-2.4579999446868896 C-1.3380000591278076,-2.4790000915527344 -2.4690001010894775,-1.3899999856948853 -2.4690001010894775,-0.03099999949336052 C-2.489000082015991,1.347000002861023 -1.399999976158142,2.4590001106262207 -0.041999999433755875,2.4800000190734863z"></path></g><g opacity="1" transform="matrix(1,0,0,1,50.10300064086914,40.334999084472656)"><path fill="rgb(0,0,0)" fill-opacity="1" d=" M0.03099999949336052,-2.4590001106262207 C-1.3270000219345093,-2.4800000190734863 -2.4600000381469727,-1.3890000581741333 -2.4600000381469727,-0.03099999949336052 C-2.4800000190734863,1.3270000219345093 -1.3890000581741333,2.4600000381469727 -0.009999999776482582,2.4800000190734863 C-0.009999999776482582,2.4800000190734863 0.009999999776482582,2.4800000190734863 0.009999999776482582,2.4800000190734863 C1.36899995803833,2.4800000190734863 2.4600000381469727,1.3890000581741333 2.4800000190734863,0.03099999949336052 C2.4800000190734863,-1.3279999494552612 1.3890000581741333,-2.437999963760376 0.03099999949336052,-2.4590001106262207z"></path></g></g><g clip-path="url(#__lottie_element_239)" filter="url(#__lottie_element_240)" transform="matrix(6.519999980926514,0,0,6.519999980926514,59.5,59.5)" opacity="1" style="display: none;"><g opacity="1" transform="matrix(1,0,0,1,50.22700119018555,30.868999481201172)"><path fill="rgb(0,0,0)" fill-opacity="1" d=" M0.03099999949336052,-2.4590001106262207 C-1.3270000219345093,-2.4800000190734863 -2.4600000381469727,-1.3890000581741333 -2.4600000381469727,-0.009999999776482582 C-2.4800000190734863,1.3480000495910645 -1.3880000114440918,2.4800000190734863 -0.03099999949336052,2.4800000190734863 C-0.03099999949336052,2.4800000190734863 0.009999999776482582,2.4800000190734863 0.009999999776482582,2.4800000190734863 C1.3680000305175781,2.4800000190734863 2.4590001106262207,1.3899999856948853 2.4800000190734863,0.03200000151991844 C2.4800000190734863,-1.3270000219345093 1.3890000581741333,-2.4590001106262207 0.03099999949336052,-2.4590001106262207z"></path></g><g opacity="1" transform="matrix(1,0,0,1,50.34000015258789,21.381999969482422)"><path fill="rgb(0,0,0)" fill-opacity="1" d=" M0.020999999716877937,-2.4590001106262207 C-1.3370000123977661,-2.4800000190734863 -2.4690001010894775,-1.3890000581741333 -2.4690001010894775,-0.03099999949336052 C-2.490000009536743,1.3270000219345093 -1.3990000486373901,2.4600000381469727 -0.020999999716877937,2.4800000190734863 C-0.020999999716877937,2.4800000190734863 0,2.4800000190734863 0,2.4800000190734863 C1.3580000400543213,2.4800000190734863 2.4489998817443848,1.3899999856948853 2.4700000286102295,0.03200000151991844 C2.490000009536743,-1.305999994277954 1.3990000486373901,-2.437999963760376 0.020999999716877937,-2.4590001106262207z"></path></g><g opacity="1" transform="matrix(1,0,0,1,50.4630012512207,11.918000221252441)"><path fill="rgb(0,0,0)" fill-opacity="1" d=" M-0.041999999433755875,2.4800000190734863 C-0.041999999433755875,2.4800000190734863 0.0010000000474974513,2.4800000190734863 0.0010000000474974513,2.4800000190734863 C1.3580000400543213,2.4800000190734863 2.447999954223633,1.3890000581741333 2.4690001010894775,0.03099999949336052 C2.489000082015991,-1.3270000219345093 1.3980000019073486,-2.4579999446868896 0.019999999552965164,-2.4579999446868896 C-1.3380000591278076,-2.4790000915527344 -2.4690001010894775,-1.3899999856948853 -2.4690001010894775,-0.03099999949336052 C-2.489000082015991,1.347000002861023 -1.399999976158142,2.4590001106262207 -0.041999999433755875,2.4800000190734863z"></path></g><g opacity="1" transform="matrix(1,0,0,1,50.10300064086914,40.334999084472656)"><path fill="rgb(0,0,0)" fill-opacity="1" d=" M0.03099999949336052,-2.4590001106262207 C-1.3270000219345093,-2.4800000190734863 -2.4600000381469727,-1.3890000581741333 -2.4600000381469727,-0.03099999949336052 C-2.4800000190734863,1.3270000219345093 -1.3890000581741333,2.4600000381469727 -0.009999999776482582,2.4800000190734863 C-0.009999999776482582,2.4800000190734863 0.009999999776482582,2.4800000190734863 0.009999999776482582,2.4800000190734863 C1.36899995803833,2.4800000190734863 2.4600000381469727,1.3890000581741333 2.4800000190734863,0.03099999949336052 C2.4800000190734863,-1.3279999494552612 1.3890000581741333,-2.437999963760376 0.03099999949336052,-2.4590001106262207z"></path></g></g><g clip-path="url(#__lottie_element_236)" filter="url(#__lottie_element_237)" transform="matrix(6.519999980926514,0,0,6.519999980926514,59.5,59.5)" opacity="1" style="display: block;"><g opacity="1" transform="matrix(1,0,0,1,33.47600173950195,58.90599822998047)"><path fill="rgb(0,0,0)" fill-opacity="1" d=" M-0.009999999776482582,2.634000062942505 C0.4020000100135803,2.634000062942505 0.8130000233650208,2.5309998989105225 1.2039999961853027,2.325000047683716 C2.3970000743865967,1.6469999551773071 2.809000015258789,0.14499999582767487 2.1510000228881836,-1.027999997138977 C1.4919999837875366,-2.2209999561309814 -0.009999999776482582,-2.634000062942505 -1.2039999961853027,-1.975000023841858 C-2.3970000743865967,-1.315999984741211 -2.809000015258789,0.1860000044107437 -2.1500000953674316,1.378999948501587 C-1.6970000267028809,2.181999921798706 -0.8740000128746033,2.634000062942505 -0.009999999776482582,2.634000062942505z"></path></g><g opacity="1" transform="matrix(1,0,0,1,25.225000381469727,63.555999755859375)"><path fill="rgb(0,0,0)" fill-opacity="1" d=" M-0.009999999776482582,2.634000062942505 C0.4020000100135803,2.634000062942505 0.8130000233650208,2.5309998989105225 1.2039999961853027,2.325000047683716 C2.3980000019073486,1.6670000553131104 2.808000087738037,0.14499999582767487 2.1500000953674316,-1.027999997138977 C1.4910000562667847,-2.2209999561309814 -0.03200000151991844,-2.634000062942505 -1.2039999961853027,-1.975000023841858 C-2.3980000019073486,-1.315999984741211 -2.808000087738037,0.20600000023841858 -2.1500000953674316,1.378999948501587 C-1.718000054359436,2.181999921798706 -0.8740000128746033,2.634000062942505 -0.009999999776482582,2.634000062942505z"></path></g><g opacity="1" transform="matrix(1,0,0,1,41.749000549316406,54.2760009765625)"><path fill="rgb(0,0,0)" fill-opacity="1" d=" M-0.009999999776482582,2.634000062942505 C0.4020000100135803,2.634000062942505 0.8130000233650208,2.5309998989105225 1.2039999961853027,2.325000047683716 C2.3980000019073486,1.6670000553131104 2.808000087738037,0.14399999380111694 2.1500000953674316,-1.0290000438690186 C1.4910000562667847,-2.2219998836517334 -0.03200000151991844,-2.634000062942505 -1.2039999961853027,-1.975000023841858 C-2.3980000019073486,-1.3170000314712524 -2.808000087738037,0.20499999821186066 -2.1500000953674316,1.378999948501587 C-1.718000054359436,2.180999994277954 -0.8740000128746033,2.634000062942505 -0.009999999776482582,2.634000062942505z"></path></g><g opacity="1" transform="matrix(1,0,0,1,16.972999572753906,68.18599700927734)"><path fill="rgb(0,0,0)" fill-opacity="1" d=" M-0.009999999776482582,2.634000062942505 C0.4020000100135803,2.634000062942505 0.8130000233650208,2.5309998989105225 1.2039999961853027,2.325000047683716 C2.3970000743865967,1.6469999551773071 2.809000015258789,0.14499999582767487 2.1510000228881836,-1.027999997138977 C1.4709999561309814,-2.2209999561309814 -0.03099999949336052,-2.634000062942505 -1.2039999961853027,-1.975000023841858 C-2.3970000743865967,-1.315999984741211 -2.809000015258789,0.20600000023841858 -2.1500000953674316,1.378999948501587 C-1.718000054359436,2.181999921798706 -0.8740000128746033,2.634000062942505 -0.009999999776482582,2.634000062942505z"></path></g><g opacity="1" transform="matrix(1,0,0,1,74.41600036621094,64.14399719238281)"><path fill="rgb(0,0,0)" fill-opacity="1" d=" M-1.25600004196167,2.2939999103546143 C-0.8640000224113464,2.5209999084472656 -0.43299999833106995,2.6440000534057617 0,2.6440000534057617 C0.843999981880188,2.6440000534057617 1.6670000553131104,2.2119998931884766 2.11899995803833,1.4299999475479126 C2.819000005722046,0.25699999928474426 2.427999973297119,-1.2660000324249268 1.2549999952316284,-1.9450000524520874 C0.0820000022649765,-2.6440000534057617 -1.440999984741211,-2.253999948501587 -2.1410000324249268,-1.0809999704360962 C-2.819000005722046,0.09200000017881393 -2.428999900817871,1.5950000286102295 -1.25600004196167,2.2939999103546143z"></path></g><g opacity="1" transform="matrix(1,0,0,1,66.2770004272461,59.308998107910156)"><path fill="rgb(0,0,0)" fill-opacity="1" d=" M-1.2660000324249268,2.2939999103546143 C-0.875,2.5199999809265137 -0.44200000166893005,2.6440000534057617 -0.009999999776482582,2.6440000534057617 C0.8339999914169312,2.6440000534057617 1.656999945640564,2.2109999656677246 2.109999895095825,1.4299999475479126 C2.809000015258789,0.25699999928474426 2.4179999828338623,-1.2669999599456787 1.2450000047683716,-1.9450000524520874 C0.07199999690055847,-2.6440000534057617 -1.4520000219345093,-2.253999948501587 -2.130000114440918,-1.0809999704360962 C-2.809000015258789,0.09200000017881393 -2.438999891281128,1.593999981880188 -1.2660000324249268,2.2939999103546143z"></path></g><g opacity="1" transform="matrix(1,0,0,1,58.138999938964844,54.47200012207031)"><path fill="rgb(0,0,0)" fill-opacity="1" d=" M-1.2549999952316284,2.2939999103546143 C-0.8640000224113464,2.5199999809265137 -0.4320000112056732,2.6449999809265137 0,2.6449999809265137 C0.843999981880188,2.6449999809265137 1.6670000553131104,2.2109999656677246 2.11899995803833,1.4299999475479126 C2.819000005722046,0.25699999928474426 2.428999900817871,-1.2669999599456787 1.2549999952316284,-1.9450000524520874 C0.0820000022649765,-2.6449999809265137 -1.440999984741211,-2.253999948501587 -2.11899995803833,-1.0809999704360962 C-2.819000005722046,0.09200000017881393 -2.427999973297119,1.593999981880188 -1.2549999952316284,2.2939999103546143z"></path></g><g opacity="1" transform="matrix(1,0,0,1,82.56500244140625,68.96900177001953)"><path fill="rgb(0,0,0)" fill-opacity="1" d=" M-1.2549999952316284,2.305000066757202 C-0.8640000224113464,2.5320000648498535 -0.4320000112056732,2.6540000438690186 0,2.6540000438690186 C0.843999981880188,2.6540000438690186 1.6670000553131104,2.2230000495910645 2.11899995803833,1.440999984741211 C2.819000005722046,0.2680000066757202 2.428999900817871,-1.25600004196167 1.2549999952316284,-1.9559999704360962 C0.0820000022649765,-2.6549999713897705 -1.440999984741211,-2.2639999389648438 -2.11899995803833,-1.0920000076293945 C-2.819000005722046,0.0820000022649765 -2.427999973297119,1.6059999465942383 -1.2549999952316284,2.305000066757202z"></path></g></g><g clip-path="url(#__lottie_element_233)" filter="url(#__lottie_element_234)" transform="matrix(6.519999980926514,0,0,6.519999980926514,59.5,59.5)" opacity="1" style="display: none;"><g opacity="1" transform="matrix(1,0,0,1,33.47600173950195,58.90599822998047)"><path fill="rgb(0,0,0)" fill-opacity="1" d=" M-0.009999999776482582,2.634000062942505 C0.4020000100135803,2.634000062942505 0.8130000233650208,2.5309998989105225 1.2039999961853027,2.325000047683716 C2.3970000743865967,1.6469999551773071 2.809000015258789,0.14499999582767487 2.1510000228881836,-1.027999997138977 C1.4919999837875366,-2.2209999561309814 -0.009999999776482582,-2.634000062942505 -1.2039999961853027,-1.975000023841858 C-2.3970000743865967,-1.315999984741211 -2.809000015258789,0.1860000044107437 -2.1500000953674316,1.378999948501587 C-1.6970000267028809,2.181999921798706 -0.8740000128746033,2.634000062942505 -0.009999999776482582,2.634000062942505z"></path></g><g opacity="1" transform="matrix(1,0,0,1,25.225000381469727,63.555999755859375)"><path fill="rgb(0,0,0)" fill-opacity="1" d=" M-0.009999999776482582,2.634000062942505 C0.4020000100135803,2.634000062942505 0.8130000233650208,2.5309998989105225 1.2039999961853027,2.325000047683716 C2.3980000019073486,1.6670000553131104 2.808000087738037,0.14499999582767487 2.1500000953674316,-1.027999997138977 C1.4910000562667847,-2.2209999561309814 -0.03200000151991844,-2.634000062942505 -1.2039999961853027,-1.975000023841858 C-2.3980000019073486,-1.315999984741211 -2.808000087738037,0.20600000023841858 -2.1500000953674316,1.378999948501587 C-1.718000054359436,2.181999921798706 -0.8740000128746033,2.634000062942505 -0.009999999776482582,2.634000062942505z"></path></g><g opacity="1" transform="matrix(1,0,0,1,41.749000549316406,54.2760009765625)"><path fill="rgb(0,0,0)" fill-opacity="1" d=" M-0.009999999776482582,2.634000062942505 C0.4020000100135803,2.634000062942505 0.8130000233650208,2.5309998989105225 1.2039999961853027,2.325000047683716 C2.3980000019073486,1.6670000553131104 2.808000087738037,0.14399999380111694 2.1500000953674316,-1.0290000438690186 C1.4910000562667847,-2.2219998836517334 -0.03200000151991844,-2.634000062942505 -1.2039999961853027,-1.975000023841858 C-2.3980000019073486,-1.3170000314712524 -2.808000087738037,0.20499999821186066 -2.1500000953674316,1.378999948501587 C-1.718000054359436,2.180999994277954 -0.8740000128746033,2.634000062942505 -0.009999999776482582,2.634000062942505z"></path></g><g opacity="1" transform="matrix(1,0,0,1,16.972999572753906,68.18599700927734)"><path fill="rgb(0,0,0)" fill-opacity="1" d=" M-0.009999999776482582,2.634000062942505 C0.4020000100135803,2.634000062942505 0.8130000233650208,2.5309998989105225 1.2039999961853027,2.325000047683716 C2.3970000743865967,1.6469999551773071 2.809000015258789,0.14499999582767487 2.1510000228881836,-1.027999997138977 C1.4709999561309814,-2.2209999561309814 -0.03099999949336052,-2.634000062942505 -1.2039999961853027,-1.975000023841858 C-2.3970000743865967,-1.315999984741211 -2.809000015258789,0.20600000023841858 -2.1500000953674316,1.378999948501587 C-1.718000054359436,2.181999921798706 -0.8740000128746033,2.634000062942505 -0.009999999776482582,2.634000062942505z"></path></g><g opacity="1" transform="matrix(1,0,0,1,74.41600036621094,64.14399719238281)"><path fill="rgb(0,0,0)" fill-opacity="1" d=" M-1.25600004196167,2.2939999103546143 C-0.8640000224113464,2.5209999084472656 -0.43299999833106995,2.6440000534057617 0,2.6440000534057617 C0.843999981880188,2.6440000534057617 1.6670000553131104,2.2119998931884766 2.11899995803833,1.4299999475479126 C2.819000005722046,0.25699999928474426 2.427999973297119,-1.2660000324249268 1.2549999952316284,-1.9450000524520874 C0.0820000022649765,-2.6440000534057617 -1.440999984741211,-2.253999948501587 -2.1410000324249268,-1.0809999704360962 C-2.819000005722046,0.09200000017881393 -2.428999900817871,1.5950000286102295 -1.25600004196167,2.2939999103546143z"></path></g><g opacity="1" transform="matrix(1,0,0,1,66.2770004272461,59.308998107910156)"><path fill="rgb(0,0,0)" fill-opacity="1" d=" M-1.2660000324249268,2.2939999103546143 C-0.875,2.5199999809265137 -0.44200000166893005,2.6440000534057617 -0.009999999776482582,2.6440000534057617 C0.8339999914169312,2.6440000534057617 1.656999945640564,2.2109999656677246 2.109999895095825,1.4299999475479126 C2.809000015258789,0.25699999928474426 2.4179999828338623,-1.2669999599456787 1.2450000047683716,-1.9450000524520874 C0.07199999690055847,-2.6440000534057617 -1.4520000219345093,-2.253999948501587 -2.130000114440918,-1.0809999704360962 C-2.809000015258789,0.09200000017881393 -2.438999891281128,1.593999981880188 -1.2660000324249268,2.2939999103546143z"></path></g><g opacity="1" transform="matrix(1,0,0,1,58.138999938964844,54.47200012207031)"><path fill="rgb(0,0,0)" fill-opacity="1" d=" M-1.2549999952316284,2.2939999103546143 C-0.8640000224113464,2.5199999809265137 -0.4320000112056732,2.6449999809265137 0,2.6449999809265137 C0.843999981880188,2.6449999809265137 1.6670000553131104,2.2109999656677246 2.11899995803833,1.4299999475479126 C2.819000005722046,0.25699999928474426 2.428999900817871,-1.2669999599456787 1.2549999952316284,-1.9450000524520874 C0.0820000022649765,-2.6449999809265137 -1.440999984741211,-2.253999948501587 -2.11899995803833,-1.0809999704360962 C-2.819000005722046,0.09200000017881393 -2.427999973297119,1.593999981880188 -1.2549999952316284,2.2939999103546143z"></path></g><g opacity="1" transform="matrix(1,0,0,1,82.56500244140625,68.96900177001953)"><path fill="rgb(0,0,0)" fill-opacity="1" d=" M-1.2549999952316284,2.305000066757202 C-0.8640000224113464,2.5320000648498535 -0.4320000112056732,2.6540000438690186 0,2.6540000438690186 C0.843999981880188,2.6540000438690186 1.6670000553131104,2.2230000495910645 2.11899995803833,1.440999984741211 C2.819000005722046,0.2680000066757202 2.428999900817871,-1.25600004196167 1.2549999952316284,-1.9559999704360962 C0.0820000022649765,-2.6549999713897705 -1.440999984741211,-2.2639999389648438 -2.11899995803833,-1.0920000076293945 C-2.819000005722046,0.0820000022649765 -2.427999973297119,1.6059999465942383 -1.2549999952316284,2.305000066757202z"></path></g></g><g mask="url(#__lottie_element_230)" filter="url(#__lottie_element_231)" transform="matrix(6.519999980926514,0,0,6.519999980926514,59.5,59.5)" opacity="1" style="display: none;"><g opacity="1" transform="matrix(1,0,0,1,49.821998596191406,84.92400360107422)"><path fill="rgb(0,0,0)" fill-opacity="1" d=" M-42.38600158691406,-9.822999954223633 C-43.12699890136719,-10.274999618530273 -43.599998474121094,-11.07800006866455 -43.58000183105469,-11.963000297546387 C-43.555999755859375,-13.90999984741211 -41.40399932861328,-15.076000213623047 -39.7599983215332,-14.031000137329102 C-39.7599983215332,-14.031000137329102 -38.64099884033203,-13.321000099182129 -38.64099884033203,-13.321000099182129 C-38.64099884033203,-13.321000099182129 -2.3010001182556152,8.470999717712402 -2.3010001182556152,8.470999717712402 C-0.9769999980926514,9.20199966430664 0.6259999871253967,9.225000381469727 1.968999981880188,8.529000282287598 C1.968999981880188,8.529000282287598 2.63700008392334,8.182999610900879 2.63700008392334,8.182999610900879 C2.63700008392334,8.182999610900879 38.64799880981445,-12.02400016784668 38.64799880981445,-12.02400016784668 C38.64799880981445,-12.02400016784668 39.834999084472656,-12.717000007629395 39.834999084472656,-12.717000007629395 C41.505001068115234,-13.690999984741211 43.599998474121094,-12.47599983215332 43.58700180053711,-10.543000221252441 C43.58700180053711,-9.657999992370605 43.112998962402344,-8.835000038146973 42.33100128173828,-8.402999877929688 C42.33100128173828,-8.402999877929688 1.0329999923706055,14.767999649047852 1.0329999923706055,14.767999649047852 C0.6420000195503235,14.973999977111816 0.2290000021457672,15.076000213623047 -0.18199999630451202,15.076000213623047 C-0.6349999904632568,15.076000213623047 -1.0670000314712524,14.95300006866455 -1.4579999446868896,14.72700023651123 C-1.4579999446868896,14.72700023651123 -42.38600158691406,-9.822999954223633 -42.38600158691406,-9.822999954223633z"></path></g><g opacity="1" transform="matrix(1,0,0,1,49.86000061035156,62.07600021362305)"><path fill="rgb(0,0,0)" fill-opacity="1" d=" M42.387001037597656,9.822999954223633 C43.12799835205078,10.274999618530273 43.60100173950195,11.07800006866455 43.58000183105469,11.963000297546387 C43.55699920654297,13.90999984741211 41.404998779296875,15.076000213623047 39.7599983215332,14.031000137329102 C39.7599983215332,14.031000137329102 38.641998291015625,13.321000099182129 38.641998291015625,13.321000099182129 C38.641998291015625,13.321000099182129 2.302000045776367,-8.470999717712402 2.302000045776367,-8.470999717712402 C0.9769999980926514,-9.20199966430664 -0.625,-9.225000381469727 -1.968000054359436,-8.529000282287598 C-1.968000054359436,-8.529000282287598 -2.63700008392334,-8.182999610900879 -2.63700008392334,-8.182999610900879 C-2.63700008392334,-8.182999610900879 -38.64799880981445,12.02400016784668 -38.64799880981445,12.02400016784668 C-38.64799880981445,12.02400016784668 -39.834999084472656,12.717000007629395 -39.834999084472656,12.717000007629395 C-41.505001068115234,13.690999984741211 -43.60100173950195,12.47599983215332 -43.58700180053711,10.543000221252441 C-43.58700180053711,9.657999992370605 -43.112998962402344,8.835000038146973 -42.33100128173828,8.402999877929688 C-42.33100128173828,8.402999877929688 -1.031999945640564,-14.767999649047852 -1.031999945640564,-14.767999649047852 C-0.640999972820282,-14.972999572753906 -0.23000000417232513,-15.076000213623047 0.18199999630451202,-15.076000213623047 C0.6349999904632568,-15.076000213623047 1.0670000314712524,-14.95300006866455 1.4579999446868896,-14.72599983215332 C1.4579999446868896,-14.72599983215332 42.387001037597656,9.822999954223633 42.387001037597656,9.822999954223633z"></path></g></g><g mask="url(#__lottie_element_227)" filter="url(#__lottie_element_228)" transform="matrix(6.519999980926514,0,0,6.519999980926514,59.5,59.5)" opacity="1" style="display: block;"><g opacity="1" transform="matrix(1,0,0,1,49.821998596191406,84.92400360107422)"><path fill="rgb(0,0,0)" fill-opacity="1" d=" M-42.38600158691406,-9.822999954223633 C-43.12699890136719,-10.274999618530273 -43.599998474121094,-11.07800006866455 -43.58000183105469,-11.963000297546387 C-43.555999755859375,-13.90999984741211 -41.40399932861328,-15.076000213623047 -39.7599983215332,-14.031000137329102 C-39.7599983215332,-14.031000137329102 -38.64099884033203,-13.321000099182129 -38.64099884033203,-13.321000099182129 C-38.64099884033203,-13.321000099182129 -2.3010001182556152,8.470999717712402 -2.3010001182556152,8.470999717712402 C-0.9769999980926514,9.20199966430664 0.6259999871253967,9.225000381469727 1.968999981880188,8.529000282287598 C1.968999981880188,8.529000282287598 2.63700008392334,8.182999610900879 2.63700008392334,8.182999610900879 C2.63700008392334,8.182999610900879 38.64799880981445,-12.02400016784668 38.64799880981445,-12.02400016784668 C38.64799880981445,-12.02400016784668 39.834999084472656,-12.717000007629395 39.834999084472656,-12.717000007629395 C41.505001068115234,-13.690999984741211 43.599998474121094,-12.47599983215332 43.58700180053711,-10.543000221252441 C43.58700180053711,-9.657999992370605 43.112998962402344,-8.835000038146973 42.33100128173828,-8.402999877929688 C42.33100128173828,-8.402999877929688 1.0329999923706055,14.767999649047852 1.0329999923706055,14.767999649047852 C0.6420000195503235,14.973999977111816 0.2290000021457672,15.076000213623047 -0.18199999630451202,15.076000213623047 C-0.6349999904632568,15.076000213623047 -1.0670000314712524,14.95300006866455 -1.4579999446868896,14.72700023651123 C-1.4579999446868896,14.72700023651123 -42.38600158691406,-9.822999954223633 -42.38600158691406,-9.822999954223633z"></path></g><g opacity="1" transform="matrix(1,0,0,1,49.86000061035156,62.07600021362305)"><path fill="rgb(0,0,0)" fill-opacity="1" d=" M42.387001037597656,9.822999954223633 C43.12799835205078,10.274999618530273 43.60100173950195,11.07800006866455 43.58000183105469,11.963000297546387 C43.55699920654297,13.90999984741211 41.404998779296875,15.076000213623047 39.7599983215332,14.031000137329102 C39.7599983215332,14.031000137329102 38.641998291015625,13.321000099182129 38.641998291015625,13.321000099182129 C38.641998291015625,13.321000099182129 2.302000045776367,-8.470999717712402 2.302000045776367,-8.470999717712402 C0.9769999980926514,-9.20199966430664 -0.625,-9.225000381469727 -1.968000054359436,-8.529000282287598 C-1.968000054359436,-8.529000282287598 -2.63700008392334,-8.182999610900879 -2.63700008392334,-8.182999610900879 C-2.63700008392334,-8.182999610900879 -38.64799880981445,12.02400016784668 -38.64799880981445,12.02400016784668 C-38.64799880981445,12.02400016784668 -39.834999084472656,12.717000007629395 -39.834999084472656,12.717000007629395 C-41.505001068115234,13.690999984741211 -43.60100173950195,12.47599983215332 -43.58700180053711,10.543000221252441 C-43.58700180053711,9.657999992370605 -43.112998962402344,8.835000038146973 -42.33100128173828,8.402999877929688 C-42.33100128173828,8.402999877929688 -1.031999945640564,-14.767999649047852 -1.031999945640564,-14.767999649047852 C-0.640999972820282,-14.972999572753906 -0.23000000417232513,-15.076000213623047 0.18199999630451202,-15.076000213623047 C0.6349999904632568,-15.076000213623047 1.0670000314712524,-14.95300006866455 1.4579999446868896,-14.72599983215332 C1.4579999446868896,-14.72599983215332 42.387001037597656,9.822999954223633 42.387001037597656,9.822999954223633z"></path></g></g></g></svg>