<svg xmlns="http://www.w3.org/2000/svg" viewBox="0 0 800 800" width="800" height="800" preserveAspectRatio="xMidYMid meet" style="width: 100%; height: 100%; transform: translate3d(0px, 0px, 0px);"><defs><clipPath id="__lottie_element_7"><rect width="800" height="800" x="0" y="0"></rect></clipPath><mask id="__lottie_element_9"><rect fill="#ffffff" width="800" height="800" transform="matrix(0.10939709842205048,-0.15088209509849548,0.15088209509849548,0.10939709842205048,-140.77532958984375,19.798925399780273)"></rect><path fill="#000000" clip-rule="nonzero" d=" M0.972000002861023,31.038000106811523 C0.972000002861023,31.038000106811523 -1.9470000267028809,32.902000427246094 -1.9470000267028809,32.902000427246094 C-1.9470000267028809,32.902000427246094 2.496000051498413,35.49700164794922 2.496000051498413,35.49700164794922 C2.496000051498413,35.49700164794922 6.303999900817871,34.87200164794922 6.303999900817871,34.87200164794922 C6.303999900817871,34.87200164794922 5.119999885559082,32.340999603271484 5.119999885559082,32.340999603271484 C5.119999885559082,32.340999603271484 0.972000002861023,31.038000106811523 0.972000002861023,31.038000106811523" fill-opacity="1"></path></mask><filter id="__lottie_element_10" filterUnits="objectBoundingBox" x="0%" y="0%" width="100%" height="100%"><feColorMatrix type="matrix" color-interpolation-filters="sRGB" values="0 0 0 0 1 0 0 0 0 1 0 0 0 0 1 0 0 0 1 0"></feColorMatrix></filter><filter id="__lottie_element_13" filterUnits="objectBoundingBox" x="0%" y="0%" width="100%" height="100%"><feColorMatrix type="matrix" color-interpolation-filters="sRGB" values="0 0 0 0 1 0 0 0 0 1 0 0 0 0 1 0 0 0 1 0"></feColorMatrix></filter><filter id="__lottie_element_16" filterUnits="objectBoundingBox" x="0%" y="0%" width="100%" height="100%"><feColorMatrix type="matrix" color-interpolation-filters="sRGB" values="0 0 0 0 1 0 0 0 0 1 0 0 0 0 1 0 0 0 1 0"></feColorMatrix></filter><mask id="__lottie_element_18"><rect fill="#ffffff" width="800" height="800" transform="matrix(0.18248175084590912,0,0,0.18248175084590912,-23.722627639770508,-22.992700576782227)"></rect><path fill="#000000" clip-rule="nonzero" d=" M72.30799865722656,15.192000389099121 C72.30799865722656,15.192000389099121 52.599998474121094,16.01300048828125 52.599998474121094,16.01300048828125 C52.599998474121094,16.01300048828125 52.645999908447266,22.7189998626709 52.645999908447266,22.7189998626709 C52.645999908447266,22.7189998626709 72.49099731445312,22.764999389648438 72.49099731445312,22.764999389648438 C72.49099731445312,22.764999389648438 72.30799865722656,15.192000389099121 72.30799865722656,15.192000389099121" fill-opacity="1"></path></mask><filter id="__lottie_element_19" filterUnits="objectBoundingBox" x="0%" y="0%" width="100%" height="100%"><feColorMatrix type="matrix" color-interpolation-filters="sRGB" values="0 0 0 0 1 0 0 0 0 1 0 0 0 0 1 0 0 0 1 0"></feColorMatrix></filter><filter id="__lottie_element_22" filterUnits="objectBoundingBox" x="0%" y="0%" width="100%" height="100%"><feColorMatrix type="matrix" color-interpolation-filters="sRGB" values="0 0 0 0 1 0 0 0 0 1 0 0 0 0 1 0 0 0 1 0"></feColorMatrix></filter></defs><g clip-path="url(#__lottie_element_7)"><g filter="url(#__lottie_element_22)" transform="matrix(5.511960029602051,0,0,5.511960029602051,129.65200805664062,124.40200805664062)" opacity="1" style="display: block;"><g opacity="1" transform="matrix(1,0,0,1,10.8149995803833,19.104999542236328)"><path fill="rgb(0,0,0)" fill-opacity="1" d=" M0,-2.503999948501587 C-0.6679999828338623,-2.503999948501587 -1.3140000104904175,-2.2320001125335693 -1.7730000019073486,-1.7730000019073486 C-2.2320001125335693,-1.3140000104904175 -2.503999948501587,-0.6669999957084656 -2.503999948501587,0.0010000000474974513 C-2.503999948501587,0.6679999828338623 -2.2320001125335693,1.3140000104904175 -1.7730000019073486,1.7730000019073486 C-1.3140000104904175,2.2320001125335693 -0.6679999828338623,2.503999948501587 0,2.503999948501587 C0.6669999957084656,2.503999948501587 1.3140000104904175,2.2320001125335693 1.7730000019073486,1.7730000019073486 C2.2320001125335693,1.3140000104904175 2.503999948501587,0.6679999828338623 2.503999948501587,0.0010000000474974513 C2.503999948501587,-0.6669999957084656 2.2320001125335693,-1.3140000104904175 1.7730000019073486,-1.7730000019073486 C1.2929999828338623,-2.2320001125335693 0.6470000147819519,-2.503999948501587 0,-2.503999948501587z"></path></g><g opacity="1" transform="matrix(1,0,0,1,20.579999923706055,19.104999542236328)"><path fill="rgb(0,0,0)" fill-opacity="1" d=" M0,-2.503999948501587 C-1.3769999742507935,-2.503999948501587 -2.503999948501587,-1.3769999742507935 -2.503999948501587,0.0010000000474974513 C-2.503999948501587,1.378000020980835 -1.3769999742507935,2.503999948501587 0,2.503999948501587 C1.3769999742507935,2.503999948501587 2.503999948501587,1.378000020980835 2.503999948501587,0.0010000000474974513 C2.503999948501587,-1.3769999742507935 1.3980000019073486,-2.503999948501587 0,-2.503999948501587z"></path></g><g opacity="1" transform="matrix(1,0,0,1,30.365999221801758,19.104999542236328)"><path fill="rgb(0,0,0)" fill-opacity="1" d=" M0,-2.503999948501587 C-1.3769999742507935,-2.503999948501587 -2.503999948501587,-1.3769999742507935 -2.503999948501587,0.0010000000474974513 C-2.503999948501587,1.378000020980835 -1.3769999742507935,2.503999948501587 0,2.503999948501587 C1.3769999742507935,2.503999948501587 2.503999948501587,1.378000020980835 2.503999948501587,0.0010000000474974513 C2.503999948501587,-1.3769999742507935 1.3769999742507935,-2.503999948501587 0,-2.503999948501587z"></path></g><g opacity="1" transform="matrix(1,0,0,1,40.1510009765625,19.104999542236328)"><path fill="rgb(0,0,0)" fill-opacity="1" d=" M-2.503999948501587,0.0010000000474974513 C-2.503999948501587,-1.3760000467300415 -1.3769999742507935,-2.503999948501587 0,-2.503999948501587 C1.3769999742507935,-2.503999948501587 2.503999948501587,-1.3760000467300415 2.503999948501587,0.0010000000474974513 C2.503999948501587,1.378000020980835 1.3769999742507935,2.503999948501587 0,2.503999948501587 C-1.3769999742507935,2.503999948501587 -2.503999948501587,1.378000020980835 -2.503999948501587,0.0010000000474974513z"></path></g><g opacity="1" transform="matrix(1,0,0,1,10.8149995803833,28.891000747680664)"><path fill="rgb(0,0,0)" fill-opacity="1" d=" M2.503999948501587,0 C2.503999948501587,1.3830000162124634 1.3830000162124634,2.503999948501587 0,2.503999948501587 C-1.3830000162124634,2.503999948501587 -2.503999948501587,1.3830000162124634 -2.503999948501587,0 C-2.503999948501587,-1.3830000162124634 -1.3830000162124634,-2.503999948501587 0,-2.503999948501587 C1.3830000162124634,-2.503999948501587 2.503999948501587,-1.3830000162124634 2.503999948501587,0z"></path></g><g opacity="1" transform="matrix(1,0,0,1,10.8149995803833,38.698001861572266)"><path fill="rgb(0,0,0)" fill-opacity="1" d=" M0,-2.503999948501587 C-1.3769999742507935,-2.503999948501587 -2.503999948501587,-1.3769999742507935 -2.503999948501587,0 C-2.503999948501587,1.3769999742507935 -1.3769999742507935,2.503999948501587 0,2.503999948501587 C1.3769999742507935,2.503999948501587 2.503999948501587,1.3769999742507935 2.503999948501587,0 C2.503999948501587,-1.3769999742507935 1.3769999742507935,-2.503999948501587 0,-2.503999948501587z"></path></g><g opacity="1" transform="matrix(1,0,0,1,10.8149995803833,77.88300323486328)"><path fill="rgb(0,0,0)" fill-opacity="1" d=" M-2.503999948501587,0 C-2.503999948501587,-1.3769999742507935 -1.3769999742507935,-2.503999948501587 0,-2.503999948501587 C1.3769999742507935,-2.503999948501587 2.503999948501587,-1.3769999742507935 2.503999948501587,0 C2.503999948501587,1.3769999742507935 1.3769999742507935,2.503999948501587 0,2.503999948501587 C-1.3769999742507935,2.503999948501587 -2.503999948501587,1.3769999742507935 -2.503999948501587,0z"></path></g><g opacity="1" transform="matrix(1,0,0,1,10.8149995803833,68.09700012207031)"><path fill="rgb(0,0,0)" fill-opacity="1" d=" M0,-2.503999948501587 C-1.3769999742507935,-2.503999948501587 -2.503999948501587,-1.3769999742507935 -2.503999948501587,0 C-2.503999948501587,1.3769999742507935 -1.3769999742507935,2.503999948501587 0,2.503999948501587 C1.3769999742507935,2.503999948501587 2.503999948501587,1.3769999742507935 2.503999948501587,0 C2.503999948501587,-1.3980000019073486 1.3769999742507935,-2.503999948501587 0,-2.503999948501587z"></path></g><g opacity="1" transform="matrix(1,0,0,1,10.8149995803833,87.68900299072266)"><path fill="rgb(0,0,0)" fill-opacity="1" d=" M-2.503999948501587,0 C-2.503999948501587,-1.3769999742507935 -1.3769999742507935,-2.503999948501587 0,-2.503999948501587 C1.3769999742507935,-2.503999948501587 2.503999948501587,-1.3769999742507935 2.503999948501587,0 C2.503999948501587,1.3769999742507935 1.3769999742507935,2.503999948501587 0,2.503999948501587 C-1.3769999742507935,2.503999948501587 -2.503999948501587,1.3769999742507935 -2.503999948501587,0z"></path></g><g opacity="1" transform="matrix(1,0,0,1,10.8149995803833,48.50400161743164)"><path fill="rgb(0,0,0)" fill-opacity="1" d=" M0,-2.503000020980835 C-1.3769999742507935,-2.503000020980835 -2.503999948501587,-1.3760000467300415 -2.503999948501587,0.0010000000474974513 C-2.503999948501587,1.378000020980835 -1.3769999742507935,2.503999948501587 0,2.503999948501587 C1.3769999742507935,2.503999948501587 2.503999948501587,1.378000020980835 2.503999948501587,0.0010000000474974513 C2.503999948501587,-1.3969999551773071 1.3769999742507935,-2.503000020980835 0,-2.503000020980835z"></path></g><g opacity="1" transform="matrix(1,0,0,1,10.8149995803833,58.290000915527344)"><path fill="rgb(0,0,0)" fill-opacity="1" d=" M-2.503999948501587,0 C-2.503999948501587,-1.3769999742507935 -1.3769999742507935,-2.503999948501587 0,-2.503999948501587 C1.3769999742507935,-2.503999948501587 2.503999948501587,-1.3769999742507935 2.503999948501587,0 C2.503999948501587,1.3769999742507935 1.3769999742507935,2.503999948501587 0,2.503999948501587 C-1.3769999742507935,2.503999948501587 -2.503999948501587,1.3769999742507935 -2.503999948501587,0z"></path></g><g opacity="1" transform="matrix(1,0,0,1,10.8149995803833,97.47599792480469)"><path fill="rgb(0,0,0)" fill-opacity="1" d=" M0,-2.503999948501587 C-0.6679999828338623,-2.503999948501587 -1.3140000104904175,-2.2330000400543213 -1.7730000019073486,-1.7740000486373901 C-2.2320001125335693,-1.315000057220459 -2.503999948501587,-0.6679999828338623 -2.503999948501587,0 C-2.503999948501587,0.6669999957084656 -2.2320001125335693,1.3140000104904175 -1.7730000019073486,1.7730000019073486 C-1.3140000104904175,2.2320001125335693 -0.6679999828338623,2.503999948501587 0,2.503999948501587 C0.6669999957084656,2.503999948501587 1.3140000104904175,2.2320001125335693 1.7730000019073486,1.7730000019073486 C2.2320001125335693,1.3140000104904175 2.503999948501587,0.6669999957084656 2.503999948501587,0 C2.503999948501587,-0.6679999828338623 2.2320001125335693,-1.315000057220459 1.7730000019073486,-1.7740000486373901 C1.2929999828338623,-2.2330000400543213 0.6470000147819519,-2.503999948501587 0,-2.503999948501587z"></path></g><g opacity="1" transform="matrix(1,0,0,1,40.1510009765625,97.47599792480469)"><path fill="rgb(0,0,0)" fill-opacity="1" d=" M-2.503999948501587,0 C-2.503999948501587,-1.3769999742507935 -1.3769999742507935,-2.503999948501587 0,-2.503999948501587 C1.3769999742507935,-2.503999948501587 2.503999948501587,-1.3769999742507935 2.503999948501587,0 C2.503999948501587,1.3769999742507935 1.3769999742507935,2.503999948501587 0,2.503999948501587 C-1.3769999742507935,2.503999948501587 -2.503999948501587,1.3769999742507935 -2.503999948501587,0z"></path></g><g opacity="1" transform="matrix(1,0,0,1,20.579999923706055,97.47599792480469)"><path fill="rgb(0,0,0)" fill-opacity="1" d=" M0,-2.503999948501587 C-1.3769999742507935,-2.503999948501587 -2.503999948501587,-1.3769999742507935 -2.503999948501587,0 C-2.503999948501587,1.3769999742507935 -1.3769999742507935,2.503999948501587 0,2.503999948501587 C1.3769999742507935,2.503999948501587 2.503999948501587,1.3769999742507935 2.503999948501587,0 C2.503999948501587,-1.3769999742507935 1.3980000019073486,-2.503999948501587 0,-2.503999948501587z"></path></g><g opacity="1" transform="matrix(1,0,0,1,30.365999221801758,97.47599792480469)"><path fill="rgb(0,0,0)" fill-opacity="1" d=" M-2.503999948501587,0 C-2.503999948501587,-1.3769999742507935 -1.378000020980835,-2.503999948501587 0,-2.503999948501587 C1.3769999742507935,-2.503999948501587 2.503999948501587,-1.3769999742507935 2.503999948501587,0 C2.503999948501587,1.3769999742507935 1.3769999742507935,2.503999948501587 0,2.503999948501587 C-1.378000020980835,2.503999948501587 -2.503999948501587,1.3769999742507935 -2.503999948501587,0z"></path></g></g><g mask="url(#__lottie_element_18)" filter="url(#__lottie_element_19)" transform="matrix(5.480000019073486,0,0,5.480000019073486,130,126)" opacity="1" style="display: block;"><g opacity="1" transform="matrix(1,0,0,1,69.59200286865234,58.30099868774414)"><path fill="rgb(0,0,0)" fill-opacity="1" d=" M19.593000411987305,-41.69900131225586 C20.990999221801758,-41.69900131225586 22.097000122070312,-40.573001861572266 22.097000122070312,-39.19499969482422 C22.097000122070312,-39.19499969482422 22.097000122070312,39.19499969482422 22.097000122070312,39.19499969482422 C22.097000122070312,40.571998596191406 20.969999313354492,41.69900131225586 19.593000411987305,41.69900131225586 C19.593000411987305,41.69900131225586 -19.591999053955078,41.69900131225586 -19.591999053955078,41.69900131225586 C-20.9689998626709,41.69900131225586 -22.09600067138672,40.571998596191406 -22.09600067138672,39.19499969482422 C-22.09600067138672,39.19499969482422 -22.09600067138672,-39.19499969482422 -22.09600067138672,-39.19499969482422 C-22.09600067138672,-40.573001861572266 -20.989999771118164,-41.69900131225586 -19.591999053955078,-41.69900131225586 C-19.591999053955078,-41.69900131225586 19.593000411987305,-41.69900131225586 19.593000411987305,-41.69900131225586z M-17.089000701904297,-36.69200134277344 C-17.089000701904297,-36.69200134277344 -17.089000701904297,36.67100143432617 -17.089000701904297,36.67100143432617 C-17.089000701904297,36.67100143432617 -8.407999992370605,36.67100143432617 -8.407999992370605,36.67100143432617 C-8.407999992370605,36.67100143432617 -8.407999992370605,36.69900131225586 -8.407999992370605,36.69900131225586 C-8.407999992370605,36.69900131225586 8.407999992370605,36.69900131225586 8.407999992370605,36.69900131225586 C8.407999992370605,36.69900131225586 8.407999992370605,36.67100143432617 8.407999992370605,36.67100143432617 C8.407999992370605,36.67100143432617 17.089000701904297,36.67100143432617 17.089000701904297,36.67100143432617 C17.089000701904297,36.67100143432617 17.089000701904297,-36.69200134277344 17.089000701904297,-36.69200134277344 C17.089000701904297,-36.69200134277344 -17.089000701904297,-36.69200134277344 -17.089000701904297,-36.69200134277344z"></path></g></g><g filter="url(#__lottie_element_16)" transform="matrix(5.367819786071777,0,0,5.321300029754639,511.89654541015625,124.52345275878906)" opacity="1" style="display: block;"><g opacity="1" transform="matrix(1,0,0,1,3,43.5)"><path fill="rgb(0,0,0)" fill-opacity="1" d=" M0,-43 C1.38100004196167,-43 2.5,-41.88100051879883 2.5,-40.5 C2.5,-40.5 2.5,40.5 2.5,40.5 C2.5,41.88100051879883 1.38100004196167,43 0,43 C-1.38100004196167,43 -2.5,41.88100051879883 -2.5,40.5 C-2.5,40.5 -2.5,-40.5 -2.5,-40.5 C-2.5,-41.88100051879883 -1.38100004196167,-43 0,-43z"></path></g></g><g filter="url(#__lottie_element_13)" transform="matrix(3.1496469974517822,4.344039440155029,-4.344039440155029,3.1496469974517822,529.39990234375,118.42394256591797)" opacity="1" style="display: block;"><g opacity="1" transform="matrix(1,0,0,1,3,17)"><path fill="rgb(0,0,0)" fill-opacity="1" d=" M0,-16.5 C1.38100004196167,-16.5 2.5,-15.380999565124512 2.5,-14 C2.5,-14 2.5,14 2.5,14 C2.5,15.380999565124512 1.38100004196167,16.5 0,16.5 C-1.38100004196167,16.5 -2.5,15.380999565124512 -2.5,14 C-2.5,14 -2.5,-14 -2.5,-14 C-2.5,-15.380999565124512 -1.38100004196167,-16.5 0,-16.5z"></path></g></g><g mask="url(#__lottie_element_9)" filter="url(#__lottie_element_10)" transform="matrix(3.1496469974517822,4.344039440155029,-4.344039440155029,3.1496469974517822,529.39990234375,549.1739501953125)" opacity="1" style="display: block;"><g opacity="1" transform="matrix(1,0,0,1,3,17)"><path fill="rgb(0,0,0)" fill-opacity="1" d=" M0,-16.5 C1.38100004196167,-16.5 2.5,-15.380999565124512 2.5,-14 C2.5,-14 2.5,14 2.5,14 C2.5,15.380999565124512 1.38100004196167,16.5 0,16.5 C-1.38100004196167,16.5 -2.5,15.380999565124512 -2.5,14 C-2.5,14 -2.5,-14 -2.5,-14 C-2.5,-15.380999565124512 -1.38100004196167,-16.5 0,-16.5z"></path></g></g></g></svg>