<svg xmlns="http://www.w3.org/2000/svg" viewBox="0 0 1000 1000" width="1000" height="1000" preserveAspectRatio="xMidYMid meet" style="width: 100%; height: 100%; transform: translate3d(0px, 0px, 0px);"><defs><clipPath id="__lottie_element_23"><rect width="1000" height="1000" x="0" y="0"></rect></clipPath><filter id="__lottie_element_26" filterUnits="objectBoundingBox" x="0%" y="0%" width="100%" height="100%"><feColorMatrix type="matrix" color-interpolation-filters="sRGB" values="0 0 0 0 1 0 0 0 0 1 0 0 0 0 1 0 0 0 1 0"></feColorMatrix></filter><filter id="__lottie_element_29" filterUnits="objectBoundingBox" x="0%" y="0%" width="100%" height="100%"><feColorMatrix type="matrix" color-interpolation-filters="sRGB" values="0 0 0 0 1 0 0 0 0 1 0 0 0 0 1 0 0 0 1 0"></feColorMatrix></filter><filter id="__lottie_element_32" filterUnits="objectBoundingBox" x="0%" y="0%" width="100%" height="100%"><feColorMatrix type="matrix" color-interpolation-filters="sRGB" values="0 0 0 0 1 0 0 0 0 1 0 0 0 0 1 0 0 0 1 0"></feColorMatrix></filter><filter id="__lottie_element_35" filterUnits="objectBoundingBox" x="0%" y="0%" width="100%" height="100%"><feColorMatrix type="matrix" color-interpolation-filters="sRGB" values="0 0 0 0 1 0 0 0 0 1 0 0 0 0 1 0 0 0 1 0"></feColorMatrix></filter><filter id="__lottie_element_38" filterUnits="objectBoundingBox" x="0%" y="0%" width="100%" height="100%"><feColorMatrix type="matrix" color-interpolation-filters="sRGB" values="1 0 0 0 0 0 1 0 0 0 0 0 1 0 0 0 0 0 1 0"></feColorMatrix></filter><filter id="__lottie_element_41" filterUnits="objectBoundingBox" x="0%" y="0%" width="100%" height="100%"><feColorMatrix type="matrix" color-interpolation-filters="sRGB" values="0 0 0 0 1 0 0 0 0 1 0 0 0 0 1 0 0 0 1 0"></feColorMatrix></filter><filter id="__lottie_element_44" filterUnits="objectBoundingBox" x="0%" y="0%" width="100%" height="100%"><feColorMatrix type="matrix" color-interpolation-filters="sRGB" values="0 0 0 0 1 0 0 0 0 1 0 0 0 0 1 0 0 0 1 0"></feColorMatrix></filter><filter id="__lottie_element_47" filterUnits="objectBoundingBox" x="0%" y="0%" width="100%" height="100%"><feColorMatrix type="matrix" color-interpolation-filters="sRGB" values="0 0 0 0 1 0 0 0 0 1 0 0 0 0 1 0 0 0 1 0"></feColorMatrix></filter><mask id="__lottie_element_49"><rect fill="#ffffff" width="1000" height="1000" transform="matrix(0.14124293625354767,0,0,0.14124293625354767,-13.841808319091797,-19.491315841674805)"></rect><path fill="#000000" clip-rule="nonzero" d=" M61.15800094604492,24.434999465942383 C61.15800094604492,24.434999465942383 60.875999450683594,24.434999465942383 60.875999450683594,24.434999465942383 C60.875999450683594,24.434999465942383 64.5479965209961,31.496999740600586 64.5479965209961,31.496999740600586 C64.5479965209961,31.496999740600586 64.40699768066406,30.367000579833984 64.40699768066406,30.367000579833984 C64.40699768066406,30.367000579833984 61.15800094604492,24.434999465942383 61.15800094604492,24.434999465942383" fill-opacity="1"></path><path fill="#000000" clip-rule="nonzero" d=" M60.16899871826172,25.565000534057617 C60.16899871826172,25.565000534057617 33.61600112915039,39.124000549316406 33.61600112915039,39.124000549316406 C33.61600112915039,39.124000549316406 36.722999572753906,45.47999954223633 36.722999572753906,45.47999954223633 C36.722999572753906,45.47999954223633 63.13600158691406,31.072999954223633 63.13600158691406,31.072999954223633 C63.13600158691406,31.072999954223633 60.16899871826172,25.565000534057617 60.16899871826172,25.565000534057617" fill-opacity="1"></path></mask><filter id="__lottie_element_50" filterUnits="objectBoundingBox" x="0%" y="0%" width="100%" height="100%"><feColorMatrix type="matrix" color-interpolation-filters="sRGB" values="0 0 0 0 1 0 0 0 0 1 0 0 0 0 1 0 0 0 1 0"></feColorMatrix></filter><mask id="__lottie_element_52"><rect fill="#ffffff" width="1000" height="1000" transform="matrix(0.14124293625354767,0,0,0.14124293625354767,-13.841808319091797,-19.491315841674805)"></rect><path fill="#000000" clip-rule="nonzero" d=" M61.15800094604492,24.434999465942383 C61.15800094604492,24.434999465942383 59.71914291381836,25.013427734375 59.71914291381836,25.013427734375 C59.71914291381836,25.013427734375 63.391143798828125,32.0754280090332 63.391143798828125,32.0754280090332 C63.391143798828125,32.0754280090332 64.40699768066406,30.367000579833984 64.40699768066406,30.367000579833984 C64.40699768066406,30.367000579833984 61.15800094604492,24.434999465942383 61.15800094604492,24.434999465942383" fill-opacity="1"></path><path fill="#000000" clip-rule="nonzero" d=" M36.582000732421875,37.85300064086914 C36.582000732421875,37.85300064086914 33.61600112915039,39.124000549316406 33.61600112915039,39.124000549316406 C33.61600112915039,39.124000549316406 36.722999572753906,45.47999954223633 36.722999572753906,45.47999954223633 C36.722999572753906,45.47999954223633 39.54800033569336,43.36199951171875 39.54800033569336,43.36199951171875 C39.54800033569336,43.36199951171875 36.582000732421875,37.85300064086914 36.582000732421875,37.85300064086914" fill-opacity="1"></path></mask><filter id="__lottie_element_53" filterUnits="objectBoundingBox" x="0%" y="0%" width="100%" height="100%"><feColorMatrix type="matrix" color-interpolation-filters="sRGB" values="0 0 0 0 1 0 0 0 0 1 0 0 0 0 1 0 0 0 1 0"></feColorMatrix></filter><clipPath id="__lottie_element_55"><path fill="#ffffff" clip-rule="nonzero" d=" M36.91999816894531,36.832000732421875 C36.91999816894531,36.832000732421875 36.72800064086914,36.152000427246094 36.72800064086914,36.152000427246094 C36.72800064086914,36.152000427246094 39.6870002746582,43.2130012512207 39.6870002746582,43.2130012512207 C39.6870002746582,43.2130012512207 40.02399826049805,43.470001220703125 40.02399826049805,43.470001220703125 C40.02399826049805,43.470001220703125 36.91999816894531,36.832000732421875 36.91999816894531,36.832000732421875" fill-opacity="1"></path><path fill="#ffffff" clip-rule="nonzero" d=" M65.29399871826172,22.961999893188477 C65.29399871826172,22.961999893188477 61.41154098510742,24.578227996826172 61.41154098510742,24.578227996826172 C61.41154098510742,24.578227996826172 64.1795425415039,30.959228515625 64.1795425415039,30.959228515625 C64.1795425415039,30.959228515625 68.06199645996094,29.343000411987305 68.06199645996094,29.343000411987305 C68.06199645996094,29.343000411987305 65.29399871826172,22.961999893188477 65.29399871826172,22.961999893188477" fill-opacity="1"></path></clipPath><filter id="__lottie_element_56" filterUnits="objectBoundingBox" x="0%" y="0%" width="100%" height="100%"><feColorMatrix type="matrix" color-interpolation-filters="sRGB" values="0 0 0 0 1 0 0 0 0 1 0 0 0 0 1 0 0 0 1 0"></feColorMatrix></filter><clipPath id="__lottie_element_58"><path fill="#ffffff" clip-rule="nonzero" d=" M36.91999816894531,36.832000732421875 C36.91999816894531,36.832000732421875 36.72800064086914,36.152000427246094 36.72800064086914,36.152000427246094 C36.72800064086914,36.152000427246094 39.6870002746582,43.2130012512207 39.6870002746582,43.2130012512207 C39.6870002746582,43.2130012512207 40.02399826049805,43.470001220703125 40.02399826049805,43.470001220703125 C40.02399826049805,43.470001220703125 36.91999816894531,36.832000732421875 36.91999816894531,36.832000732421875" fill-opacity="1"></path><path fill="#ffffff" clip-rule="nonzero" d=" M65.29399871826172,22.961999893188477 C65.29399871826172,22.961999893188477 61.948001861572266,24.31599998474121 61.948001861572266,24.31599998474121 C61.948001861572266,24.31599998474121 64.71600341796875,30.69700050354004 64.71600341796875,30.69700050354004 C64.71600341796875,30.69700050354004 68.06199645996094,29.343000411987305 68.06199645996094,29.343000411987305 C68.06199645996094,29.343000411987305 65.29399871826172,22.961999893188477 65.29399871826172,22.961999893188477" fill-opacity="1"></path></clipPath><filter id="__lottie_element_59" filterUnits="objectBoundingBox" x="0%" y="0%" width="100%" height="100%"><feColorMatrix type="matrix" color-interpolation-filters="sRGB" values="0 0 0 0 1 0 0 0 0 1 0 0 0 0 1 0 0 0 1 0"></feColorMatrix></filter><clipPath id="__lottie_element_61"><path fill="#ffffff" clip-rule="nonzero" d=" M35.18199920654297,53.78099822998047 C35.18199920654297,53.78099822998047 31.354999542236328,61.32899856567383 31.354999542236328,61.32899856567383 C31.354999542236328,61.32899856567383 31.731000900268555,61.38600158691406 31.731000900268555,61.38600158691406 C31.731000900268555,61.38600158691406 35.6150016784668,53.459999084472656 35.6150016784668,53.459999084472656 C35.6150016784668,53.459999084472656 35.18199920654297,53.78099822998047 35.18199920654297,53.78099822998047" fill-opacity="1"></path><path fill="#ffffff" clip-rule="nonzero" d=" M68.3479995727539,70.36100006103516 C68.3479995727539,70.36100006103516 64.41300201416016,77.98999786376953 64.41300201416016,77.98999786376953 C64.41300201416016,77.98999786376953 67.08999633789062,79.36599731445312 67.08999633789062,79.36599731445312 C67.08999633789062,79.36599731445312 70.9739990234375,71.44000244140625 70.9739990234375,71.44000244140625 C70.9739990234375,71.44000244140625 68.3479995727539,70.36100006103516 68.3479995727539,70.36100006103516" fill-opacity="1"></path></clipPath><filter id="__lottie_element_62" filterUnits="objectBoundingBox" x="0%" y="0%" width="100%" height="100%"><feColorMatrix type="matrix" color-interpolation-filters="sRGB" values="0 0 0 0 1 0 0 0 0 1 0 0 0 0 1 0 0 0 1 0"></feColorMatrix></filter><clipPath id="__lottie_element_64"><path fill="#ffffff" clip-rule="nonzero" d=" M35.18199920654297,53.78099822998047 C35.18199920654297,53.78099822998047 31.354999542236328,61.32899856567383 31.354999542236328,61.32899856567383 C31.354999542236328,61.32899856567383 31.731000900268555,61.38600158691406 31.731000900268555,61.38600158691406 C31.731000900268555,61.38600158691406 35.6150016784668,53.459999084472656 35.6150016784668,53.459999084472656 C35.6150016784668,53.459999084472656 35.18199920654297,53.78099822998047 35.18199920654297,53.78099822998047" fill-opacity="1"></path><path fill="#ffffff" clip-rule="nonzero" d=" M68.34600067138672,70.36000061035156 C68.34600067138672,70.36000061035156 64.41100311279297,77.98799896240234 64.41100311279297,77.98799896240234 C64.41100311279297,77.98799896240234 67.08999633789062,79.36599731445312 67.08999633789062,79.36599731445312 C67.08999633789062,79.36599731445312 70.9739990234375,71.44000244140625 70.9739990234375,71.44000244140625 C70.9739990234375,71.44000244140625 68.34600067138672,70.36000061035156 68.34600067138672,70.36000061035156" fill-opacity="1"></path></clipPath><filter id="__lottie_element_65" filterUnits="objectBoundingBox" x="0%" y="0%" width="100%" height="100%"><feColorMatrix type="matrix" color-interpolation-filters="sRGB" values="0 0 0 0 1 0 0 0 0 1 0 0 0 0 1 0 0 0 1 0"></feColorMatrix></filter><mask id="__lottie_element_67"><rect fill="#ffffff" width="1000" height="1000" transform="matrix(0.14124293625354767,0,0,0.14124293625354767,-13.841808319091797,-19.491737365722656)"></rect><path fill="#000000" clip-rule="nonzero" d=" M35.52299880981445,53.319000244140625 C35.52299880981445,53.319000244140625 31.63800048828125,60.73400115966797 31.63800048828125,60.73400115966797 C31.63800048828125,60.73400115966797 32.486000061035156,61.15800094604492 32.486000061035156,61.15800094604492 C32.486000061035156,61.15800094604492 35.80500030517578,54.30799865722656 35.80500030517578,54.30799865722656 C35.80500030517578,54.30799865722656 35.52299880981445,53.319000244140625 35.52299880981445,53.319000244140625" fill-opacity="1"></path><path fill="#000000" clip-rule="nonzero" d=" M35.16899871826172,53.95500183105469 C35.16899871826172,53.95500183105469 31.780000686645508,60.73400115966797 31.780000686645508,60.73400115966797 C31.780000686645508,60.73400115966797 69.06800079345703,79.37899780273438 69.06800079345703,79.37899780273438 C69.06800079345703,79.37899780273438 72.17500305175781,73.16400146484375 72.17500305175781,73.16400146484375 C72.17500305175781,73.16400146484375 35.16899871826172,53.95500183105469 35.16899871826172,53.95500183105469" fill-opacity="1"></path></mask><filter id="__lottie_element_68" filterUnits="objectBoundingBox" x="0%" y="0%" width="100%" height="100%"><feColorMatrix type="matrix" color-interpolation-filters="sRGB" values="0 0 0 0 1 0 0 0 0 1 0 0 0 0 1 0 0 0 1 0"></feColorMatrix></filter><mask id="__lottie_element_70"><rect fill="#ffffff" width="1000" height="1000" transform="matrix(0.14124293625354767,0,0,0.14124293625354767,-13.841808319091797,-19.491737365722656)"></rect><path fill="#000000" clip-rule="nonzero" d=" M35.52299880981445,53.319000244140625 C35.52299880981445,53.319000244140625 31.63800048828125,60.73400115966797 31.63800048828125,60.73400115966797 C31.63800048828125,60.73400115966797 32.486000061035156,61.15800094604492 32.486000061035156,61.15800094604492 C32.486000061035156,61.15800094604492 35.80500030517578,54.30799865722656 35.80500030517578,54.30799865722656 C35.80500030517578,54.30799865722656 35.52299880981445,53.319000244140625 35.52299880981445,53.319000244140625" fill-opacity="1"></path><path fill="#000000" clip-rule="nonzero" d=" M68.78500366210938,70.62100219726562 C68.78500366210938,70.62100219726562 65.3949966430664,77.4010009765625 65.3949966430664,77.4010009765625 C65.3949966430664,77.4010009765625 69.06800079345703,79.37899780273438 69.06800079345703,79.37899780273438 C69.06800079345703,79.37899780273438 72.17500305175781,73.16400146484375 72.17500305175781,73.16400146484375 C72.17500305175781,73.16400146484375 68.78500366210938,70.62100219726562 68.78500366210938,70.62100219726562" fill-opacity="1"></path></mask><filter id="__lottie_element_71" filterUnits="objectBoundingBox" x="0%" y="0%" width="100%" height="100%"><feColorMatrix type="matrix" color-interpolation-filters="sRGB" values="0 0 0 0 1 0 0 0 0 1 0 0 0 0 1 0 0 0 1 0"></feColorMatrix></filter></defs><g clip-path="url(#__lottie_element_23)"><g mask="url(#__lottie_element_70)" filter="url(#__lottie_element_71)" style="display: block;" transform="matrix(7.079999923706055,0,0,7.079999923706055,98,138.00149536132812)" opacity="1"><g opacity="1" transform="matrix(1,0,0,1,50,65.84400177001953)"><path fill="rgb(0,0,0)" fill-opacity="1" d=" M-14.331000328063965,-9.939000129699707 C-14.331000328063965,-9.939000129699707 16.573999404907227,5.513999938964844 16.573999404907227,5.513999938964844 C16.573999404907227,5.513999938964844 14.331000328063965,9.939000129699707 14.331000328063965,9.939000129699707 C14.331000328063965,9.939000129699707 -16.573999404907227,-5.514999866485596 -16.573999404907227,-5.514999866485596 C-16.573999404907227,-5.514999866485596 -14.331000328063965,-9.939000129699707 -14.331000328063965,-9.939000129699707z"></path></g></g><g mask="url(#__lottie_element_67)" filter="url(#__lottie_element_68)" transform="matrix(7.079999923706055,0,0,7.079999923706055,98,138.00149536132812)" opacity="1" style="display: none;"><g opacity="1" transform="matrix(1,0,0,1,50,65.84400177001953)"><path fill="rgb(0,0,0)" fill-opacity="1" d=" M-14.331000328063965,-9.939000129699707 C-14.331000328063965,-9.939000129699707 16.573999404907227,5.513999938964844 16.573999404907227,5.513999938964844 C16.573999404907227,5.513999938964844 14.331000328063965,9.939000129699707 14.331000328063965,9.939000129699707 C14.331000328063965,9.939000129699707 -16.573999404907227,-5.514999866485596 -16.573999404907227,-5.514999866485596 C-16.573999404907227,-5.514999866485596 -14.331000328063965,-9.939000129699707 -14.331000328063965,-9.939000129699707z"></path></g></g><g clip-path="url(#__lottie_element_64)" filter="url(#__lottie_element_65)" style="display: block;" transform="matrix(-4.413741588592529,5.989935874938965,-5.9474778175354,-4.382455825805664,1064.14404296875,369.9520568847656)" opacity="1"><g opacity="1" transform="matrix(1,0,0,1,50,65.84400177001953)"><path fill="rgb(0,0,0)" fill-opacity="1" d=" M-14.331000328063965,-9.939000129699707 C-14.331000328063965,-9.939000129699707 16.573999404907227,5.513999938964844 16.573999404907227,5.513999938964844 C16.573999404907227,5.513999938964844 14.331000328063965,9.939000129699707 14.331000328063965,9.939000129699707 C14.331000328063965,9.939000129699707 -16.573999404907227,-5.514999866485596 -16.573999404907227,-5.514999866485596 C-16.573999404907227,-5.514999866485596 -14.331000328063965,-9.939000129699707 -14.331000328063965,-9.939000129699707z"></path></g></g><g clip-path="url(#__lottie_element_61)" filter="url(#__lottie_element_62)" transform="matrix(-4.413741588592529,5.989935874938965,-5.9474778175354,-4.382455825805664,1064.14404296875,369.9520568847656)" opacity="1" style="display: none;"><g opacity="1" transform="matrix(1,0,0,1,50,65.84400177001953)"><path fill="rgb(0,0,0)" fill-opacity="1" d=" M-14.331000328063965,-9.939000129699707 C-14.331000328063965,-9.939000129699707 16.573999404907227,5.513999938964844 16.573999404907227,5.513999938964844 C16.573999404907227,5.513999938964844 14.331000328063965,9.939000129699707 14.331000328063965,9.939000129699707 C14.331000328063965,9.939000129699707 -16.573999404907227,-5.514999866485596 -16.573999404907227,-5.514999866485596 C-16.573999404907227,-5.514999866485596 -14.331000328063965,-9.939000129699707 -14.331000328063965,-9.939000129699707z"></path></g></g><g clip-path="url(#__lottie_element_58)" filter="url(#__lottie_element_59)" style="display: block;" transform="matrix(4.29874849319458,5.62558126449585,-5.62558126449585,4.29874849319458,426.4923095703125,174.973876953125)" opacity="1"><g opacity="1" transform="matrix(1,0,0,1,58.7859992980957,29.618999481201172)"><path fill="rgb(0,0,0)" fill-opacity="1" d=" M-0.009999999776482582,2.6440000534057617 C0.36000001430511475,2.6440000534057617 0.7300000190734863,2.562000036239624 1.100000023841858,2.377000093460083 C2.313999891281128,1.7589999437332153 2.809000015258789,0.27799999713897705 2.2130000591278076,-0.9359999895095825 C1.5950000286102295,-2.1500000953674316 0.11299999803304672,-2.6440000534057617 -1.1019999980926514,-2.046999931335449 C-2.315999984741211,-1.4299999475479126 -2.809000015258789,0.052000001072883606 -2.2119998931884766,1.2660000324249268 C-1.8009999990463257,2.130000114440918 -0.9359999895095825,2.6440000534057617 -0.009999999776482582,2.6440000534057617z"></path></g><g opacity="1" transform="matrix(1,0,0,1,41.2760009765625,38.36399841308594)"><path fill="rgb(0,0,0)" fill-opacity="1" d=" M-0.009999999776482582,2.6440000534057617 C0.3610000014305115,2.6440000534057617 0.7300000190734863,2.561000108718872 1.100000023841858,2.375999927520752 C2.313999891281128,1.7589999437332153 2.809000015258789,0.27799999713897705 2.2119998931884766,-0.9359999895095825 C1.5950000286102295,-2.1500000953674316 0.11400000005960464,-2.6440000534057617 -1.100000023841858,-2.046999931335449 C-2.313999891281128,-1.4299999475479126 -2.809000015258789,0.050999999046325684 -2.2130000591278076,1.2649999856948853 C-1.8009999990463257,2.1500000953674316 -0.9150000214576721,2.6440000534057617 -0.009999999776482582,2.6440000534057617z"></path></g><g opacity="1" transform="matrix(1,0,0,1,50,33.98099899291992)"><path fill="rgb(0,0,0)" fill-opacity="1" d=" M0.009999999776482582,2.6440000534057617 C0.38100001215934753,2.6440000534057617 0.7509999871253967,2.561000108718872 1.100000023841858,2.375999927520752 C2.313999891281128,1.7589999437332153 2.809000015258789,0.27799999713897705 2.2130000591278076,-0.9359999895095825 C1.5950000286102295,-2.1500000953674316 0.11400000005960464,-2.6440000534057617 -1.100000023841858,-2.046999931335449 C-2.313999891281128,-1.4299999475479126 -2.809000015258789,0.052000001072883606 -2.2119998931884766,1.2660000324249268 C-1.7599999904632568,2.1500000953674316 -0.8949999809265137,2.6440000534057617 0.009999999776482582,2.6440000534057617z"></path></g></g><g clip-path="url(#__lottie_element_55)" filter="url(#__lottie_element_56)" transform="matrix(4.29874849319458,5.62558126449585,-5.62558126449585,4.29874849319458,426.4923095703125,174.973876953125)" opacity="1" style="display: none;"><g opacity="1" transform="matrix(1,0,0,1,58.7859992980957,29.618999481201172)"><path fill="rgb(0,0,0)" fill-opacity="1" d=" M-0.009999999776482582,2.6440000534057617 C0.36000001430511475,2.6440000534057617 0.7300000190734863,2.562000036239624 1.100000023841858,2.377000093460083 C2.313999891281128,1.7589999437332153 2.809000015258789,0.27799999713897705 2.2130000591278076,-0.9359999895095825 C1.5950000286102295,-2.1500000953674316 0.11299999803304672,-2.6440000534057617 -1.1019999980926514,-2.046999931335449 C-2.315999984741211,-1.4299999475479126 -2.809000015258789,0.052000001072883606 -2.2119998931884766,1.2660000324249268 C-1.8009999990463257,2.130000114440918 -0.9359999895095825,2.6440000534057617 -0.009999999776482582,2.6440000534057617z"></path></g><g opacity="1" transform="matrix(1,0,0,1,41.2760009765625,38.36399841308594)"><path fill="rgb(0,0,0)" fill-opacity="1" d=" M-0.009999999776482582,2.6440000534057617 C0.3610000014305115,2.6440000534057617 0.7300000190734863,2.561000108718872 1.100000023841858,2.375999927520752 C2.313999891281128,1.7589999437332153 2.809000015258789,0.27799999713897705 2.2119998931884766,-0.9359999895095825 C1.5950000286102295,-2.1500000953674316 0.11400000005960464,-2.6440000534057617 -1.100000023841858,-2.046999931335449 C-2.313999891281128,-1.4299999475479126 -2.809000015258789,0.050999999046325684 -2.2130000591278076,1.2649999856948853 C-1.8009999990463257,2.1500000953674316 -0.9150000214576721,2.6440000534057617 -0.009999999776482582,2.6440000534057617z"></path></g><g opacity="1" transform="matrix(1,0,0,1,50,33.98099899291992)"><path fill="rgb(0,0,0)" fill-opacity="1" d=" M0.009999999776482582,2.6440000534057617 C0.38100001215934753,2.6440000534057617 0.7509999871253967,2.561000108718872 1.100000023841858,2.375999927520752 C2.313999891281128,1.7589999437332153 2.809000015258789,0.27799999713897705 2.2130000591278076,-0.9359999895095825 C1.5950000286102295,-2.1500000953674316 0.11400000005960464,-2.6440000534057617 -1.100000023841858,-2.046999931335449 C-2.313999891281128,-1.4299999475479126 -2.809000015258789,0.052000001072883606 -2.2119998931884766,1.2660000324249268 C-1.7599999904632568,2.1500000953674316 -0.8949999809265137,2.6440000534057617 0.009999999776482582,2.6440000534057617z"></path></g></g><g mask="url(#__lottie_element_52)" filter="url(#__lottie_element_53)" style="display: block;" transform="matrix(7.079999923706055,0,0,7.079999923706055,98,137.99851989746094)" opacity="1"><g opacity="1" transform="matrix(1,0,0,1,58.7859992980957,29.618999481201172)"><path fill="rgb(0,0,0)" fill-opacity="1" d=" M-0.009999999776482582,2.6440000534057617 C0.36000001430511475,2.6440000534057617 0.7300000190734863,2.562000036239624 1.100000023841858,2.377000093460083 C2.313999891281128,1.7589999437332153 2.809000015258789,0.27799999713897705 2.2130000591278076,-0.9359999895095825 C1.5950000286102295,-2.1500000953674316 0.11299999803304672,-2.6440000534057617 -1.1019999980926514,-2.046999931335449 C-2.315999984741211,-1.4299999475479126 -2.809000015258789,0.052000001072883606 -2.2119998931884766,1.2660000324249268 C-1.8009999990463257,2.130000114440918 -0.9359999895095825,2.6440000534057617 -0.009999999776482582,2.6440000534057617z"></path></g><g opacity="1" transform="matrix(1,0,0,1,41.2760009765625,38.36399841308594)"><path fill="rgb(0,0,0)" fill-opacity="1" d=" M-0.009999999776482582,2.6440000534057617 C0.3610000014305115,2.6440000534057617 0.7300000190734863,2.561000108718872 1.100000023841858,2.375999927520752 C2.313999891281128,1.7589999437332153 2.809000015258789,0.27799999713897705 2.2119998931884766,-0.9359999895095825 C1.5950000286102295,-2.1500000953674316 0.11400000005960464,-2.6440000534057617 -1.100000023841858,-2.046999931335449 C-2.313999891281128,-1.4299999475479126 -2.809000015258789,0.050999999046325684 -2.2130000591278076,1.2649999856948853 C-1.8009999990463257,2.1500000953674316 -0.9150000214576721,2.6440000534057617 -0.009999999776482582,2.6440000534057617z"></path></g><g opacity="1" transform="matrix(1,0,0,1,50,33.98099899291992)"><path fill="rgb(0,0,0)" fill-opacity="1" d=" M0.009999999776482582,2.6440000534057617 C0.38100001215934753,2.6440000534057617 0.7509999871253967,2.561000108718872 1.100000023841858,2.375999927520752 C2.313999891281128,1.7589999437332153 2.809000015258789,0.27799999713897705 2.2130000591278076,-0.9359999895095825 C1.5950000286102295,-2.1500000953674316 0.11400000005960464,-2.6440000534057617 -1.100000023841858,-2.046999931335449 C-2.313999891281128,-1.4299999475479126 -2.809000015258789,0.052000001072883606 -2.2119998931884766,1.2660000324249268 C-1.7599999904632568,2.1500000953674316 -0.8949999809265137,2.6440000534057617 0.009999999776482582,2.6440000534057617z"></path></g></g><g mask="url(#__lottie_element_49)" filter="url(#__lottie_element_50)" transform="matrix(7.079999923706055,0,0,7.079999923706055,98,137.99851989746094)" opacity="1" style="display: none;"><g opacity="1" transform="matrix(1,0,0,1,58.7859992980957,29.618999481201172)"><path fill="rgb(0,0,0)" fill-opacity="1" d=" M-0.009999999776482582,2.6440000534057617 C0.36000001430511475,2.6440000534057617 0.7300000190734863,2.562000036239624 1.100000023841858,2.377000093460083 C2.313999891281128,1.7589999437332153 2.809000015258789,0.27799999713897705 2.2130000591278076,-0.9359999895095825 C1.5950000286102295,-2.1500000953674316 0.11299999803304672,-2.6440000534057617 -1.1019999980926514,-2.046999931335449 C-2.315999984741211,-1.4299999475479126 -2.809000015258789,0.052000001072883606 -2.2119998931884766,1.2660000324249268 C-1.8009999990463257,2.130000114440918 -0.9359999895095825,2.6440000534057617 -0.009999999776482582,2.6440000534057617z"></path></g><g opacity="1" transform="matrix(1,0,0,1,41.2760009765625,38.36399841308594)"><path fill="rgb(0,0,0)" fill-opacity="1" d=" M-0.009999999776482582,2.6440000534057617 C0.3610000014305115,2.6440000534057617 0.7300000190734863,2.561000108718872 1.100000023841858,2.375999927520752 C2.313999891281128,1.7589999437332153 2.809000015258789,0.27799999713897705 2.2119998931884766,-0.9359999895095825 C1.5950000286102295,-2.1500000953674316 0.11400000005960464,-2.6440000534057617 -1.100000023841858,-2.046999931335449 C-2.313999891281128,-1.4299999475479126 -2.809000015258789,0.050999999046325684 -2.2130000591278076,1.2649999856948853 C-1.8009999990463257,2.1500000953674316 -0.9150000214576721,2.6440000534057617 -0.009999999776482582,2.6440000534057617z"></path></g><g opacity="1" transform="matrix(1,0,0,1,50,33.98099899291992)"><path fill="rgb(0,0,0)" fill-opacity="1" d=" M0.009999999776482582,2.6440000534057617 C0.38100001215934753,2.6440000534057617 0.7509999871253967,2.561000108718872 1.100000023841858,2.375999927520752 C2.313999891281128,1.7589999437332153 2.809000015258789,0.27799999713897705 2.2130000591278076,-0.9359999895095825 C1.5950000286102295,-2.1500000953674316 0.11400000005960464,-2.6440000534057617 -1.100000023841858,-2.046999931335449 C-2.313999891281128,-1.4299999475479126 -2.809000015258789,0.052000001072883606 -2.2119998931884766,1.2660000324249268 C-1.7599999904632568,2.1500000953674316 -0.8949999809265137,2.6440000534057617 0.009999999776482582,2.6440000534057617z"></path></g></g><g filter="url(#__lottie_element_47)" transform="matrix(2.359999895095825,0,0,2.359999895095825,140,376)" opacity="1" style="display: none;"><g opacity="1" transform="matrix(1,0,0,1,50,50)"><path fill="rgb(94,18,18)" fill-opacity="1" d=" M0,47.04499816894531 C25.95400047302246,47.04499816894531 47.04499816894531,25.95400047302246 47.04499816894531,0 C47.04499816894531,-25.95400047302246 25.95400047302246,-47.04499816894531 0,-47.04499816894531 C-25.95400047302246,-47.04499816894531 -47.04499816894531,-25.95400047302246 -47.04499816894531,0 C-46.992000579833984,25.95400047302246 -25.900999069213867,47.04499816894531 0,47.04499816894531z M0,-34.305999755859375 C18.923999786376953,-34.305999755859375 34.358001708984375,-18.923999786376953 34.358001708984375,0.052000001072883606 C34.358001708984375,19.02899932861328 18.976999282836914,34.4109992980957 0,34.4109992980957 C-18.976999282836914,34.4109992980957 -34.35900115966797,19.02899932861328 -34.35900115966797,0.052000001072883606 C-34.35900115966797,-18.923999786376953 -18.923999786376953,-34.305999755859375 0,-34.305999755859375z"></path></g></g><g filter="url(#__lottie_element_44)" transform="matrix(2.359999895095825,0,0,2.359999895095825,530,150)" opacity="1" style="display: none;"><g opacity="1" transform="matrix(1,0,0,1,50,50)"><path fill="rgb(94,18,18)" fill-opacity="1" d=" M0,47.04499816894531 C25.95400047302246,47.04499816894531 47.04499816894531,25.95400047302246 47.04499816894531,0 C47.04499816894531,-25.95400047302246 25.95400047302246,-47.04499816894531 0,-47.04499816894531 C-25.95400047302246,-47.04499816894531 -47.04499816894531,-25.95400047302246 -47.04499816894531,0 C-46.992000579833984,25.95400047302246 -25.900999069213867,47.04499816894531 0,47.04499816894531z M0,-34.305999755859375 C18.923999786376953,-34.305999755859375 34.358001708984375,-18.923999786376953 34.358001708984375,0.052000001072883606 C34.358001708984375,19.02899932861328 18.976999282836914,34.4109992980957 0,34.4109992980957 C-18.976999282836914,34.4109992980957 -34.35900115966797,19.02899932861328 -34.35900115966797,0.052000001072883606 C-34.35900115966797,-18.923999786376953 -18.923999786376953,-34.305999755859375 0,-34.305999755859375z"></path></g></g><g filter="url(#__lottie_element_41)" style="display: none;" transform="matrix(2.359999895095825,0,0,2.359999895095825,530,150)" opacity="1"><g opacity="1" transform="matrix(1,0,0,1,50,50)"><path fill="rgb(94,18,18)" fill-opacity="1" d=" M0,47.04499816894531 C25.95400047302246,47.04499816894531 47.04499816894531,25.95400047302246 47.04499816894531,0 C47.04499816894531,-25.95400047302246 25.95400047302246,-47.04499816894531 0,-47.04499816894531 C-25.95400047302246,-47.04499816894531 -47.04499816894531,-25.95400047302246 -47.04499816894531,0 C-46.992000579833984,25.95400047302246 -25.900999069213867,47.04499816894531 0,47.04499816894531z M0,-34.305999755859375 C18.923999786376953,-34.305999755859375 34.358001708984375,-18.923999786376953 34.358001708984375,0.052000001072883606 C34.358001708984375,19.02899932861328 18.976999282836914,34.4109992980957 0,34.4109992980957 C-18.976999282836914,34.4109992980957 -34.35900115966797,19.02899932861328 -34.35900115966797,0.052000001072883606 C-34.35900115966797,-18.923999786376953 -18.923999786376953,-34.305999755859375 0,-34.305999755859375z"></path></g></g><g filter="url(#__lottie_element_38)" style="display: none;"><g><path></path></g></g><g filter="url(#__lottie_element_35)" style="display: block;" transform="matrix(2.359999895095825,0,0,2.359999895095825,140,376)" opacity="1"><g opacity="1" transform="matrix(1,0,0,1,50,50)"><path fill="rgb(94,18,18)" fill-opacity="1" d=" M0,47.04499816894531 C25.95400047302246,47.04499816894531 47.04499816894531,25.95400047302246 47.04499816894531,0 C47.04499816894531,-25.95400047302246 25.95400047302246,-47.04499816894531 0,-47.04499816894531 C-25.95400047302246,-47.04499816894531 -47.04499816894531,-25.95400047302246 -47.04499816894531,0 C-46.992000579833984,25.95400047302246 -25.900999069213867,47.04499816894531 0,47.04499816894531z M0,-34.305999755859375 C18.923999786376953,-34.305999755859375 34.358001708984375,-18.923999786376953 34.358001708984375,0.052000001072883606 C34.358001708984375,19.02899932861328 18.976999282836914,34.4109992980957 0,34.4109992980957 C-18.976999282836914,34.4109992980957 -34.35900115966797,19.02899932861328 -34.35900115966797,0.052000001072883606 C-34.35900115966797,-18.923999786376953 -18.923999786376953,-34.305999755859375 0,-34.305999755859375z"></path></g></g><g filter="url(#__lottie_element_32)" transform="matrix(2.359999895095825,0,0,2.359999895095825,530,584)" opacity="1" style="display: none;"><g opacity="1" transform="matrix(1,0,0,1,50,50)"><path fill="rgb(94,18,18)" fill-opacity="1" d=" M0,47.04499816894531 C25.95400047302246,47.04499816894531 47.04499816894531,25.95400047302246 47.04499816894531,0 C47.04499816894531,-25.95400047302246 25.95400047302246,-47.04499816894531 0,-47.04499816894531 C-25.95400047302246,-47.04499816894531 -47.04499816894531,-25.95400047302246 -47.04499816894531,0 C-46.992000579833984,25.95400047302246 -25.900999069213867,47.04499816894531 0,47.04499816894531z M0,-34.305999755859375 C18.923999786376953,-34.305999755859375 34.358001708984375,-18.923999786376953 34.358001708984375,0.052000001072883606 C34.358001708984375,19.02899932861328 18.976999282836914,34.4109992980957 0,34.4109992980957 C-18.976999282836914,34.4109992980957 -34.35900115966797,19.02899932861328 -34.35900115966797,0.052000001072883606 C-34.35900115966797,-18.923999786376953 -18.923999786376953,-34.305999755859375 0,-34.305999755859375z"></path></g></g><g filter="url(#__lottie_element_29)" style="display: block;" transform="matrix(2.359999895095825,0,0,2.359999895095825,530.06298828125,584.06298828125)" opacity="1"><g opacity="1" transform="matrix(1,0,0,1,50,50)"><path fill="rgb(94,18,18)" fill-opacity="1" d=" M0,47.04499816894531 C25.95400047302246,47.04499816894531 47.04499816894531,25.95400047302246 47.04499816894531,0 C47.04499816894531,-25.95400047302246 25.95400047302246,-47.04499816894531 0,-47.04499816894531 C-25.95400047302246,-47.04499816894531 -47.04499816894531,-25.95400047302246 -47.04499816894531,0 C-46.992000579833984,25.95400047302246 -25.900999069213867,47.04499816894531 0,47.04499816894531z M0,-34.305999755859375 C18.923999786376953,-34.305999755859375 34.358001708984375,-18.923999786376953 34.358001708984375,0.052000001072883606 C34.358001708984375,19.02899932861328 18.976999282836914,34.4109992980957 0,34.4109992980957 C-18.976999282836914,34.4109992980957 -34.35900115966797,19.02899932861328 -34.35900115966797,0.052000001072883606 C-34.35900115966797,-18.923999786376953 -18.923999786376953,-34.305999755859375 0,-34.305999755859375z"></path></g></g><g filter="url(#__lottie_element_26)" style="display: block;" transform="matrix(2.359999895095825,0,0,2.359999895095825,529.625,149.25)" opacity="1"><g opacity="1" transform="matrix(1,0,0,1,50,50)"><path fill="rgb(94,18,18)" fill-opacity="1" d=" M0,47.04499816894531 C25.95400047302246,47.04499816894531 47.04499816894531,25.95400047302246 47.04499816894531,0 C47.04499816894531,-25.95400047302246 25.95400047302246,-47.04499816894531 0,-47.04499816894531 C-25.95400047302246,-47.04499816894531 -47.04499816894531,-25.95400047302246 -47.04499816894531,0 C-46.992000579833984,25.95400047302246 -25.900999069213867,47.04499816894531 0,47.04499816894531z M0,-34.305999755859375 C18.923999786376953,-34.305999755859375 34.358001708984375,-18.923999786376953 34.358001708984375,0.052000001072883606 C34.358001708984375,19.02899932861328 18.976999282836914,34.4109992980957 0,34.4109992980957 C-18.976999282836914,34.4109992980957 -34.35900115966797,19.02899932861328 -34.35900115966797,0.052000001072883606 C-34.35900115966797,-18.923999786376953 -18.923999786376953,-34.305999755859375 0,-34.305999755859375z"></path></g></g></g></svg>