<svg xmlns="http://www.w3.org/2000/svg" viewBox="0 0 1000 1000" width="1000" height="1000" preserveAspectRatio="xMidYMid meet" style="width: 100%; height: 100%; transform: translate3d(0px, 0px, 0px);"><defs><clipPath id="__lottie_element_112"><rect width="1000" height="1000" x="0" y="0"></rect></clipPath><filter id="__lottie_element_115" filterUnits="objectBoundingBox" x="0%" y="0%" width="100%" height="100%"><feColorMatrix type="matrix" color-interpolation-filters="sRGB" values="0 0 0 0 1 0 0 0 0 1 0 0 0 0 1 0 0 0 1 0"></feColorMatrix></filter><clipPath id="__lottie_element_117"><path fill="#ffffff" clip-rule="nonzero" d=" M63.75299835205078,29.816999435424805 C63.75299835205078,29.816999435424805 39.26900100708008,29.520999908447266 39.26900100708008,29.520999908447266 C39.26900100708008,29.520999908447266 29.489999771118164,30.937000274658203 29.489999771118164,30.937000274658203 C29.489999771118164,30.937000274658203 13.687999725341797,51.810001373291016 13.687999725341797,51.810001373291016 C13.687999725341797,51.810001373291016 5.769000053405762,50 5.769000053405762,50 C5.769000053405762,50 13.234999656677246,58.59700012207031 13.234999656677246,58.59700012207031 C13.234999656677246,58.59700012207031 24.54800033569336,66.96800231933594 24.54800033569336,66.96800231933594 C24.54800033569336,66.96800231933594 40.3849983215332,73.52899932861328 40.3849983215332,73.52899932861328 C40.3849983215332,73.52899932861328 60.74700164794922,74.20800018310547 60.74700164794922,74.20800018310547 C60.74700164794922,74.20800018310547 73.86900329589844,68.32599639892578 73.86900329589844,68.32599639892578 C73.86900329589844,68.32599639892578 85.18099975585938,60.180999755859375 85.18099975585938,60.180999755859375 C85.18099975585938,60.180999755859375 94.45700073242188,50.904998779296875 94.45700073242188,50.904998779296875 C94.45700073242188,50.904998779296875 82.01399993896484,52.375999450683594 82.01399993896484,52.375999450683594 C82.01399993896484,52.375999450683594 71.36299896240234,30.906999588012695 71.36299896240234,30.906999588012695 C71.36299896240234,30.906999588012695 63.75299835205078,29.816999435424805 63.75299835205078,29.816999435424805" fill-opacity="1"></path></clipPath><filter id="__lottie_element_118" filterUnits="objectBoundingBox" x="0%" y="0%" width="100%" height="100%"><feColorMatrix type="matrix" color-interpolation-filters="sRGB" values="0 0 0 0 1 0 0 0 0 1 0 0 0 0 1 0 0 0 1 0"></feColorMatrix></filter><filter id="__lottie_element_121" filterUnits="objectBoundingBox" x="0%" y="0%" width="100%" height="100%"><feColorMatrix type="matrix" color-interpolation-filters="sRGB" values="0 0 0 0 1 0 0 0 0 1 0 0 0 0 1 0 0 0 1 0"></feColorMatrix></filter></defs><g clip-path="url(#__lottie_element_112)"><g filter="url(#__lottie_element_121)" transform="matrix(8.84000015258789,0,0,8.84000015258789,58,58)" opacity="1" style="display: block;"><g opacity="1" transform="matrix(1,0,0,1,50,63.645999908447266)"><path fill="rgb(0,0,0)" fill-opacity="1" d=" M-0.6759999990463257,16.145999908447266 C-0.44999998807907104,16.145999908447266 -0.22499999403953552,16.145000457763672 0,16.142000198364258 C0.22599999606609344,16.145000457763672 0.45100000500679016,16.145999908447266 0.6769999861717224,16.145999908447266 C17.80699920654297,16.145999908447266 34.21900177001953,6.639999866485596 49.444000244140625,-12.067999839782715 C49.816001892089844,-12.524999618530273 50,-13.076000213623047 50,-13.62600040435791 C50,-14.13599967956543 49.840999603271484,-14.647000312805176 49.5260009765625,-15.081000328063965 C48.5,-16.14699935913086 46.777000427246094,-15.968000411987305 44.38199996948242,-13.687999725341797 C30.490999221801758,2.8480000495910645 15.79800033569336,11.229999542236328 0.6769999861717224,11.229999542236328 C0.44999998807907104,11.229999542236328 0.22499999403953552,11.227999687194824 0,11.223999977111816 C-0.2240000069141388,11.227999687194824 -0.44999998807907104,11.229999542236328 -0.6759999990463257,11.229999542236328 C-15.79800033569336,11.229999542236328 -30.48900032043457,2.8480000495910645 -44.38199996948242,-13.687999725341797 C-46.777000427246094,-15.968000411987305 -48.5,-16.14699935913086 -49.525001525878906,-15.081000328063965 C-49.840999603271484,-14.647000312805176 -50,-14.13599967956543 -50,-13.62600040435791 C-50,-13.076000213623047 -49.814998626708984,-12.524999618530273 -49.44300079345703,-12.067999839782715 C-34.21900177001953,6.639999866485596 -17.805999755859375,16.145999908447266 -0.6759999990463257,16.145999908447266z"></path></g></g><g clip-path="url(#__lottie_element_117)" filter="url(#__lottie_element_118)" transform="matrix(8.84000015258789,0,0,8.84000015258789,58,58)" opacity="1" style="display: block;"><g opacity="1" transform="matrix(1,0,0,1,45.185001373291016,35.051998138427734)"><path fill="rgb(0,0,0)" fill-opacity="1" d=" M0,2.61299991607666 C0.2460000067949295,2.61299991607666 0.5120000243186951,2.572000026702881 0.7580000162124634,2.490000009536743 C2.0490000247955322,2.0799999237060547 2.7660000324249268,0.6859999895095825 2.3359999656677246,-0.6050000190734863 C1.9259999990463257,-1.8960000276565552 0.5329999923706055,-2.61299991607666 -0.7580000162124634,-2.181999921798706 C-2.0490000247955322,-1.7730000019073486 -2.7660000324249268,-0.3779999911785126 -2.3359999656677246,0.9120000004768372 C-1.9869999885559082,1.9570000171661377 -1.0240000486373901,2.61299991607666 0,2.61299991607666z"></path></g><g opacity="1" transform="matrix(1,0,0,1,62.58100128173828,40.696998596191406)"><path fill="rgb(0,0,0)" fill-opacity="1" d=" M0,2.622999906539917 C0.492000013589859,2.622999906539917 1.003999948501587,2.4590001106262207 1.4550000429153442,2.1519999504089355 C2.562000036239624,1.3519999980926514 2.7869999408721924,-0.1850000023841858 1.9869999885559082,-1.2910000085830688 C1.187999963760376,-2.3980000019073486 -0.3490000069141388,-2.622999906539917 -1.4550000429153442,-1.8240000009536743 C-2.562000036239624,-1.0240000486373901 -2.7869999408721924,0.5120000243186951 -1.9869999885559082,1.61899995803833 C-1.496000051498413,2.2739999294281006 -0.7580000162124634,2.622999906539917 0,2.622999906539917z"></path></g><g opacity="1" transform="matrix(1,0,0,1,37.40800094604492,40.698001861572266)"><path fill="rgb(0,0,0)" fill-opacity="1" d=" M-1.4450000524520874,2.1510000228881836 C-1.0149999856948853,2.4590001106262207 -0.5019999742507935,2.622999906539917 -0.009999999776482582,2.622999906539917 C0.7480000257492065,2.622999906539917 1.50600004196167,2.2739999294281006 1.9769999980926514,1.6180000305175781 C2.7760000228881836,0.5120000243186951 2.5309998989105225,-1.024999976158142 1.4450000524520874,-1.8240000009536743 C0.33899998664855957,-2.622999906539917 -1.1979999542236328,-2.377000093460083 -1.996999979019165,-1.2910000085830688 C-2.7760000228881836,-0.20499999821186066 -2.5309998989105225,1.3519999980926514 -1.4450000524520874,2.1510000228881836z"></path></g><g opacity="1" transform="matrix(1,0,0,1,54.80500030517578,35.0629997253418)"><path fill="rgb(0,0,0)" fill-opacity="1" d=" M-0.7480000257492065,2.4790000915527344 C-0.5019999742507935,2.561000108718872 -0.23499999940395355,2.6019999980926514 0.010999999940395355,2.6019999980926514 C1.055999994277954,2.6019999980926514 2.0190000534057617,1.9470000267028809 2.3469998836517334,0.9020000100135803 C2.75600004196167,-0.3889999985694885 2.059999942779541,-1.7829999923706055 0.7689999938011169,-2.193000078201294 C-0.5220000147819519,-2.6029999256134033 -1.9160000085830688,-1.906000018119812 -2.325000047683716,-0.6150000095367432 C-2.75600004196167,0.6759999990463257 -2.0390000343322754,2.0480000972747803 -0.7480000257492065,2.4790000915527344z"></path></g><g opacity="1" transform="matrix(1,0,0,1,50,57.7760009765625)"><path fill="rgb(0,0,0)" fill-opacity="1" d=" M15.552000045776367,-10.234999656677246 C14.199999809265137,-10.234999656677246 13.093999862670898,-9.128999710083008 13.093999862670898,-7.776000022888184 C13.093999862670898,-0.5630000233650208 7.2129998207092285,5.317999839782715 0,5.317999839782715 C-7.2129998207092285,5.317999839782715 -13.093000411987305,-0.5630000233650208 -13.093000411987305,-7.776000022888184 C-13.093000411987305,-9.128999710083008 -14.199999809265137,-10.234999656677246 -15.552000045776367,-10.234999656677246 C-16.905000686645508,-10.234999656677246 -18.01099967956543,-9.128999710083008 -18.01099967956543,-7.776000022888184 C-18.01099967956543,2.1610000133514404 -9.937999725341797,10.234999656677246 0,10.234999656677246 C9.937999725341797,10.234999656677246 18.01099967956543,2.1610000133514404 18.01099967956543,-7.776000022888184 C18.01099967956543,-9.128999710083008 16.905000686645508,-10.234999656677246 15.552000045776367,-10.234999656677246z"></path></g></g><g filter="url(#__lottie_element_115)" transform="matrix(8.8100004196167,0,0,8.84000015258789,59.499969482421875,58)" opacity="1" style="display: block;"><g opacity="1" transform="matrix(1,0,0,1,50,36.354000091552734)"><path fill="rgb(0,0,0)" fill-opacity="1" d=" M-0.6759999990463257,-16.145999908447266 C-0.44999998807907104,-16.145999908447266 -0.22499999403953552,-16.145000457763672 0,-16.141000747680664 C0.22599999606609344,-16.145000457763672 0.45100000500679016,-16.145999908447266 0.6769999861717224,-16.145999908447266 C17.80699920654297,-16.145999908447266 34.21900177001953,-6.639999866485596 49.444000244140625,12.067999839782715 C49.816001892089844,12.524999618530273 50,13.07699966430664 50,13.626999855041504 C50,14.13700008392334 49.840999603271484,14.645999908447266 49.5260009765625,15.081000328063965 C48.5,16.145999908447266 46.777000427246094,15.967000007629395 44.38199996948242,13.687999725341797 C30.490999221801758,-2.8480000495910645 15.79800033569336,-11.229999542236328 0.6769999861717224,-11.229999542236328 C0.44999998807907104,-11.229999542236328 0.22499999403953552,-11.22700023651123 0,-11.222999572753906 C-0.2240000069141388,-11.22700023651123 -0.44999998807907104,-11.229999542236328 -0.6759999990463257,-11.229999542236328 C-15.79800033569336,-11.229999542236328 -30.48900032043457,-2.8480000495910645 -44.38199996948242,13.687999725341797 C-46.777000427246094,15.967000007629395 -48.5,16.145999908447266 -49.525001525878906,15.081000328063965 C-49.840999603271484,14.645999908447266 -50,14.13700008392334 -50,13.626999855041504 C-50,13.07699966430664 -49.814998626708984,12.524999618530273 -49.44300079345703,12.067999839782715 C-34.21900177001953,-6.639999866485596 -17.805999755859375,-16.145999908447266 -0.6759999990463257,-16.145999908447266z"></path></g></g></g></svg>