<svg xmlns="http://www.w3.org/2000/svg" viewBox="0 0 1300 1300" width="1300" height="1300" preserveAspectRatio="xMidYMid meet" style="width: 100%; height: 100%; transform: translate3d(0px, 0px, 0px);"><defs><clipPath id="__lottie_element_122"><rect width="1300" height="1300" x="0" y="0"></rect></clipPath><clipPath id="__lottie_element_124"><path fill="#ffffff" clip-rule="nonzero" d=" M70.31900024414062,12.180999755859375 C70.31900024414062,12.180999755859375 1.7549999952316284,12.074000358581543 1.7549999952316284,12.074000358581543 C1.7549999952316284,12.074000358581543 1.809000015258789,87.9260025024414 1.809000015258789,87.9260025024414 C1.809000015258789,87.9260025024414 70.85099792480469,87.66000366210938 70.85099792480469,87.66000366210938 C70.85099792480469,87.66000366210938 70.31900024414062,12.180999755859375 70.31900024414062,12.180999755859375" fill-opacity="1"></path></clipPath><filter id="__lottie_element_125" filterUnits="objectBoundingBox" x="0%" y="0%" width="100%" height="100%"><feColorMatrix type="matrix" color-interpolation-filters="sRGB" values="0 0 0 0 1 0 0 0 0 0 0 0 0 0 0 0 0 0 1 0"></feColorMatrix><feColorMatrix type="matrix" color-interpolation-filters="sRGB" values="0 0 0 0 1 0 0 0 0 1 0 0 0 0 1 0 0 0 1 0"></feColorMatrix></filter><mask id="__lottie_element_127"><rect fill="#ffffff" width="1300" height="1300" transform="matrix(0.10638298094272614,0,0,0.10638298094272614,-19.148941040039062,-19.148941040039062)"></rect><path fill="#000000" clip-rule="nonzero" d=" M2.552999973297119,45.53200149536133 C2.552999973297119,45.53200149536133 2.552999973297119,52.76599884033203 2.552999973297119,52.76599884033203 C2.552999973297119,52.76599884033203 98.7229995727539,52.979000091552734 98.7229995727539,52.979000091552734 C98.7229995727539,52.979000091552734 98.7229995727539,45.744998931884766 98.7229995727539,45.744998931884766 C98.7229995727539,45.744998931884766 2.552999973297119,45.53200149536133 2.552999973297119,45.53200149536133" fill-opacity="1"></path></mask><filter id="__lottie_element_128" filterUnits="objectBoundingBox" x="0%" y="0%" width="100%" height="100%"><feColorMatrix type="matrix" color-interpolation-filters="sRGB" values="0 0 0 0 1 0 0 0 0 0 0 0 0 0 0 0 0 0 1 0"></feColorMatrix><feColorMatrix type="matrix" color-interpolation-filters="sRGB" values="0 0 0 0 1 0 0 0 0 1 0 0 0 0 1 0 0 0 1 0"></feColorMatrix></filter><mask id="__lottie_element_130"><rect fill="#ffffff" width="1300" height="1300" transform="matrix(0.10638298094272614,0,0,0.10638298094272614,-19.148941040039062,-19.148941040039062)"></rect><path fill="#000000" clip-rule="nonzero" d=" M98.2979965209961,10.213000297546387 C98.2979965209961,10.213000297546387 0,10.213000297546387 0,10.213000297546387 C0,10.213000297546387 -0.4259999990463257,89.78700256347656 -0.4259999990463257,89.78700256347656 C-0.4259999990463257,89.78700256347656 98.2979965209961,89.36199951171875 98.2979965209961,89.36199951171875 C98.2979965209961,89.36199951171875 98.2979965209961,10.213000297546387 98.2979965209961,10.213000297546387" fill-opacity="1"></path></mask><filter id="__lottie_element_131" filterUnits="objectBoundingBox" x="0%" y="0%" width="100%" height="100%"><feColorMatrix type="matrix" color-interpolation-filters="sRGB" values="0 0 0 0 1 0 0 0 0 0 0 0 0 0 0 0 0 0 1 0"></feColorMatrix><feColorMatrix type="matrix" color-interpolation-filters="sRGB" values="0 0 0 0 1 0 0 0 0 1 0 0 0 0 1 0 0 0 1 0"></feColorMatrix></filter><mask mask-type="alpha" id="__lottie_element_133_1"><path fill="#ffffff" clip-rule="nonzero" d=" M98.83000183105469,45.10599899291992 C98.83000183105469,45.10599899291992 33.93600082397461,44.680999755859375 33.93600082397461,44.680999755859375 C33.93600082397461,44.680999755859375 33.93600082397461,54.255001068115234 33.93600082397461,54.255001068115234 C33.93600082397461,54.255001068115234 98.83000183105469,54.89400100708008 98.83000183105469,54.89400100708008 C98.83000183105469,54.89400100708008 98.83000183105469,45.10599899291992 98.83000183105469,45.10599899291992" fill-opacity="1"></path></mask><mask id="__lottie_element_133"><g mask="url(#__lottie_element_133_1)"><rect fill="#ffffff" width="1300" height="1300" transform="matrix(0.10638298094272614,0,0,0.10638298094272614,-19.148941040039062,-19.148941040039062)"></rect></g></mask><filter id="__lottie_element_134" filterUnits="objectBoundingBox" x="0%" y="0%" width="100%" height="100%"><feColorMatrix type="matrix" color-interpolation-filters="sRGB" values="0 0 0 0 1 0 0 0 0 0 0 0 0 0 0 0 0 0 1 0"></feColorMatrix><feColorMatrix type="matrix" color-interpolation-filters="sRGB" values="0 0 0 0 1 0 0 0 0 1 0 0 0 0 1 0 0 0 1 0"></feColorMatrix></filter><filter id="__lottie_element_137" filterUnits="objectBoundingBox" x="0%" y="0%" width="100%" height="100%"><feColorMatrix type="matrix" color-interpolation-filters="sRGB" values="0 0 0 0 1 0 0 0 0 0 0 0 0 0 0 0 0 0 1 0"></feColorMatrix><feColorMatrix type="matrix" color-interpolation-filters="sRGB" values="0 0 0 0 1 0 0 0 0 1 0 0 0 0 1 0 0 0 1 0"></feColorMatrix></filter><filter id="__lottie_element_140" filterUnits="objectBoundingBox" x="0%" y="0%" width="100%" height="100%"><feColorMatrix type="matrix" color-interpolation-filters="sRGB" values="0 0 0 0 1 0 0 0 0 1 0 0 0 0 1 0 0 0 1 0"></feColorMatrix></filter></defs><g clip-path="url(#__lottie_element_122)"><g filter="url(#__lottie_element_140)" transform="matrix(9.399999618530273,0,0,9.399999618530273,180.0010223388672,180.00003051757812)" opacity="1" style="display: block;"><g opacity="1" transform="matrix(1,0,0,1,18.10099983215332,49.94300079345703)"><path fill="rgb(0,0,0)" fill-opacity="1" d=" M0,14.942999839782715 C8.244999885559082,14.942999839782715 14.942999839782715,8.244999885559082 14.942999839782715,0 C14.942999839782715,-8.244999885559082 8.244999885559082,-14.942999839782715 0,-14.942999839782715 C-8.244999885559082,-14.942999839782715 -14.942999839782715,-8.244999885559082 -14.942999839782715,0 C-14.942999839782715,8.223999977111816 -8.244999885559082,14.942999839782715 0,14.942999839782715z M0,-9.855999946594238 C5.426000118255615,-9.855999946594238 9.855999946594238,-5.447000026702881 9.855999946594238,0 C9.855999946594238,5.447000026702881 5.447000026702881,9.855999946594238 0,9.855999946594238 C-5.447000026702881,9.855999946594238 -9.855999946594238,5.426000118255615 -9.855999946594238,0 C-9.855999946594238,-5.426000118255615 -5.447000026702881,-9.855999946594238 0,-9.855999946594238z"></path></g></g><g filter="url(#__lottie_element_137)" transform="matrix(9.399999618530273,0,0,9.399999618530273,180.00408935546875,180.00003051757812)" opacity="1" style="display: block;"><g opacity="1" transform="matrix(1,0,0,1,81.94300079345703,84.94300079345703)"><path fill="rgb(0,0,0)" fill-opacity="1" d=" M-0.0010000000474974513,14.942999839782715 C8.244000434875488,14.942999839782715 14.942999839782715,8.244999885559082 14.942999839782715,-0.0010000000474974513 C14.942999839782715,-8.244999885559082 8.244000434875488,-14.942999839782715 -0.0010000000474974513,-14.942999839782715 C-8.244999885559082,-14.942999839782715 -14.942999839782715,-8.244999885559082 -14.942999839782715,-0.0010000000474974513 C-14.942999839782715,8.223999977111816 -8.244999885559082,14.942999839782715 -0.0010000000474974513,14.942999839782715z M-0.0010000000474974513,-9.855999946594238 C5.426000118255615,-9.855999946594238 9.854999542236328,-5.447999954223633 9.854999542236328,-0.0010000000474974513 C9.854999542236328,5.447000026702881 5.446000099182129,9.855999946594238 -0.0010000000474974513,9.855999946594238 C-5.447999954223633,9.855999946594238 -9.854999542236328,5.426000118255615 -9.854999542236328,-0.0010000000474974513 C-9.854999542236328,-5.426000118255615 -5.447999954223633,-9.855999946594238 -0.0010000000474974513,-9.855999946594238z"></path></g><g opacity="1" transform="matrix(1,0,0,1,81.94300079345703,14.942999839782715)"><path fill="rgb(0,0,0)" fill-opacity="1" d=" M-0.0010000000474974513,14.942999839782715 C8.244000434875488,14.942999839782715 14.942999839782715,8.244999885559082 14.942999839782715,0 C14.942999839782715,-8.244999885559082 8.244000434875488,-14.942999839782715 -0.0010000000474974513,-14.942999839782715 C-8.244999885559082,-14.942999839782715 -14.942999839782715,-8.244999885559082 -14.942999839782715,0 C-14.942999839782715,8.223999977111816 -8.244999885559082,14.942999839782715 -0.0010000000474974513,14.942999839782715z M-0.0010000000474974513,-9.855999946594238 C5.426000118255615,-9.855999946594238 9.854999542236328,-5.447000026702881 9.854999542236328,0 C9.854999542236328,5.447000026702881 5.446000099182129,9.855999946594238 -0.0010000000474974513,9.855999946594238 C-5.447999954223633,9.855999946594238 -9.854999542236328,5.426000118255615 -9.854999542236328,0 C-9.854999542236328,-5.426000118255615 -5.447999954223633,-9.855999946594238 -0.0010000000474974513,-9.855999946594238z"></path></g></g><g mask="url(#__lottie_element_133)" filter="url(#__lottie_element_134)" transform="matrix(9.399999618530273,0,0,9.399999618530273,180.00003051757812,180.00003051757812)" opacity="1" style="display: block;"><g opacity="1" transform="matrix(1,0,0,1,48.694000244140625,49.54399871826172)"><path fill="rgb(0,0,0)" fill-opacity="1" d=" M-45.57899856567383,2.5429999828338623 C-44.18000030517578,2.5429999828338623 -43.0359992980957,1.3990000486373901 -43.0359992980957,0 C-43.0359992980957,-1.3990000486373901 -44.159000396728516,-2.5429999828338623 -45.57899856567383,-2.5429999828338623 C-46.97800064086914,-2.5429999828338623 -48.124000549316406,-1.3990000486373901 -48.124000549316406,0 C-48.124000549316406,1.3990000486373901 -46.97800064086914,2.5429999828338623 -45.57899856567383,2.5429999828338623z M-33.92100143432617,0 C-33.92100143432617,1.3990000486373901 -35.066001892089844,2.5429999828338623 -36.46500015258789,2.5429999828338623 C-37.86399841308594,2.5429999828338623 -39.007999420166016,1.3990000486373901 -39.007999420166016,0 C-39.007999420166016,-1.3990000486373901 -37.86399841308594,-2.5429999828338623 -36.46500015258789,-2.5429999828338623 C-35.04499816894531,-2.5429999828338623 -33.92100143432617,-1.3990000486373901 -33.92100143432617,0z M-15.692999839782715,0 C-15.692999839782715,1.3990000486373901 -16.839000701904297,2.5429999828338623 -18.238000869750977,2.5429999828338623 C-19.636999130249023,2.5429999828338623 -20.7810001373291,1.3990000486373901 -20.7810001373291,0 C-20.7810001373291,-1.3990000486373901 -19.636999130249023,-2.5429999828338623 -18.238000869750977,-2.5429999828338623 C-16.839000701904297,-2.5429999828338623 -15.692999839782715,-1.3990000486373901 -15.692999839782715,0z M-24.80699920654297,0 C-24.80699920654297,1.3990000486373901 -25.952999114990234,2.5429999828338623 -27.351999282836914,2.5429999828338623 C-28.750999450683594,2.5429999828338623 -29.895000457763672,1.3990000486373901 -29.895000457763672,0 C-29.895000457763672,-1.3990000486373901 -28.750999450683594,-2.5429999828338623 -27.351999282836914,-2.5429999828338623 C-25.93199920654297,-2.5429999828338623 -24.80699920654297,-1.3990000486373901 -24.80699920654297,0z M-11.62399959564209,0 C-11.62399959564209,1.3990000486373901 -10.477999687194824,2.5429999828338623 -9.079000473022461,2.5429999828338623 C-7.679999828338623,2.5429999828338623 -6.535999774932861,1.3990000486373901 -6.535999774932861,0 C-6.535999774932861,-1.3990000486373901 -7.679999828338623,-2.5429999828338623 -9.079000473022461,-2.5429999828338623 C-10.477999687194824,-2.5429999828338623 -11.62399959564209,-1.3990000486373901 -11.62399959564209,0z M9.14799976348877,2.5429999828338623 C7.749000072479248,2.5429999828338623 6.605000019073486,1.3990000486373901 6.605000019073486,0 C6.605000019073486,-1.3990000486373901 7.7270002365112305,-2.5429999828338623 9.14799976348877,-2.5429999828338623 C10.54699993133545,-2.5429999828338623 11.690999984741211,-1.3990000486373901 11.690999984741211,0 C11.690999984741211,1.3990000486373901 10.54699993133545,2.5429999828338623 9.14799976348877,2.5429999828338623z M15.718999862670898,0 C15.718999862670898,1.3990000486373901 16.863000869750977,2.5429999828338623 18.261999130249023,2.5429999828338623 C19.660999298095703,2.5429999828338623 20.80699920654297,1.3990000486373901 20.80699920654297,0 C20.80699920654297,-1.3990000486373901 19.660999298095703,-2.5429999828338623 18.261999130249023,-2.5429999828338623 C16.841999053955078,-2.5429999828338623 15.718999862670898,-1.3990000486373901 15.718999862670898,0z M24.83300018310547,0 C24.83300018310547,1.3990000486373901 25.976999282836914,2.5429999828338623 27.375999450683594,2.5429999828338623 C28.77400016784668,2.5429999828338623 29.92099952697754,1.3990000486373901 29.92099952697754,0 C29.92099952697754,-1.3990000486373901 28.77400016784668,-2.5429999828338623 27.375999450683594,-2.5429999828338623 C25.976999282836914,-2.5429999828338623 24.83300018310547,-1.3990000486373901 24.83300018310547,0z M33.946998596191406,0 C33.946998596191406,1.3990000486373901 35.09199905395508,2.5429999828338623 36.4900016784668,2.5429999828338623 C37.88999938964844,2.5429999828338623 39.03300094604492,1.3990000486373901 39.03300094604492,0 C39.03300094604492,-1.3990000486373901 37.88999938964844,-2.5429999828338623 36.4900016784668,-2.5429999828338623 C35.09199905395508,-2.5429999828338623 33.946998596191406,-1.3990000486373901 33.946998596191406,0z M0.03500000014901161,2.5429999828338623 C-1.3639999628067017,2.5429999828338623 -2.509999990463257,1.3990000486373901 -2.509999990463257,0 C-2.509999990463257,-1.3990000486373901 -1.3849999904632568,-2.5429999828338623 0.03500000014901161,-2.5429999828338623 C1.4329999685287476,-2.5429999828338623 2.5769999027252197,-1.3990000486373901 2.5769999027252197,0 C2.5769999027252197,1.3990000486373901 1.4329999685287476,2.5429999828338623 0.03500000014901161,2.5429999828338623z M43.0359992980957,0 C43.0359992980957,1.3990000486373901 44.18000030517578,2.5429999828338623 45.57899856567383,2.5429999828338623 C46.97700119018555,2.5429999828338623 48.124000549316406,1.3990000486373901 48.124000549316406,0 C48.124000549316406,-1.3990000486373901 46.97700119018555,-2.5429999828338623 45.57899856567383,-2.5429999828338623 C44.18000030517578,-2.5429999828338623 43.0359992980957,-1.3990000486373901 43.0359992980957,0z"></path></g></g><g mask="url(#__lottie_element_130)" filter="url(#__lottie_element_131)" transform="matrix(9.399999618530273,0,0,9.399999618530273,180.00003051757812,180.00003051757812)" opacity="1" style="display: block;"><g opacity="1" transform="matrix(1,0,0,1,48.694000244140625,15.053000450134277)"><path fill="rgb(0,0,0)" fill-opacity="1" d=" M-45.57899856567383,2.5439999103546143 C-44.18000030517578,2.5439999103546143 -43.0359992980957,1.399999976158142 -43.0359992980957,0.0010000000474974513 C-43.0359992980957,-1.3980000019073486 -44.159000396728516,-2.5439999103546143 -45.57899856567383,-2.5439999103546143 C-46.97800064086914,-2.5439999103546143 -48.124000549316406,-1.3980000019073486 -48.124000549316406,0.0010000000474974513 C-48.124000549316406,1.399999976158142 -46.97800064086914,2.5439999103546143 -45.57899856567383,2.5439999103546143z M-33.92100143432617,0.0010000000474974513 C-33.92100143432617,1.399999976158142 -35.066001892089844,2.5439999103546143 -36.46500015258789,2.5439999103546143 C-37.86399841308594,2.5439999103546143 -39.007999420166016,1.399999976158142 -39.007999420166016,0.0010000000474974513 C-39.007999420166016,-1.3980000019073486 -37.86399841308594,-2.5439999103546143 -36.46500015258789,-2.5439999103546143 C-35.04499816894531,-2.5439999103546143 -33.92100143432617,-1.3980000019073486 -33.92100143432617,0.0010000000474974513z M-15.692999839782715,0.0010000000474974513 C-15.692999839782715,1.399999976158142 -16.839000701904297,2.5439999103546143 -18.238000869750977,2.5439999103546143 C-19.636999130249023,2.5439999103546143 -20.7810001373291,1.399999976158142 -20.7810001373291,0.0010000000474974513 C-20.7810001373291,-1.3980000019073486 -19.636999130249023,-2.5439999103546143 -18.238000869750977,-2.5439999103546143 C-16.839000701904297,-2.5439999103546143 -15.692999839782715,-1.3980000019073486 -15.692999839782715,0.0010000000474974513z M-24.80699920654297,0.0010000000474974513 C-24.80699920654297,1.399999976158142 -25.952999114990234,2.5439999103546143 -27.351999282836914,2.5439999103546143 C-28.750999450683594,2.5439999103546143 -29.895000457763672,1.399999976158142 -29.895000457763672,0.0010000000474974513 C-29.895000457763672,-1.3980000019073486 -28.750999450683594,-2.5439999103546143 -27.351999282836914,-2.5439999103546143 C-25.93199920654297,-2.5439999103546143 -24.80699920654297,-1.3980000019073486 -24.80699920654297,0.0010000000474974513z M-11.62399959564209,0.0010000000474974513 C-11.62399959564209,1.399999976158142 -10.477999687194824,2.5439999103546143 -9.079000473022461,2.5439999103546143 C-7.679999828338623,2.5439999103546143 -6.535999774932861,1.399999976158142 -6.535999774932861,0.0010000000474974513 C-6.535999774932861,-1.3980000019073486 -7.679999828338623,-2.5439999103546143 -9.079000473022461,-2.5439999103546143 C-10.477999687194824,-2.5439999103546143 -11.62399959564209,-1.3980000019073486 -11.62399959564209,0.0010000000474974513z M9.14799976348877,2.5439999103546143 C7.749000072479248,2.5439999103546143 6.605000019073486,1.399999976158142 6.605000019073486,0.0010000000474974513 C6.605000019073486,-1.3980000019073486 7.7270002365112305,-2.5439999103546143 9.14799976348877,-2.5439999103546143 C10.54699993133545,-2.5439999103546143 11.690999984741211,-1.3980000019073486 11.690999984741211,0.0010000000474974513 C11.690999984741211,1.399999976158142 10.54699993133545,2.5439999103546143 9.14799976348877,2.5439999103546143z M15.718999862670898,0.0010000000474974513 C15.718999862670898,1.399999976158142 16.863000869750977,2.5439999103546143 18.261999130249023,2.5439999103546143 C19.660999298095703,2.5439999103546143 20.80699920654297,1.399999976158142 20.80699920654297,0.0010000000474974513 C20.80699920654297,-1.3980000019073486 19.660999298095703,-2.5439999103546143 18.261999130249023,-2.5439999103546143 C16.841999053955078,-2.5439999103546143 15.718999862670898,-1.3980000019073486 15.718999862670898,0.0010000000474974513z M24.83300018310547,0.0010000000474974513 C24.83300018310547,1.399999976158142 25.976999282836914,2.5439999103546143 27.375999450683594,2.5439999103546143 C28.77400016784668,2.5439999103546143 29.92099952697754,1.399999976158142 29.92099952697754,0.0010000000474974513 C29.92099952697754,-1.3980000019073486 28.77400016784668,-2.5439999103546143 27.375999450683594,-2.5439999103546143 C25.976999282836914,-2.5439999103546143 24.83300018310547,-1.3980000019073486 24.83300018310547,0.0010000000474974513z M33.946998596191406,0.0010000000474974513 C33.946998596191406,1.399999976158142 35.09199905395508,2.5439999103546143 36.4900016784668,2.5439999103546143 C37.88999938964844,2.5439999103546143 39.03300094604492,1.399999976158142 39.03300094604492,0.0010000000474974513 C39.03300094604492,-1.3980000019073486 37.88999938964844,-2.5439999103546143 36.4900016784668,-2.5439999103546143 C35.09199905395508,-2.5439999103546143 33.946998596191406,-1.3980000019073486 33.946998596191406,0.0010000000474974513z M0.03500000014901161,2.5439999103546143 C-1.3639999628067017,2.5439999103546143 -2.509999990463257,1.399999976158142 -2.509999990463257,0.0010000000474974513 C-2.509999990463257,-1.3980000019073486 -1.3849999904632568,-2.5439999103546143 0.03500000014901161,-2.5439999103546143 C1.4329999685287476,-2.5439999103546143 2.5769999027252197,-1.3980000019073486 2.5769999027252197,0.0010000000474974513 C2.5769999027252197,1.399999976158142 1.4329999685287476,2.5439999103546143 0.03500000014901161,2.5439999103546143z M43.0359992980957,0.0010000000474974513 C43.0359992980957,1.399999976158142 44.18000030517578,2.5439999103546143 45.57899856567383,2.5439999103546143 C46.97700119018555,2.5439999103546143 48.124000549316406,1.399999976158142 48.124000549316406,0.0010000000474974513 C48.124000549316406,-1.3980000019073486 46.97700119018555,-2.5439999103546143 45.57899856567383,-2.5439999103546143 C44.18000030517578,-2.5439999103546143 43.0359992980957,-1.3980000019073486 43.0359992980957,0.0010000000474974513z"></path></g><g opacity="1" transform="matrix(1,0,0,1,48.694000244140625,85.0530014038086)"><path fill="rgb(0,0,0)" fill-opacity="1" d=" M-45.57899856567383,2.5439999103546143 C-44.18000030517578,2.5439999103546143 -43.0359992980957,1.3990000486373901 -43.0359992980957,0.0010000000474974513 C-43.0359992980957,-1.3980000019073486 -44.159000396728516,-2.5439999103546143 -45.57899856567383,-2.5439999103546143 C-46.97800064086914,-2.5439999103546143 -48.124000549316406,-1.3980000019073486 -48.124000549316406,0.0010000000474974513 C-48.124000549316406,1.3990000486373901 -46.97800064086914,2.5439999103546143 -45.57899856567383,2.5439999103546143z M-33.92100143432617,0.0010000000474974513 C-33.92100143432617,1.3990000486373901 -35.066001892089844,2.5439999103546143 -36.46500015258789,2.5439999103546143 C-37.86399841308594,2.5439999103546143 -39.007999420166016,1.3990000486373901 -39.007999420166016,0.0010000000474974513 C-39.007999420166016,-1.3980000019073486 -37.86399841308594,-2.5439999103546143 -36.46500015258789,-2.5439999103546143 C-35.04499816894531,-2.5439999103546143 -33.92100143432617,-1.3980000019073486 -33.92100143432617,0.0010000000474974513z M-15.692999839782715,0.0010000000474974513 C-15.692999839782715,1.3990000486373901 -16.839000701904297,2.5439999103546143 -18.238000869750977,2.5439999103546143 C-19.636999130249023,2.5439999103546143 -20.7810001373291,1.3990000486373901 -20.7810001373291,0.0010000000474974513 C-20.7810001373291,-1.3980000019073486 -19.636999130249023,-2.5439999103546143 -18.238000869750977,-2.5439999103546143 C-16.839000701904297,-2.5439999103546143 -15.692999839782715,-1.3980000019073486 -15.692999839782715,0.0010000000474974513z M-24.80699920654297,0.0010000000474974513 C-24.80699920654297,1.3990000486373901 -25.952999114990234,2.5439999103546143 -27.351999282836914,2.5439999103546143 C-28.750999450683594,2.5439999103546143 -29.895000457763672,1.3990000486373901 -29.895000457763672,0.0010000000474974513 C-29.895000457763672,-1.3980000019073486 -28.750999450683594,-2.5439999103546143 -27.351999282836914,-2.5439999103546143 C-25.93199920654297,-2.5439999103546143 -24.80699920654297,-1.3980000019073486 -24.80699920654297,0.0010000000474974513z M-11.62399959564209,0.0010000000474974513 C-11.62399959564209,1.3990000486373901 -10.477999687194824,2.5439999103546143 -9.079000473022461,2.5439999103546143 C-7.679999828338623,2.5439999103546143 -6.535999774932861,1.3990000486373901 -6.535999774932861,0.0010000000474974513 C-6.535999774932861,-1.3980000019073486 -7.679999828338623,-2.5439999103546143 -9.079000473022461,-2.5439999103546143 C-10.477999687194824,-2.5439999103546143 -11.62399959564209,-1.3980000019073486 -11.62399959564209,0.0010000000474974513z M9.14799976348877,2.5439999103546143 C7.749000072479248,2.5439999103546143 6.605000019073486,1.3990000486373901 6.605000019073486,0.0010000000474974513 C6.605000019073486,-1.3980000019073486 7.7270002365112305,-2.5439999103546143 9.14799976348877,-2.5439999103546143 C10.54699993133545,-2.5439999103546143 11.690999984741211,-1.3980000019073486 11.690999984741211,0.0010000000474974513 C11.690999984741211,1.3990000486373901 10.54699993133545,2.5439999103546143 9.14799976348877,2.5439999103546143z M15.718999862670898,0.0010000000474974513 C15.718999862670898,1.3990000486373901 16.863000869750977,2.5439999103546143 18.261999130249023,2.5439999103546143 C19.660999298095703,2.5439999103546143 20.80699920654297,1.3990000486373901 20.80699920654297,0.0010000000474974513 C20.80699920654297,-1.3980000019073486 19.660999298095703,-2.5439999103546143 18.261999130249023,-2.5439999103546143 C16.841999053955078,-2.5439999103546143 15.718999862670898,-1.3980000019073486 15.718999862670898,0.0010000000474974513z M24.83300018310547,0.0010000000474974513 C24.83300018310547,1.3990000486373901 25.976999282836914,2.5439999103546143 27.375999450683594,2.5439999103546143 C28.77400016784668,2.5439999103546143 29.92099952697754,1.3990000486373901 29.92099952697754,0.0010000000474974513 C29.92099952697754,-1.3980000019073486 28.77400016784668,-2.5439999103546143 27.375999450683594,-2.5439999103546143 C25.976999282836914,-2.5439999103546143 24.83300018310547,-1.3980000019073486 24.83300018310547,0.0010000000474974513z M33.946998596191406,0.0010000000474974513 C33.946998596191406,1.3990000486373901 35.09199905395508,2.5439999103546143 36.4900016784668,2.5439999103546143 C37.88999938964844,2.5439999103546143 39.03300094604492,1.3990000486373901 39.03300094604492,0.0010000000474974513 C39.03300094604492,-1.3980000019073486 37.88999938964844,-2.5439999103546143 36.4900016784668,-2.5439999103546143 C35.09199905395508,-2.5439999103546143 33.946998596191406,-1.3980000019073486 33.946998596191406,0.0010000000474974513z M0.03500000014901161,2.5439999103546143 C-1.3639999628067017,2.5439999103546143 -2.509999990463257,1.3990000486373901 -2.509999990463257,0.0010000000474974513 C-2.509999990463257,-1.3980000019073486 -1.3849999904632568,-2.5439999103546143 0.03500000014901161,-2.5439999103546143 C1.4329999685287476,-2.5439999103546143 2.5769999027252197,-1.3980000019073486 2.5769999027252197,0.0010000000474974513 C2.5769999027252197,1.3990000486373901 1.4329999685287476,2.5439999103546143 0.03500000014901161,2.5439999103546143z M43.0359992980957,0.0010000000474974513 C43.0359992980957,1.3990000486373901 44.18000030517578,2.5439999103546143 45.57899856567383,2.5439999103546143 C46.97700119018555,2.5439999103546143 48.124000549316406,1.3990000486373901 48.124000549316406,0.0010000000474974513 C48.124000549316406,-1.3980000019073486 46.97700119018555,-2.5439999103546143 45.57899856567383,-2.5439999103546143 C44.18000030517578,-2.5439999103546143 43.0359992980957,-1.3980000019073486 43.0359992980957,0.0010000000474974513z"></path></g></g><g mask="url(#__lottie_element_127)" filter="url(#__lottie_element_128)" transform="matrix(9.399999618530273,0,0,9.399999618530273,180.00003051757812,180.00003051757812)" opacity="1" style="display: block;"><g opacity="1" transform="matrix(1,0,0,1,50.10100173950195,49.54399871826172)"><path fill="rgb(0,0,0)" fill-opacity="1" d=" M-44.400001525878906,-2.5439999103546143 C-44.400001525878906,-2.5439999103546143 -0.6019999980926514,-2.5439999103546143 -0.6019999980926514,-2.5439999103546143 C-0.6019999980926514,-2.5439999103546143 2.8980000019073486,-2.5439999103546143 2.8980000019073486,-2.5439999103546143 C2.8980000019073486,-2.5439999103546143 44.39799880981445,-2.5439999103546143 44.39799880981445,-2.5439999103546143 C45.797000885009766,-2.5439999103546143 46.94300079345703,-1.3990000486373901 46.94300079345703,-0.0010000000474974513 C46.94300079345703,1.3980000019073486 45.797000885009766,2.5439999103546143 44.39799880981445,2.5439999103546143 C44.39799880981445,2.5439999103546143 -0.6019999980926514,2.5439999103546143 -0.6019999980926514,2.5439999103546143 C-0.6019999980926514,2.5439999103546143 -44.400001525878906,2.5439999103546143 -44.400001525878906,2.5439999103546143 C-45.79899978637695,2.5439999103546143 -46.94300079345703,1.3980000019073486 -46.94300079345703,-0.0010000000474974513 C-46.94300079345703,-1.3990000486373901 -45.79899978637695,-2.5439999103546143 -44.400001525878906,-2.5439999103546143z"></path></g></g><g clip-path="url(#__lottie_element_124)" filter="url(#__lottie_element_125)" transform="matrix(9.399999618530273,0,0,9.399999618530273,180.00003051757812,180.00003051757812)" opacity="1" style="display: block;"><g opacity="1" transform="matrix(1,0,0,1,50.10100173950195,85.05699920654297)"><path fill="rgb(0,0,0)" fill-opacity="1" d=" M-44.400001525878906,-2.5439999103546143 C-44.400001525878906,-2.5439999103546143 -0.6019999980926514,-2.5439999103546143 -0.6019999980926514,-2.5439999103546143 C-0.6019999980926514,-2.5439999103546143 2.8980000019073486,-2.5439999103546143 2.8980000019073486,-2.5439999103546143 C2.8980000019073486,-2.5439999103546143 44.39799880981445,-2.5439999103546143 44.39799880981445,-2.5439999103546143 C45.797000885009766,-2.5439999103546143 46.94300079345703,-1.3980000019073486 46.94300079345703,0.0010000000474974513 C46.94300079345703,1.3990000486373901 45.797000885009766,2.5439999103546143 44.39799880981445,2.5439999103546143 C44.39799880981445,2.5439999103546143 -0.6019999980926514,2.5439999103546143 -0.6019999980926514,2.5439999103546143 C-0.6019999980926514,2.5439999103546143 -44.400001525878906,2.5439999103546143 -44.400001525878906,2.5439999103546143 C-45.79899978637695,2.5439999103546143 -46.94300079345703,1.3990000486373901 -46.94300079345703,0.0010000000474974513 C-46.94300079345703,-1.3980000019073486 -45.79899978637695,-2.5439999103546143 -44.400001525878906,-2.5439999103546143z"></path></g><g opacity="1" transform="matrix(1,0,0,1,50.10100173950195,15.057000160217285)"><path fill="rgb(0,0,0)" fill-opacity="1" d=" M-44.400001525878906,-2.5439999103546143 C-44.400001525878906,-2.5439999103546143 -0.6019999980926514,-2.5439999103546143 -0.6019999980926514,-2.5439999103546143 C-0.6019999980926514,-2.5439999103546143 2.8980000019073486,-2.5439999103546143 2.8980000019073486,-2.5439999103546143 C2.8980000019073486,-2.5439999103546143 44.39799880981445,-2.5439999103546143 44.39799880981445,-2.5439999103546143 C45.797000885009766,-2.5439999103546143 46.94300079345703,-1.3990000486373901 46.94300079345703,-0.0010000000474974513 C46.94300079345703,1.3980000019073486 45.797000885009766,2.5439999103546143 44.39799880981445,2.5439999103546143 C44.39799880981445,2.5439999103546143 -0.6019999980926514,2.5439999103546143 -0.6019999980926514,2.5439999103546143 C-0.6019999980926514,2.5439999103546143 -44.400001525878906,2.5439999103546143 -44.400001525878906,2.5439999103546143 C-45.79899978637695,2.5439999103546143 -46.94300079345703,1.3980000019073486 -46.94300079345703,-0.0010000000474974513 C-46.94300079345703,-1.3990000486373901 -45.79899978637695,-2.5439999103546143 -44.400001525878906,-2.5439999103546143z"></path></g></g></g></svg>