<svg xmlns="http://www.w3.org/2000/svg" viewBox="0 0 1000 1000" width="1000" height="1000" preserveAspectRatio="xMidYMid meet" style="width: 100%; height: 100%; transform: translate3d(0px, 0px, 0px);"><defs><clipPath id="__lottie_element_141"><rect width="1000" height="1000" x="0" y="0"></rect></clipPath><filter id="__lottie_element_144" filterUnits="objectBoundingBox" x="0%" y="0%" width="100%" height="100%"><feColorMatrix type="matrix" color-interpolation-filters="sRGB" values="0 0 0 0 1 0 0 0 0 1 0 0 0 0 1 0 0 0 1 0"></feColorMatrix></filter><filter id="__lottie_element_147" filterUnits="objectBoundingBox" x="0%" y="0%" width="100%" height="100%"><feColorMatrix type="matrix" color-interpolation-filters="sRGB" values="0 0 0 0 1 0 0 0 0 1 0 0 0 0 1 0 0 0 1 0"></feColorMatrix></filter><filter id="__lottie_element_150" filterUnits="objectBoundingBox" x="0%" y="0%" width="100%" height="100%"><feColorMatrix type="matrix" color-interpolation-filters="sRGB" values="0 0 0 0 1 0 0 0 0 1 0 0 0 0 1 0 0 0 1 0"></feColorMatrix></filter><mask id="__lottie_element_152"><rect fill="#ffffff" width="1000" height="1000" transform="matrix(0,1,-1,0,748.625,65.5)"></rect><path fill="#000000" clip-rule="nonzero" d=" M192.30099487304688,235.73199462890625 C192.30099487304688,235.73199462890625 195.06399536132812,315.85198974609375 195.06399536132812,315.85198974609375 C195.06399536132812,315.85198974609375 271.4200134277344,317.85198974609375 271.4200134277344,317.85198974609375 C271.4200134277344,317.85198974609375 272.4200134277344,237.11399841308594 272.4200134277344,237.11399841308594 C272.4200134277344,237.11399841308594 192.30099487304688,235.73199462890625 192.30099487304688,235.73199462890625" fill-opacity="1"></path></mask><filter id="__lottie_element_153" filterUnits="objectBoundingBox" x="0%" y="0%" width="100%" height="100%"><feColorMatrix type="matrix" color-interpolation-filters="sRGB" values="0 0 0 0 1 0 0 0 0 1 0 0 0 0 1 0 0 0 1 0"></feColorMatrix></filter><mask id="__lottie_element_155"><rect fill="#ffffff" width="1000" height="1000" transform="matrix(0,1,-1,0,668.625,71)"></rect><path fill="#000000" clip-rule="nonzero" d=" M149.41299438476562,218.8249969482422 C149.41299438476562,218.8249969482422 147.41099548339844,283.57598876953125 147.41099548339844,283.57598876953125 C147.41099548339844,283.57598876953125 213.97000122070312,293.27301025390625 213.97000122070312,293.27301025390625 C213.97000122070312,293.27301025390625 221.5070037841797,221.4949951171875 221.5070037841797,221.4949951171875 C221.5070037841797,221.4949951171875 149.41299438476562,218.8249969482422 149.41299438476562,218.8249969482422" fill-opacity="1"></path></mask><filter id="__lottie_element_156" filterUnits="objectBoundingBox" x="0%" y="0%" width="100%" height="100%"><feColorMatrix type="matrix" color-interpolation-filters="sRGB" values="0 0 0 0 1 0 0 0 0 1 0 0 0 0 1 0 0 0 1 0"></feColorMatrix></filter><mask id="__lottie_element_158"><rect fill="#ffffff" width="1000" height="1000" transform="matrix(0,1,-1,0,590.125,59.5)"></rect><path fill="#000000" clip-rule="nonzero" d=" M130.71200561523438,91.28700256347656 C130.71200561523438,91.28700256347656 93.70999908447266,123.66300201416016 93.70999908447266,123.66300201416016 C93.70999908447266,123.66300201416016 124.54499816894531,162.20599365234375 124.54499816894531,162.20599365234375 C124.54499816894531,162.20599365234375 152.29600524902344,135.2259979248047 152.29600524902344,135.2259979248047 C152.29600524902344,135.2259979248047 130.71200561523438,91.28700256347656 130.71200561523438,91.28700256347656" fill-opacity="1"></path></mask><filter id="__lottie_element_159" filterUnits="objectBoundingBox" x="0%" y="0%" width="100%" height="100%"><feColorMatrix type="matrix" color-interpolation-filters="sRGB" values="0 0 0 0 1 0 0 0 0 1 0 0 0 0 1 0 0 0 1 0"></feColorMatrix></filter><filter id="__lottie_element_162" filterUnits="objectBoundingBox" x="0%" y="0%" width="100%" height="100%"><feColorMatrix type="matrix" color-interpolation-filters="sRGB" values="0 0 0 0 1 0 0 0 0 1 0 0 0 0 1 0 0 0 1 0"></feColorMatrix></filter><filter id="__lottie_element_165" filterUnits="objectBoundingBox" x="0%" y="0%" width="100%" height="100%"><feColorMatrix type="matrix" color-interpolation-filters="sRGB" values="0 0 0 0 1 0 0 0 0 1 0 0 0 0 1 0 0 0 1 0"></feColorMatrix></filter><filter id="__lottie_element_168" filterUnits="objectBoundingBox" x="0%" y="0%" width="100%" height="100%"><feColorMatrix type="matrix" color-interpolation-filters="sRGB" values="0 0 0 0 1 0 0 0 0 1 0 0 0 0 1 0 0 0 1 0"></feColorMatrix></filter><filter id="__lottie_element_171" filterUnits="objectBoundingBox" x="0%" y="0%" width="100%" height="100%"><feColorMatrix type="matrix" color-interpolation-filters="sRGB" values="0 0 0 0 1 0 0 0 0 1 0 0 0 0 1 0 0 0 1 0"></feColorMatrix></filter><filter id="__lottie_element_174" filterUnits="objectBoundingBox" x="0%" y="0%" width="100%" height="100%"><feColorMatrix type="matrix" color-interpolation-filters="sRGB" values="0 0 0 0 1 0 0 0 0 1 0 0 0 0 1 0 0 0 1 0"></feColorMatrix></filter><filter id="__lottie_element_177" filterUnits="objectBoundingBox" x="0%" y="0%" width="100%" height="100%"><feColorMatrix type="matrix" color-interpolation-filters="sRGB" values="0 0 0 0 1 0 0 0 0 1 0 0 0 0 1 0 0 0 1 0"></feColorMatrix></filter><filter id="__lottie_element_180" filterUnits="objectBoundingBox" x="0%" y="0%" width="100%" height="100%"><feColorMatrix type="matrix" color-interpolation-filters="sRGB" values="0 0 0 0 1 0 0 0 0 1 0 0 0 0 1 0 0 0 1 0"></feColorMatrix></filter><filter id="__lottie_element_183" filterUnits="objectBoundingBox" x="0%" y="0%" width="100%" height="100%"><feColorMatrix type="matrix" color-interpolation-filters="sRGB" values="0 0 0 0 1 0 0 0 0 1 0 0 0 0 1 0 0 0 1 0"></feColorMatrix></filter><filter id="__lottie_element_186" filterUnits="objectBoundingBox" x="0%" y="0%" width="100%" height="100%"><feColorMatrix type="matrix" color-interpolation-filters="sRGB" values="0 0 0 0 1 0 0 0 0 1 0 0 0 0 1 0 0 0 1 0"></feColorMatrix></filter><filter id="__lottie_element_189" filterUnits="objectBoundingBox" x="0%" y="0%" width="100%" height="100%"><feColorMatrix type="matrix" color-interpolation-filters="sRGB" values="0 0 0 0 1 0 0 0 0 1 0 0 0 0 1 0 0 0 1 0"></feColorMatrix></filter><filter id="__lottie_element_192" filterUnits="objectBoundingBox" x="0%" y="0%" width="100%" height="100%"><feColorMatrix type="matrix" color-interpolation-filters="sRGB" values="0 0 0 0 1 0 0 0 0 1 0 0 0 0 1 0 0 0 1 0"></feColorMatrix></filter><filter id="__lottie_element_195" filterUnits="objectBoundingBox" x="0%" y="0%" width="100%" height="100%"><feColorMatrix type="matrix" color-interpolation-filters="sRGB" values="0 0 0 0 1 0 0 0 0 1 0 0 0 0 1 0 0 0 1 0"></feColorMatrix></filter><filter id="__lottie_element_198" filterUnits="objectBoundingBox" x="0%" y="0%" width="100%" height="100%"><feColorMatrix type="matrix" color-interpolation-filters="sRGB" values="0 0 0 0 1 0 0 0 0 1 0 0 0 0 1 0 0 0 1 0"></feColorMatrix></filter><filter id="__lottie_element_201" filterUnits="objectBoundingBox" x="0%" y="0%" width="100%" height="100%"><feColorMatrix type="matrix" color-interpolation-filters="sRGB" values="0 0 0 0 1 0 0 0 0 1 0 0 0 0 1 0 0 0 1 0"></feColorMatrix></filter><filter id="__lottie_element_204" filterUnits="objectBoundingBox" x="0%" y="0%" width="100%" height="100%"><feColorMatrix type="matrix" color-interpolation-filters="sRGB" values="0 0 0 0 1 0 0 0 0 1 0 0 0 0 1 0 0 0 1 0"></feColorMatrix></filter><filter id="__lottie_element_207" filterUnits="objectBoundingBox" x="0%" y="0%" width="100%" height="100%"><feColorMatrix type="matrix" color-interpolation-filters="sRGB" values="0 0 0 0 1 0 0 0 0 1 0 0 0 0 1 0 0 0 1 0"></feColorMatrix></filter><filter id="__lottie_element_210" filterUnits="objectBoundingBox" x="0%" y="0%" width="100%" height="100%"><feColorMatrix type="matrix" color-interpolation-filters="sRGB" values="0 0 0 0 1 0 0 0 0 1 0 0 0 0 1 0 0 0 1 0"></feColorMatrix></filter><filter id="__lottie_element_213" filterUnits="objectBoundingBox" x="0%" y="0%" width="100%" height="100%"><feColorMatrix type="matrix" color-interpolation-filters="sRGB" values="0 0 0 0 1 0 0 0 0 1 0 0 0 0 1 0 0 0 1 0"></feColorMatrix></filter><filter id="__lottie_element_216" filterUnits="objectBoundingBox" x="0%" y="0%" width="100%" height="100%"><feColorMatrix type="matrix" color-interpolation-filters="sRGB" values="0 0 0 0 1 0 0 0 0 1 0 0 0 0 1 0 0 0 1 0"></feColorMatrix></filter><filter id="__lottie_element_219" filterUnits="objectBoundingBox" x="0%" y="0%" width="100%" height="100%"><feColorMatrix type="matrix" color-interpolation-filters="sRGB" values="0 0 0 0 1 0 0 0 0 1 0 0 0 0 1 0 0 0 1 0"></feColorMatrix></filter><mask id="__lottie_element_221"><rect fill="#ffffff" width="1000" height="1000" transform="matrix(0,1,-1,0,723.375,-61.75)"></rect><path fill="#000000" clip-rule="nonzero" d=" M237.5279998779297,223.9029998779297 C237.5279998779297,223.9029998779297 159.41400146484375,226.3979949951172 159.41400146484375,226.3979949951172 C159.41400146484375,226.3979949951172 162.3209991455078,318.8169860839844 162.3209991455078,318.8169860839844 C162.3209991455078,318.8169860839844 238.05099487304688,317.47900390625 238.05099487304688,317.47900390625 C238.05099487304688,317.47900390625 237.5279998779297,223.9029998779297 237.5279998779297,223.9029998779297" fill-opacity="1"></path></mask><filter id="__lottie_element_222" filterUnits="objectBoundingBox" x="0%" y="0%" width="100%" height="100%"><feColorMatrix type="matrix" color-interpolation-filters="sRGB" values="0 0 0 0 1 0 0 0 0 1 0 0 0 0 1 0 0 0 1 0"></feColorMatrix></filter><mask id="__lottie_element_224"><rect fill="#ffffff" width="1000" height="1000" transform="matrix(0,1,-1,0,641.875,-61.25)"></rect><path fill="#000000" clip-rule="nonzero" d=" M125.28900146484375,250.1510009765625 C125.28900146484375,250.1510009765625 123.25900268554688,317.6029968261719 123.25900268554688,317.6029968261719 C123.25900268554688,317.6029968261719 193.9219970703125,317.81298828125 193.9219970703125,317.81298828125 C193.9219970703125,317.81298828125 193.6529998779297,248.79299926757812 193.6529998779297,248.79299926757812 C193.6529998779297,248.79299926757812 125.28900146484375,250.1510009765625 125.28900146484375,250.1510009765625" fill-opacity="1"></path></mask><filter id="__lottie_element_225" filterUnits="objectBoundingBox" x="0%" y="0%" width="100%" height="100%"><feColorMatrix type="matrix" color-interpolation-filters="sRGB" values="0 0 0 0 1 0 0 0 0 1 0 0 0 0 1 0 0 0 1 0"></feColorMatrix></filter><filter id="__lottie_element_228" filterUnits="objectBoundingBox" x="0%" y="0%" width="100%" height="100%"><feColorMatrix type="matrix" color-interpolation-filters="sRGB" values="0 0 0 0 1 0 0 0 0 1 0 0 0 0 1 0 0 0 1 0"></feColorMatrix></filter><filter id="__lottie_element_231" filterUnits="objectBoundingBox" x="0%" y="0%" width="100%" height="100%"><feColorMatrix type="matrix" color-interpolation-filters="sRGB" values="0 0 0 0 1 0 0 0 0 1 0 0 0 0 1 0 0 0 1 0"></feColorMatrix></filter><filter id="__lottie_element_234" filterUnits="objectBoundingBox" x="0%" y="0%" width="100%" height="100%"><feColorMatrix type="matrix" color-interpolation-filters="sRGB" values="0 0 0 0 1 0 0 0 0 1 0 0 0 0 1 0 0 0 1 0"></feColorMatrix></filter><filter id="__lottie_element_237" filterUnits="objectBoundingBox" x="0%" y="0%" width="100%" height="100%"><feColorMatrix type="matrix" color-interpolation-filters="sRGB" values="0 0 0 0 1 0 0 0 0 1 0 0 0 0 1 0 0 0 1 0"></feColorMatrix></filter><filter id="__lottie_element_240" filterUnits="objectBoundingBox" x="0%" y="0%" width="100%" height="100%"><feColorMatrix type="matrix" color-interpolation-filters="sRGB" values="0 0 0 0 1 0 0 0 0 1 0 0 0 0 1 0 0 0 1 0"></feColorMatrix></filter><filter id="__lottie_element_243" filterUnits="objectBoundingBox" x="0%" y="0%" width="100%" height="100%"><feColorMatrix type="matrix" color-interpolation-filters="sRGB" values="0 0 0 0 1 0 0 0 0 1 0 0 0 0 1 0 0 0 1 0"></feColorMatrix></filter><filter id="__lottie_element_246" filterUnits="objectBoundingBox" x="0%" y="0%" width="100%" height="100%"><feColorMatrix type="matrix" color-interpolation-filters="sRGB" values="0 0 0 0 1 0 0 0 0 1 0 0 0 0 1 0 0 0 1 0"></feColorMatrix></filter><filter id="__lottie_element_249" filterUnits="objectBoundingBox" x="0%" y="0%" width="100%" height="100%"><feColorMatrix type="matrix" color-interpolation-filters="sRGB" values="0 0 0 0 1 0 0 0 0 1 0 0 0 0 1 0 0 0 1 0"></feColorMatrix></filter><filter id="__lottie_element_252" filterUnits="objectBoundingBox" x="0%" y="0%" width="100%" height="100%"><feColorMatrix type="matrix" color-interpolation-filters="sRGB" values="0 0 0 0 1 0 0 0 0 1 0 0 0 0 1 0 0 0 1 0"></feColorMatrix></filter><filter id="__lottie_element_255" filterUnits="objectBoundingBox" x="0%" y="0%" width="100%" height="100%"><feColorMatrix type="matrix" color-interpolation-filters="sRGB" values="0 0 0 0 1 0 0 0 0 1 0 0 0 0 1 0 0 0 1 0"></feColorMatrix></filter><filter id="__lottie_element_258" filterUnits="objectBoundingBox" x="0%" y="0%" width="100%" height="100%"><feColorMatrix type="matrix" color-interpolation-filters="sRGB" values="0 0 0 0 1 0 0 0 0 1 0 0 0 0 1 0 0 0 1 0"></feColorMatrix></filter><filter id="__lottie_element_261" filterUnits="objectBoundingBox" x="0%" y="0%" width="100%" height="100%"><feColorMatrix type="matrix" color-interpolation-filters="sRGB" values="0 0 0 0 1 0 0 0 0 1 0 0 0 0 1 0 0 0 1 0"></feColorMatrix></filter><filter id="__lottie_element_264" filterUnits="objectBoundingBox" x="0%" y="0%" width="100%" height="100%"><feColorMatrix type="matrix" color-interpolation-filters="sRGB" values="0 0 0 0 1 0 0 0 0 0.9960784316062927 0 0 0 0 0.9960784316062927 0 0 0 1 0"></feColorMatrix></filter></defs><g clip-path="url(#__lottie_element_141)"><g filter="url(#__lottie_element_264)" transform="matrix(8.198249816894531,0,0,8.198249816894531,90.0875244140625,90.0875244140625)" opacity="1" style="display: block;"><g opacity="1" transform="matrix(1,0,0,1,50,67.27999877929688)"><path fill="rgb(0,0,0)" fill-opacity="1" d=" M0,-2.181999921798706 C8.401000022888184,-2.181999921798706 15.220000267028809,-9 15.220000267028809,-17.402000427246094 C15.220000267028809,-25.80299949645996 8.401000022888184,-32.619998931884766 0,-32.619998931884766 C-8.401000022888184,-32.619998931884766 -15.220000267028809,-25.80299949645996 -15.220000267028809,-17.402000427246094 C-15.220000267028809,-9 -8.401000022888184,-2.181999921798706 0,-2.181999921798706z M0,-27.489999771118164 C5.558000087738037,-27.489999771118164 10.08899974822998,-22.95800018310547 10.08899974822998,-17.399999618530273 C10.08899974822998,-11.840999603271484 5.557000160217285,-7.310999870300293 0,-7.310999870300293 C-5.558000087738037,-7.310999870300293 -10.09000015258789,-11.840999603271484 -10.09000015258789,-17.399999618530273 C-10.09000015258789,-22.95800018310547 -5.558000087738037,-27.489999771118164 0,-27.489999771118164z M0,2.180000066757202 C-5.900000095367432,2.180000066757202 -11.394000053405762,5.173999786376953 -15.47599983215332,10.625 C-19.38800048828125,15.840999603271484 -21.547000885009766,22.7450008392334 -21.547000885009766,30.05500030517578 C-21.547000885009766,31.466999053955078 -20.39299964904785,32.619998931884766 -18.98200035095215,32.619998931884766 C-18.98200035095215,32.619998931884766 18.98200035095215,32.619998931884766 18.98200035095215,32.619998931884766 C20.39299964904785,32.619998931884766 21.547000885009766,31.466999053955078 21.547000885009766,30.05500030517578 C21.547000885009766,22.7450008392334 19.38800048828125,15.840999603271484 15.47599983215332,10.625 C11.392999649047852,5.173999786376953 5.900000095367432,2.180000066757202 0,2.180000066757202z M-16.309999465942383,27.48900032043457 C-15.390999794006348,16.160999298095703 -8.42199993133545,7.309999942779541 0,7.309999942779541 C8.42199993133545,7.309999942779541 15.390999794006348,16.160999298095703 16.309999465942383,27.48900032043457 C16.309999465942383,27.48900032043457 -16.309999465942383,27.48900032043457 -16.309999465942383,27.48900032043457z"></path></g></g><g filter="url(#__lottie_element_261)" transform="matrix(0,-1,1,0,501.5,865.625)" opacity="1" style="display: block;"><g opacity="1" transform="matrix(1,0,0,1,183.25,182.375)"><path fill="rgb(43,218,20)" fill-opacity="1" d=" M0,-21.375 C11.796862602233887,-21.375 21.375,-11.796862602233887 21.375,0 C21.375,11.796862602233887 11.796862602233887,21.375 0,21.375 C-11.796862602233887,21.375 -21.375,11.796862602233887 -21.375,0 C-21.375,-11.796862602233887 -11.796862602233887,-21.375 0,-21.375z"></path></g></g><g filter="url(#__lottie_element_258)" transform="matrix(0,-1,1,0,548.75,798.875)" opacity="1" style="display: block;"><g opacity="1" transform="matrix(1,0,0,1,183.25,182.375)"><path fill="rgb(43,218,20)" fill-opacity="1" d=" M0,-21.375 C11.796862602233887,-21.375 21.375,-11.796862602233887 21.375,0 C21.375,11.796862602233887 11.796862602233887,21.375 0,21.375 C-11.796862602233887,21.375 -21.375,11.796862602233887 -21.375,0 C-21.375,-11.796862602233887 -11.796862602233887,-21.375 0,-21.375z"></path></g></g><g filter="url(#__lottie_element_255)" transform="matrix(0,-1,1,0,573.75,722.875)" opacity="1" style="display: block;"><g opacity="1" transform="matrix(1,0,0,1,183.25,182.375)"><path fill="rgb(43,218,20)" fill-opacity="1" d=" M0,-21.375 C11.796862602233887,-21.375 21.375,-11.796862602233887 21.375,0 C21.375,11.796862602233887 11.796862602233887,21.375 0,21.375 C-11.796862602233887,21.375 -21.375,11.796862602233887 -21.375,0 C-21.375,-11.796862602233887 -11.796862602233887,-21.375 0,-21.375z"></path></g></g><g filter="url(#__lottie_element_252)" transform="matrix(0,-1,1,0,573.75,641.375)" opacity="1" style="display: block;"><g opacity="1" transform="matrix(1,0,0,1,183.25,182.375)"><path fill="rgb(43,218,20)" fill-opacity="1" d=" M0,-21.375 C11.796862602233887,-21.375 21.375,-11.796862602233887 21.375,0 C21.375,11.796862602233887 11.796862602233887,21.375 0,21.375 C-11.796862602233887,21.375 -21.375,11.796862602233887 -21.375,0 C-21.375,-11.796862602233887 -11.796862602233887,-21.375 0,-21.375z"></path></g></g><g filter="url(#__lottie_element_249)" transform="matrix(0,-1,1,0,549.25,563.875)" opacity="1" style="display: block;"><g opacity="1" transform="matrix(1,0,0,1,183.25,182.375)"><path fill="rgb(43,218,20)" fill-opacity="1" d=" M0,-21.375 C11.796862602233887,-21.375 21.375,-11.796862602233887 21.375,0 C21.375,11.796862602233887 11.796862602233887,21.375 0,21.375 C-11.796862602233887,21.375 -21.375,11.796862602233887 -21.375,0 C-21.375,-11.796862602233887 -11.796862602233887,-21.375 0,-21.375z"></path></g></g><g filter="url(#__lottie_element_246)" transform="matrix(0,-1,1,0,500.75,498.875)" opacity="1" style="display: block;"><g opacity="1" transform="matrix(1,0,0,1,183.25,182.375)"><path fill="rgb(43,218,20)" fill-opacity="1" d=" M0,-21.375 C11.796862602233887,-21.375 21.375,-11.796862602233887 21.375,0 C21.375,11.796862602233887 11.796862602233887,21.375 0,21.375 C-11.796862602233887,21.375 -21.375,11.796862602233887 -21.375,0 C-21.375,-11.796862602233887 -11.796862602233887,-21.375 0,-21.375z"></path></g></g><g filter="url(#__lottie_element_243)" transform="matrix(0,-1,1,0,435.75,450.875)" opacity="1" style="display: block;"><g opacity="1" transform="matrix(1,0,0,1,183.25,182.375)"><path fill="rgb(43,218,20)" fill-opacity="1" d=" M0,-21.375 C11.796862602233887,-21.375 21.375,-11.796862602233887 21.375,0 C21.375,11.796862602233887 11.796862602233887,21.375 0,21.375 C-11.796862602233887,21.375 -21.375,11.796862602233887 -21.375,0 C-21.375,-11.796862602233887 -11.796862602233887,-21.375 0,-21.375z"></path></g></g><g filter="url(#__lottie_element_240)" transform="matrix(0,-1,1,0,358.25,425.375)" opacity="1" style="display: block;"><g opacity="1" transform="matrix(1,0,0,1,183.25,182.375)"><path fill="rgb(43,218,20)" fill-opacity="1" d=" M0,-21.375 C11.796862602233887,-21.375 21.375,-11.796862602233887 21.375,0 C21.375,11.796862602233887 11.796862602233887,21.375 0,21.375 C-11.796862602233887,21.375 -21.375,11.796862602233887 -21.375,0 C-21.375,-11.796862602233887 -11.796862602233887,-21.375 0,-21.375z"></path></g></g><g filter="url(#__lottie_element_237)" transform="matrix(0,-1,1,0,276.5,426.375)" opacity="1" style="display: block;"><g opacity="1" transform="matrix(1,0,0,1,183.25,182.375)"><path fill="rgb(43,218,20)" fill-opacity="1" d=" M0,-21.375 C11.796862602233887,-21.375 21.375,-11.796862602233887 21.375,0 C21.375,11.796862602233887 11.796862602233887,21.375 0,21.375 C-11.796862602233887,21.375 -21.375,11.796862602233887 -21.375,0 C-21.375,-11.796862602233887 -11.796862602233887,-21.375 0,-21.375z"></path></g></g><g filter="url(#__lottie_element_234)" transform="matrix(0,-1,1,0,199.75,450.625)" opacity="1" style="display: block;"><g opacity="1" transform="matrix(1,0,0,1,183.25,182.375)"><path fill="rgb(43,218,20)" fill-opacity="1" d=" M0,-21.375 C11.796862602233887,-21.375 21.375,-11.796862602233887 21.375,0 C21.375,11.796862602233887 11.796862602233887,21.375 0,21.375 C-11.796862602233887,21.375 -21.375,11.796862602233887 -21.375,0 C-21.375,-11.796862602233887 -11.796862602233887,-21.375 0,-21.375z"></path></g></g><g filter="url(#__lottie_element_231)" transform="matrix(0,-1,1,0,133.75,498.875)" opacity="1" style="display: block;"><g opacity="1" transform="matrix(1,0,0,1,183.25,182.375)"><path fill="rgb(43,218,20)" fill-opacity="1" d=" M0,-21.375 C11.796862602233887,-21.375 21.375,-11.796862602233887 21.375,0 C21.375,11.796862602233887 11.796862602233887,21.375 0,21.375 C-11.796862602233887,21.375 -21.375,11.796862602233887 -21.375,0 C-21.375,-11.796862602233887 -11.796862602233887,-21.375 0,-21.375z"></path></g></g><g filter="url(#__lottie_element_228)" transform="matrix(0,-1,1,0,86.25,564.875)" opacity="1" style="display: block;"><g opacity="1" transform="matrix(1,0,0,1,183.25,182.375)"><path fill="rgb(43,218,20)" fill-opacity="1" d=" M0,-21.375 C11.796862602233887,-21.375 21.375,-11.796862602233887 21.375,0 C21.375,11.796862602233887 11.796862602233887,21.375 0,21.375 C-11.796862602233887,21.375 -21.375,11.796862602233887 -21.375,0 C-21.375,-11.796862602233887 -11.796862602233887,-21.375 0,-21.375z"></path></g></g><g mask="url(#__lottie_element_224)" filter="url(#__lottie_element_225)" transform="matrix(0,-1,1,0,61.25,641.875)" opacity="1" style="display: block;"><g opacity="1" transform="matrix(1,0,0,1,183.25,182.375)"><path fill="rgb(43,218,20)" fill-opacity="1" d=" M0,-21.375 C11.796862602233887,-21.375 21.375,-11.796862602233887 21.375,0 C21.375,11.796862602233887 11.796862602233887,21.375 0,21.375 C-11.796862602233887,21.375 -21.375,11.796862602233887 -21.375,0 C-21.375,-11.796862602233887 -11.796862602233887,-21.375 0,-21.375z"></path></g></g><g mask="url(#__lottie_element_221)" filter="url(#__lottie_element_222)" transform="matrix(0,-1,1,0,61.75,723.375)" opacity="1" style="display: block;"><g opacity="1" transform="matrix(1,0,0,1,183.25,182.375)"><path fill="rgb(43,218,20)" fill-opacity="1" d=" M0,-21.375 C11.796862602233887,-21.375 21.375,-11.796862602233887 21.375,0 C21.375,11.796862602233887 11.796862602233887,21.375 0,21.375 C-11.796862602233887,21.375 -21.375,11.796862602233887 -21.375,0 C-21.375,-11.796862602233887 -11.796862602233887,-21.375 0,-21.375z"></path></g></g><g filter="url(#__lottie_element_219)" transform="matrix(0,-1,1,0,86.25,799.875)" opacity="1" style="display: block;"><g opacity="1" transform="matrix(1,0,0,1,183.25,182.375)"><path fill="rgb(43,218,20)" fill-opacity="1" d=" M0,-21.375 C11.796862602233887,-21.375 21.375,-11.796862602233887 21.375,0 C21.375,11.796862602233887 11.796862602233887,21.375 0,21.375 C-11.796862602233887,21.375 -21.375,11.796862602233887 -21.375,0 C-21.375,-11.796862602233887 -11.796862602233887,-21.375 0,-21.375z"></path></g></g><g filter="url(#__lottie_element_216)" transform="matrix(0,-1,1,0,134.25,865.375)" opacity="1" style="display: block;"><g opacity="1" transform="matrix(1,0,0,1,183.25,182.375)"><path fill="rgb(43,218,20)" fill-opacity="1" d=" M0,-21.375 C11.796862602233887,-21.375 21.375,-11.796862602233887 21.375,0 C21.375,11.796862602233887 11.796862602233887,21.375 0,21.375 C-11.796862602233887,21.375 -21.375,11.796862602233887 -21.375,0 C-21.375,-11.796862602233887 -11.796862602233887,-21.375 0,-21.375z"></path></g></g><g filter="url(#__lottie_element_213)" transform="matrix(0,-1,1,0,592.5,957.625)" opacity="1" style="display: block;"><g opacity="1" transform="matrix(1,0,0,1,183.25,182.375)"><path fill="rgb(43,218,20)" fill-opacity="1" d=" M0,-21.375 C11.796862602233887,-21.375 21.375,-11.796862602233887 21.375,0 C21.375,11.796862602233887 11.796862602233887,21.375 0,21.375 C-11.796862602233887,21.375 -21.375,11.796862602233887 -21.375,0 C-21.375,-11.796862602233887 -11.796862602233887,-21.375 0,-21.375z"></path></g></g><g filter="url(#__lottie_element_210)" transform="matrix(0,-1,1,0,643.5,895.625)" opacity="1" style="display: block;"><g opacity="1" transform="matrix(1,0,0,1,183.25,182.375)"><path fill="rgb(43,218,20)" fill-opacity="1" d=" M0,-21.375 C11.796862602233887,-21.375 21.375,-11.796862602233887 21.375,0 C21.375,11.796862602233887 11.796862602233887,21.375 0,21.375 C-11.796862602233887,21.375 -21.375,11.796862602233887 -21.375,0 C-21.375,-11.796862602233887 -11.796862602233887,-21.375 0,-21.375z"></path></g></g><g filter="url(#__lottie_element_207)" transform="matrix(0,-1,1,0,680,824.125)" opacity="1" style="display: block;"><g opacity="1" transform="matrix(1,0,0,1,183.25,182.375)"><path fill="rgb(43,218,20)" fill-opacity="1" d=" M0,-21.375 C11.796862602233887,-21.375 21.375,-11.796862602233887 21.375,0 C21.375,11.796862602233887 11.796862602233887,21.375 0,21.375 C-11.796862602233887,21.375 -21.375,11.796862602233887 -21.375,0 C-21.375,-11.796862602233887 -11.796862602233887,-21.375 0,-21.375z"></path></g></g><g filter="url(#__lottie_element_204)" transform="matrix(0,-1,1,0,701.25,747.125)" opacity="1" style="display: block;"><g opacity="1" transform="matrix(1,0,0,1,183.25,182.375)"><path fill="rgb(43,218,20)" fill-opacity="1" d=" M0,-21.375 C11.796862602233887,-21.375 21.375,-11.796862602233887 21.375,0 C21.375,11.796862602233887 11.796862602233887,21.375 0,21.375 C-11.796862602233887,21.375 -21.375,11.796862602233887 -21.375,0 C-21.375,-11.796862602233887 -11.796862602233887,-21.375 0,-21.375z"></path></g></g><g filter="url(#__lottie_element_201)" transform="matrix(0,-1,1,0,707,668.625)" opacity="1" style="display: block;"><g opacity="1" transform="matrix(1,0,0,1,183.25,182.375)"><path fill="rgb(43,218,20)" fill-opacity="1" d=" M0,-21.375 C11.796862602233887,-21.375 21.375,-11.796862602233887 21.375,0 C21.375,11.796862602233887 11.796862602233887,21.375 0,21.375 C-11.796862602233887,21.375 -21.375,11.796862602233887 -21.375,0 C-21.375,-11.796862602233887 -11.796862602233887,-21.375 0,-21.375z"></path></g></g><g filter="url(#__lottie_element_198)" transform="matrix(0,-1,1,0,695.5,589.625)" opacity="1" style="display: block;"><g opacity="1" transform="matrix(1,0,0,1,183.25,182.375)"><path fill="rgb(43,218,20)" fill-opacity="1" d=" M0,-21.375 C11.796862602233887,-21.375 21.375,-11.796862602233887 21.375,0 C21.375,11.796862602233887 11.796862602233887,21.375 0,21.375 C-11.796862602233887,21.375 -21.375,11.796862602233887 -21.375,0 C-21.375,-11.796862602233887 -11.796862602233887,-21.375 0,-21.375z"></path></g></g><g filter="url(#__lottie_element_195)" transform="matrix(0,-1,1,0,669,514.625)" opacity="1" style="display: block;"><g opacity="1" transform="matrix(1,0,0,1,183.25,182.375)"><path fill="rgb(43,218,20)" fill-opacity="1" d=" M0,-21.375 C11.796862602233887,-21.375 21.375,-11.796862602233887 21.375,0 C21.375,11.796862602233887 11.796862602233887,21.375 0,21.375 C-11.796862602233887,21.375 -21.375,11.796862602233887 -21.375,0 C-21.375,-11.796862602233887 -11.796862602233887,-21.375 0,-21.375z"></path></g></g><g filter="url(#__lottie_element_192)" transform="matrix(0,-1,1,0,628.25,446.875)" opacity="1" style="display: block;"><g opacity="1" transform="matrix(1,0,0,1,183.25,182.375)"><path fill="rgb(43,218,20)" fill-opacity="1" d=" M0,-21.375 C11.796862602233887,-21.375 21.375,-11.796862602233887 21.375,0 C21.375,11.796862602233887 11.796862602233887,21.375 0,21.375 C-11.796862602233887,21.375 -21.375,11.796862602233887 -21.375,0 C-21.375,-11.796862602233887 -11.796862602233887,-21.375 0,-21.375z"></path></g></g><g filter="url(#__lottie_element_189)" transform="matrix(0,-1,1,0,572.75,388.375)" opacity="1" style="display: block;"><g opacity="1" transform="matrix(1,0,0,1,183.25,182.375)"><path fill="rgb(43,218,20)" fill-opacity="1" d=" M0,-21.375 C11.796862602233887,-21.375 21.375,-11.796862602233887 21.375,0 C21.375,11.796862602233887 11.796862602233887,21.375 0,21.375 C-11.796862602233887,21.375 -21.375,11.796862602233887 -21.375,0 C-21.375,-11.796862602233887 -11.796862602233887,-21.375 0,-21.375z"></path></g></g><g filter="url(#__lottie_element_186)" transform="matrix(0,-1,1,0,508.25,342.375)" opacity="1" style="display: block;"><g opacity="1" transform="matrix(1,0,0,1,183.25,182.375)"><path fill="rgb(43,218,20)" fill-opacity="1" d=" M0,-21.375 C11.796862602233887,-21.375 21.375,-11.796862602233887 21.375,0 C21.375,11.796862602233887 11.796862602233887,21.375 0,21.375 C-11.796862602233887,21.375 -21.375,11.796862602233887 -21.375,0 C-21.375,-11.796862602233887 -11.796862602233887,-21.375 0,-21.375z"></path></g></g><g filter="url(#__lottie_element_183)" transform="matrix(0,-1,1,0,435.25,311.875)" opacity="1" style="display: block;"><g opacity="1" transform="matrix(1,0,0,1,183.25,182.375)"><path fill="rgb(43,218,20)" fill-opacity="1" d=" M0,-21.375 C11.796862602233887,-21.375 21.375,-11.796862602233887 21.375,0 C21.375,11.796862602233887 11.796862602233887,21.375 0,21.375 C-11.796862602233887,21.375 -21.375,11.796862602233887 -21.375,0 C-21.375,-11.796862602233887 -11.796862602233887,-21.375 0,-21.375z"></path></g></g><g filter="url(#__lottie_element_180)" transform="matrix(0,-1,1,0,357.25,295.125)" opacity="1" style="display: block;"><g opacity="1" transform="matrix(1,0,0,1,183.25,182.375)"><path fill="rgb(43,218,20)" fill-opacity="1" d=" M0,-21.375 C11.796862602233887,-21.375 21.375,-11.796862602233887 21.375,0 C21.375,11.796862602233887 11.796862602233887,21.375 0,21.375 C-11.796862602233887,21.375 -21.375,11.796862602233887 -21.375,0 C-21.375,-11.796862602233887 -11.796862602233887,-21.375 0,-21.375z"></path></g></g><g filter="url(#__lottie_element_177)" transform="matrix(0,-1,1,0,277.75,295.125)" opacity="1" style="display: block;"><g opacity="1" transform="matrix(1,0,0,1,183.25,182.375)"><path fill="rgb(43,218,20)" fill-opacity="1" d=" M0,-21.375 C11.796862602233887,-21.375 21.375,-11.796862602233887 21.375,0 C21.375,11.796862602233887 11.796862602233887,21.375 0,21.375 C-11.796862602233887,21.375 -21.375,11.796862602233887 -21.375,0 C-21.375,-11.796862602233887 -11.796862602233887,-21.375 0,-21.375z"></path></g></g><g filter="url(#__lottie_element_174)" transform="matrix(0,-1,1,0,200,311.625)" opacity="1" style="display: block;"><g opacity="1" transform="matrix(1,0,0,1,183.25,182.375)"><path fill="rgb(43,218,20)" fill-opacity="1" d=" M0,-21.375 C11.796862602233887,-21.375 21.375,-11.796862602233887 21.375,0 C21.375,11.796862602233887 11.796862602233887,21.375 0,21.375 C-11.796862602233887,21.375 -21.375,11.796862602233887 -21.375,0 C-21.375,-11.796862602233887 -11.796862602233887,-21.375 0,-21.375z"></path></g></g><g filter="url(#__lottie_element_171)" transform="matrix(0,-1,1,0,126,343.125)" opacity="1" style="display: block;"><g opacity="1" transform="matrix(1,0,0,1,183.25,182.375)"><path fill="rgb(43,218,20)" fill-opacity="1" d=" M0,-21.375 C11.796862602233887,-21.375 21.375,-11.796862602233887 21.375,0 C21.375,11.796862602233887 11.796862602233887,21.375 0,21.375 C-11.796862602233887,21.375 -21.375,11.796862602233887 -21.375,0 C-21.375,-11.796862602233887 -11.796862602233887,-21.375 0,-21.375z"></path></g></g><g filter="url(#__lottie_element_168)" transform="matrix(0,-1,1,0,62,388.625)" opacity="1" style="display: block;"><g opacity="1" transform="matrix(1,0,0,1,183.25,182.375)"><path fill="rgb(43,218,20)" fill-opacity="1" d=" M0,-21.375 C11.796862602233887,-21.375 21.375,-11.796862602233887 21.375,0 C21.375,11.796862602233887 11.796862602233887,21.375 0,21.375 C-11.796862602233887,21.375 -21.375,11.796862602233887 -21.375,0 C-21.375,-11.796862602233887 -11.796862602233887,-21.375 0,-21.375z"></path></g></g><g filter="url(#__lottie_element_165)" transform="matrix(0,-1,1,0,7,446.625)" opacity="1" style="display: block;"><g opacity="1" transform="matrix(1,0,0,1,183.25,182.375)"><path fill="rgb(43,218,20)" fill-opacity="1" d=" M0,-21.375 C11.796862602233887,-21.375 21.375,-11.796862602233887 21.375,0 C21.375,11.796862602233887 11.796862602233887,21.375 0,21.375 C-11.796862602233887,21.375 -21.375,11.796862602233887 -21.375,0 C-21.375,-11.796862602233887 -11.796862602233887,-21.375 0,-21.375z"></path></g></g><g filter="url(#__lottie_element_162)" transform="matrix(0,-1,1,0,-34.5,514.625)" opacity="1" style="display: block;"><g opacity="1" transform="matrix(1,0,0,1,183.25,182.375)"><path fill="rgb(43,218,20)" fill-opacity="1" d=" M0,-21.375 C11.796862602233887,-21.375 21.375,-11.796862602233887 21.375,0 C21.375,11.796862602233887 11.796862602233887,21.375 0,21.375 C-11.796862602233887,21.375 -21.375,11.796862602233887 -21.375,0 C-21.375,-11.796862602233887 -11.796862602233887,-21.375 0,-21.375z"></path></g></g><g mask="url(#__lottie_element_158)" filter="url(#__lottie_element_159)" transform="matrix(0,-1,1,0,-59.5,590.125)" opacity="1" style="display: block;"><g opacity="1" transform="matrix(1,0,0,1,183.25,182.375)"><path fill="rgb(43,218,20)" fill-opacity="1" d=" M0,-21.375 C11.796862602233887,-21.375 21.375,-11.796862602233887 21.375,0 C21.375,11.796862602233887 11.796862602233887,21.375 0,21.375 C-11.796862602233887,21.375 -21.375,11.796862602233887 -21.375,0 C-21.375,-11.796862602233887 -11.796862602233887,-21.375 0,-21.375z"></path></g></g><g mask="url(#__lottie_element_155)" filter="url(#__lottie_element_156)" transform="matrix(0,-1,1,0,-71,668.625)" opacity="1" style="display: block;"><g opacity="1" transform="matrix(1,0,0,1,183.25,182.375)"><path fill="rgb(43,218,20)" fill-opacity="1" d=" M0,-21.375 C11.796862602233887,-21.375 21.375,-11.796862602233887 21.375,0 C21.375,11.796862602233887 11.796862602233887,21.375 0,21.375 C-11.796862602233887,21.375 -21.375,11.796862602233887 -21.375,0 C-21.375,-11.796862602233887 -11.796862602233887,-21.375 0,-21.375z"></path></g></g><g mask="url(#__lottie_element_152)" filter="url(#__lottie_element_153)" transform="matrix(0,-1,1,0,-65.5,748.625)" opacity="1" style="display: block;"><g opacity="1" transform="matrix(1,0,0,1,183.25,182.375)"><path fill="rgb(43,218,20)" fill-opacity="1" d=" M0,-21.375 C11.796862602233887,-21.375 21.375,-11.796862602233887 21.375,0 C21.375,11.796862602233887 11.796862602233887,21.375 0,21.375 C-11.796862602233887,21.375 -21.375,11.796862602233887 -21.375,0 C-21.375,-11.796862602233887 -11.796862602233887,-21.375 0,-21.375z"></path></g></g><g filter="url(#__lottie_element_150)" transform="matrix(0,-1,1,0,-44.5,825.125)" opacity="1" style="display: block;"><g opacity="1" transform="matrix(1,0,0,1,183.25,182.375)"><path fill="rgb(43,218,20)" fill-opacity="1" d=" M0,-21.375 C11.796862602233887,-21.375 21.375,-11.796862602233887 21.375,0 C21.375,11.796862602233887 11.796862602233887,21.375 0,21.375 C-11.796862602233887,21.375 -21.375,11.796862602233887 -21.375,0 C-21.375,-11.796862602233887 -11.796862602233887,-21.375 0,-21.375z"></path></g></g><g filter="url(#__lottie_element_147)" transform="matrix(0,-1,1,0,-8,895.625)" opacity="1" style="display: block;"><g opacity="1" transform="matrix(1,0,0,1,183.25,182.375)"><path fill="rgb(43,218,20)" fill-opacity="1" d=" M0,-21.375 C11.796862602233887,-21.375 21.375,-11.796862602233887 21.375,0 C21.375,11.796862602233887 11.796862602233887,21.375 0,21.375 C-11.796862602233887,21.375 -21.375,11.796862602233887 -21.375,0 C-21.375,-11.796862602233887 -11.796862602233887,-21.375 0,-21.375z"></path></g></g><g filter="url(#__lottie_element_144)" transform="matrix(0,-1,1,0,42,957.125)" opacity="1" style="display: block;"><g opacity="1" transform="matrix(1,0,0,1,183.25,182.375)"><path fill="rgb(43,218,20)" fill-opacity="1" d=" M0,-21.375 C11.796862602233887,-21.375 21.375,-11.796862602233887 21.375,0 C21.375,11.796862602233887 11.796862602233887,21.375 0,21.375 C-11.796862602233887,21.375 -21.375,11.796862602233887 -21.375,0 C-21.375,-11.796862602233887 -11.796862602233887,-21.375 0,-21.375z"></path></g></g></g></svg>