{
  "accessors": [
    {
      "bufferView": 2,
      "componentType": 5126,
      "count": 65532,
      "max": [
        104.7041015625,
        28.867490768432617,
        116.17469787597656
      ],
      "min": [
        -113.36029815673828,
        -71.070182800292969,
        44.679241180419922
      ],
      "type": "VEC3"
    },
    {
      "bufferView": 2,
      "byteOffset": 786384,
      "componentType": 5126,
      "count": 65532,
      "max": [
        1,
        1,
        1
      ],
      "min": [
        -1,
        -1,
        -1
      ],
      "type": "VEC3"
    },
    {
      "bufferView": 3,
      "componentType": 5126,
      "count": 65532,
      "max": [
        1,
        1,
        1,
        1
      ],
      "min": [
        -1,
        -1,
        -0.99999654293060303,
        -1
      ],
      "type": "VEC4"
    },
    {
      "bufferView": 1,
      "componentType": 5126,
      "count": 65532,
      "max": [
        0.99286162853240967,
        0.9979436993598938
      ],
      "min": [
        0.00050000002374872565,
        0.00050000002374872565
      ],
      "type": "VEC2"
    },
    {
      "bufferView": 1,
      "byteOffset": 524256,
      "componentType": 5126,
      "count": 65532,
      "max": [
        9.9598970413208008,
        9.9799995422363281
      ],
      "min": [
        -0.018642699345946312,
        -0.0064976001158356667
      ],
      "type": "VEC2"
    },
    {
      "bufferView": 0,
      "componentType": 5125,
      "count": 376896,
      "max": [
        65531
      ],
      "min": [
        0
      ],
      "type": "SCALAR"
    },
    {
      "bufferView": 2,
      "byteOffset": 1572768,
      "componentType": 5126,
      "count": 13624,
      "max": [
        115.29759979248047,
        28.867490768432617,
        97.812820434570312
      ],
      "min": [
        -113.36029815673828,
        -66.762466430664062,
        44.547721862792969
      ],
      "type": "VEC3"
    },
    {
      "bufferView": 2,
      "byteOffset": 1736256,
      "componentType": 5126,
      "count": 13624,
      "max": [
        1,
        1,
        1
      ],
      "min": [
        -1,
        -1,
        -1
      ],
      "type": "VEC3"
    },
    {
      "bufferView": 3,
      "byteOffset": 1048512,
      "componentType": 5126,
      "count": 13624,
      "max": [
        1,
        1,
        1,
        1
      ],
      "min": [
        -0.99987649917602539,
        -1,
        -1,
        -1
      ],
      "type": "VEC4"
    },
    {
      "bufferView": 1,
      "byteOffset": 1048512,
      "componentType": 5126,
      "count": 13624,
      "max": [
        0.97776681184768677,
        0.99949997663497925
      ],
      "min": [
        0.00050000002374872565,
        0.11808619648218155
      ],
      "type": "VEC2"
    },
    {
      "bufferView": 1,
      "byteOffset": 1157504,
      "componentType": 5126,
      "count": 13624,
      "max": [
        9.92071533203125,
        9.8150119781494141
      ],
      "min": [
        -1.7587000131607056,
        -0.44130989909172058
      ],
      "type": "VEC2"
    },
    {
      "bufferView": 0,
      "byteOffset": 1507584,
      "componentType": 5125,
      "count": 66426,
      "max": [
        13623
      ],
      "min": [
        0
      ],
      "type": "SCALAR"
    },
    {
      "bufferView": 2,
      "byteOffset": 1899744,
      "componentType": 5126,
      "count": 536,
      "max": [
        99.850357055664062,
        17.749530792236328,
        45.263328552246094
      ],
      "min": [
        -99.234352111816406,
        -57.935199737548828,
        30.340909957885742
      ],
      "type": "VEC3"
    },
    {
      "bufferView": 2,
      "byteOffset": 1906176,
      "componentType": 5126,
      "count": 536,
      "max": [
        1,
        0.97492784261703491,
        5.5547902775288094e-06
      ],
      "min": [
        -1,
        -0.9749298095703125,
        -1
      ],
      "type": "VEC3"
    },
    {
      "bufferView": 3,
      "byteOffset": 1266496,
      "componentType": 5126,
      "count": 536,
      "max": [
        0.064603284001350403,
        1,
        1,
        1
      ],
      "min": [
        -0.064603298902511597,
        -0.066100738942623138,
        -6.7851800567009235e-13,
        1
      ],
      "type": "VEC4"
    },
    {
      "bufferView": 1,
      "byteOffset": 1266496,
      "componentType": 5126,
      "count": 536,
      "max": [
        0.99243819713592529,
        0.90722417831420898
      ],
      "min": [
        0.80008631944656372,
        0.00050000002374872565
      ],
      "type": "VEC2"
    },
    {
      "bufferView": 1,
      "byteOffset": 1270784,
      "componentType": 5126,
      "count": 536,
      "max": [
        0.33000001311302185,
        1.3471430540084839
      ],
      "min": [
        -0.33000010251998901,
        -0.27285739779472351
      ],
      "type": "VEC2"
    },
    {
      "bufferView": 0,
      "byteOffset": 1773288,
      "componentType": 5125,
      "count": 1470,
      "max": [
        535
      ],
      "min": [
        0
      ],
      "type": "SCALAR"
    },
    {
      "bufferView": 2,
      "byteOffset": 1912608,
      "componentType": 5126,
      "count": 4,
      "max": [
        167.02890014648438,
        167.02890014648438,
        0
      ],
      "min": [
        -167.02890014648438,
        -167.02890014648438,
        0
      ],
      "type": "VEC3"
    },
    {
      "bufferView": 2,
      "byteOffset": 1912656,
      "componentType": 5126,
      "count": 4,
      "max": [
        0,
        0,
        1
      ],
      "min": [
        0,
        0,
        1
      ],
      "type": "VEC3"
    },
    {
      "bufferView": 3,
      "byteOffset": 1275072,
      "componentType": 5126,
      "count": 4,
      "max": [
        1,
        2.3841872121010965e-07,
        0,
        1
      ],
      "min": [
        1,
        1.7881399116959074e-07,
        0,
        1
      ],
      "type": "VEC4"
    },
    {
      "bufferView": 1,
      "byteOffset": 1275072,
      "componentType": 5126,
      "count": 4,
      "max": [
        1,
        1
      ],
      "min": [
        2.98022992950564e-08,
        2.98022992950564e-08
      ],
      "type": "VEC2"
    },
    {
      "bufferView": 0,
      "byteOffset": 1779168,
      "componentType": 5125,
      "count": 6,
      "max": [
        3
      ],
      "min": [
        0
      ],
      "type": "SCALAR"
    }
  ],
  "asset": {
    "extras": {
      "author": "MADE.COM (https://sketchfab.com/made-it)",
      "license": "CC-BY-NC-4.0 (http://creativecommons.org/licenses/by-nc/4.0/)",
      "source": "https://sketchfab.com/3d-models/scott-3-seater-sofagrass-cotton-velvet-3dc930788f85480fa48f8e61e1ebb7b6",
      "title": "Scott 3 Seater Sofa,Grass Cotton Velvet"
    },
    "generator": "Sketchfab-5.11.0",
    "version": "2.0"
  },
  "bufferViews": [
    {
      "buffer": 0,
      "byteLength": 1779192,
      "byteOffset": 0,
      "name": "floatBufferViews",
      "target": 34963
    },
    {
      "buffer": 0,
      "byteLength": 1275104,
      "byteOffset": 1779192,
      "byteStride": 8,
      "name": "floatBufferViews",
      "target": 34962
    },
    {
      "buffer": 0,
      "byteLength": 1912704,
      "byteOffset": 3054296,
      "byteStride": 12,
      "name": "floatBufferViews",
      "target": 34962
    },
    {
      "buffer": 0,
      "byteLength": 1275136,
      "byteOffset": 4967000,
      "byteStride": 16,
      "name": "floatBufferViews",
      "target": 34962
    }
  ],
  "buffers": [
    {
      "byteLength": 6242136,
      "uri": "scene.bin"
    }
  ],
  "images": [
    {
      "uri": "textures/baseColor_1.jpeg"
    },
    {
      "uri": "textures/FABRIC_metallicRoughness.jpeg"
    },
    {
      "uri": "textures/baseColor_1.jpeg"
    },
    {
      "uri": "textures/FLOOR_baseColor.png"
    }
  ],
  "materials": [
    {
      "alphaMode": "BLEND",
      "doubleSided": true,
      "emissiveFactor": [
        0,
        0,
        0
      ],
      "name": "FLOOR",
      "pbrMetallicRoughness": {
        "baseColorFactor": [
          0.1053734756,
          0.1053734756,
          0.1053734756,
          1
        ],
        "baseColorTexture": {
          "index": 3,
          "texCoord": 0
        },
        "metallicFactor": 0,
        "roughnessFactor": 1
      }
    },
    {
      "doubleSided": true,
      "name": "FABRIC_1",
      "occlusionTexture": {
        "index": 1,
        "strength": 1,
        "texCoord": 0
      },
      "pbrMetallicRoughness": {
        "baseColorFactor": [
          1,
          1,
          1,
          1
        ],
        "baseColorTexture": {
          "index": 2,
          "texCoord": 0
        },
        "metallicFactor": 0,
        "roughnessFactor": 1
      }
    },
    {
      "doubleSided": true,
      "emissiveFactor": [
        0,
        0,
        0
      ],
      "name": "EnvironmentAmbientLight",
      "pbrMetallicRoughness": {
        "baseColorFactor": [
          1,
          1,
          1,
          1
        ],
        "baseColorTexture": {
          "index": 0,
          "texCoord": 0
        },
        "metallicFactor": 0,
        "roughnessFactor": 0.40999999999999998
      }
    }
  ],
  "meshes": [
    {
      "name": "FABRIC_1",
      "primitives": [
        {
          "attributes": {
            "NORMAL": 1,
            "POSITION": 0,
            "TANGENT": 2,
            "TEXCOORD_0": 3,
            "TEXCOORD_1": 4
          },
          "indices": 5,
          "material": 1,
          "mode": 4
        }
      ]
    },
    {
      "name": "FABRIC_2",
      "primitives": [
        {
          "attributes": {
            "NORMAL": 7,
            "POSITION": 6,
            "TANGENT": 8,
            "TEXCOORD_0": 9,
            "TEXCOORD_1": 10
          },
          "indices": 11,
          "material": 1,
          "mode": 4
        }
      ]
    },
    {
      "name": "WOOD",
      "primitives": [
        {
          "attributes": {
            "NORMAL": 13,
            "POSITION": 12,
            "TANGENT": 14,
            "TEXCOORD_0": 15,
            "TEXCOORD_1": 16
          },
          "indices": 17,
          "material": 2,
          "mode": 4
        }
      ]
    },
    {
      "name": "FLOOR",
      "primitives": [
        {
          "attributes": {
            "NORMAL": 19,
            "POSITION": 18,
            "TANGENT": 20,
            "TEXCOORD_0": 21
          },
          "indices": 22,
          "material": 0,
          "mode": 4
        }
      ]
    }
  ],
  "nodes": [
    {
      "children": [
        1
      ],
      "name": "RootNode (gltf orientation matrix)",
      "rotation": [
        -0.70710678118654746,
        -0,
        -0,
        0.70710678118654757
      ]
    },
    {
      "children": [
        2
      ],
      "name": "RootNode (model correction matrix)"
    },
    {
      "children": [
        3,
        8,
        10
      ],
      "name": "Collada visual scene group"
    },
    {
      "children": [
        4
      ],
      "name": "Scott_3_Seater_Sofa_Leather"
    },
    {
      "children": [
        5,
        6,
        7
      ],
      "matrix": [
        1,
        0,
        0,
        0,
        0,
        1,
        0,
        0,
        0,
        0,
        1,
        0,
        -0.96863940000000004,
        21.10135,
        -30.340900000000001,
        1
      ],
      "name": ""
    },
    {
      "mesh": 0,
      "name": "FABRIC_1"
    },
    {
      "mesh": 1,
      "name": "FABRIC_2"
    },
    {
      "mesh": 2,
      "name": "WOOD"
    },
    {
      "children": [
        9
      ],
      "name": "Plane001"
    },
    {
      "mesh": 3,
      "name": "FLOOR"
    },
    {
      "children": [
        11
      ],
      "name": "EnvironmentAmbientLight"
    },
    {
      "name": "EnvironmentAmbientLight"
    }
  ],
  "samplers": [
    {
      "magFilter": 9729,
      "minFilter": 9987,
      "wrapS": 10497,
      "wrapT": 10497
    }
  ],
  "scene": 0,
  "scenes": [
    {
      "name": "OSG_Scene",
      "nodes": [
        0
      ]
    }
  ],
  "textures": [
    {
      "sampler": 0,
      "source": 0
    },
    {
      "sampler": 0,
      "source": 1
    },
    {
      "sampler": 0,
      "source": 2
    },
    {
      "sampler": 0,
      "source": 3
    }
  ]
}

